<svg width="262" height="395" viewBox="0 0 262 395" fill="none" xmlns="http://www.w3.org/2000/svg">
<path d="M169.597 186.417H169.685L169.772 186.407L188.723 184.174L210.658 183.041C215.518 182.79 219.597 186.663 219.597 191.53V229.511C219.597 234.102 215.952 237.863 211.364 238.007L132.097 240.499L54.8234 238.014C50.2378 237.866 46.5967 234.106 46.5967 229.518V191C46.5967 186.306 50.4023 182.5 55.0967 182.5H71.5222L93.9482 184.731L93.964 184.733L93.9799 184.734L115.48 186.413L115.538 186.417H115.597H132.097H152.597H169.597Z" fill="#FFFEF6" stroke="black" stroke-width="3"/>
<path d="M59.5967 250.5V240.5H205.367L203.112 256.288L203.097 256.393V256.5V272V290V290.11L203.113 290.218L205.61 307.2L208.097 327.591V341.367L205.665 354.985L199.448 365.984L188.234 374.272L177.912 381.154L159.247 388.03L128.948 391.507L105.533 393.5H84.1501L56.4367 391.52L41.7313 385.638L27.9855 378.274L16.7434 367.521L7.99055 354.878L5.59668 344.824V330.107L8.02945 313.077L16.7333 300.989L28.0383 290.175L38.4287 283.248L38.4581 283.229L38.4865 283.208L47.9865 276.208L48.1642 276.077L48.2967 275.9L54.2967 267.9L54.3659 267.808L54.4202 267.706L58.4202 260.206L58.5557 259.952L58.5875 259.666L59.5875 250.666L59.5967 250.583V250.5Z" fill="#C00F0F" stroke="black" stroke-width="3"/>
<path d="M86.7102 326.072C93.0582 341.454 92.585 358.363 89.3286 371.45C87.7011 377.991 85.3956 383.505 82.9624 387.346C81.7442 389.269 80.5253 390.722 79.3868 391.679C78.2326 392.648 77.2918 393 76.5967 393C37.1697 393 6.57429 367.104 4.5936 336.403C3.62561 321.4 10.2867 306.891 19.3105 296.087C23.814 290.695 28.8684 286.273 33.774 283.21C38.5754 280.212 43.1154 278.588 46.7959 278.503C50.266 280.003 56.4041 282.899 63.5047 289.696C70.8172 296.697 79.2064 307.89 86.7102 326.072Z" fill="#FFFEF6" stroke="black" stroke-width="3"/>
<path d="M169.647 384.069L169.602 384.083L169.558 384.1C164.674 385.979 161.053 387.206 158.336 387.67C155.614 388.135 154.186 387.766 153.294 386.954C152.313 386.059 151.563 384.276 151.123 380.878C150.692 377.543 150.597 373.011 150.597 367C150.597 345.977 167.198 329 187.597 329C194.001 329 198.519 329.001 201.746 329.268C205.041 329.541 206.593 330.073 207.407 330.804C208.146 331.467 208.554 332.556 208.669 334.954C208.735 336.343 208.702 337.952 208.661 339.92C208.631 341.383 208.597 343.045 208.597 344.961C208.112 354.155 202.789 362.548 195.274 369.391C187.76 376.233 178.206 381.379 169.647 384.069Z" fill="#FFFEF6" stroke="black" stroke-width="3"/>
<path d="M53.9058 291.974L68.9058 275.974" stroke="black" stroke-width="3" stroke-linecap="round"/>
<path d="M69 309.088L86.5983 296" stroke="black" stroke-width="3" stroke-linecap="round"/>
<path d="M81 350L102.901 351.164" stroke="black" stroke-width="3" stroke-linecap="round"/>
<path d="M77 371L97.8992 377.65" stroke="black" stroke-width="3" stroke-linecap="round"/>
<path d="M78 328.316L98.6755 321" stroke="black" stroke-width="3" stroke-linecap="round"/>
<path d="M8.17687 138.979C6.79647 139.009 5.70123 140.151 5.73057 141.532C5.75991 142.912 6.90273 144.007 8.28313 143.978L8.17687 138.979ZM46.1978 138.171L8.17687 138.979L8.28313 143.978L46.3041 143.17L46.1978 138.171Z" fill="black"/>
<path d="M24.2004 180.104C23.0167 180.814 22.6332 182.35 23.344 183.534C24.0547 184.718 25.5905 185.101 26.7742 184.39L24.2004 180.104ZM56.8042 160.527L24.2004 180.104L26.7742 184.39L59.378 164.814L56.8042 160.527Z" fill="black"/>
<path d="M222.228 124.622C219.739 150.011 210.545 165.981 195.326 176.003C180.071 186.049 158.69 190.171 131.712 191.671C107.317 191.669 85.7341 187.922 69.4262 177.685C53.143 167.463 42.0569 150.731 38.722 124.607C35.7472 101.305 46.8085 77.1994 64.7541 58.8956C82.6978 40.5937 107.451 28.1705 131.726 28.1705C156.011 28.1705 179.886 39.6014 197.07 57.3929C214.253 75.1826 224.712 99.2934 222.228 124.622Z" fill="black" stroke="black"/>
<path d="M227.758 75.4886L219.128 92.749L179.397 43.2073L185.036 37.5676L194.912 31.6421L207.003 29.0488L221.725 28.1715L235.452 29.0242L236.224 38.1703L235.419 47.5867L232.744 58.0399L227.758 75.4886Z" fill="black" stroke="black"/>
<path d="M218.278 67.9455L212.687 77.264L202.631 63.3773L202.614 63.3539L202.595 63.3327L191.967 51.7395L195.503 49.0879L201.446 45.621L206.401 43.6391L212.836 41.409L219.714 40.6747L224.097 41.3544L224.722 46.172L224.053 51.5696L221.753 59.5053L218.278 67.9455Z" fill="#F5F2C4" stroke="black"/>
<path d="M70.5171 32.5605L88.4226 39.8701L63.8662 65.3234L63.8535 65.3365L63.8418 65.3506L42.2078 91.3317L38.6716 85.9383L34.6903 75.9848L34.6847 75.9711L34.6784 75.9576L30.697 67.4971L27.7133 56.5571L24.7228 41.1058L23.761 27.0372L32.6255 26.9543L42.1137 27.0418L52.74 28.9155L70.5171 32.5605Z" fill="black" stroke="black"/>
<path d="M64.0122 47.1028L71.8544 50.8114L61.4233 60.774L61.3955 60.8005L61.372 60.8311L50.2178 75.36L46.6495 70.8995L44.1799 65.9604L42.0428 60.9482L39.2068 53.5282L37.7317 46.6249L38.3511 40.9304L42.7298 40.6712L49.1381 40.9529L56.0381 43.1355L64.0032 47.0984L64.0032 47.0985L64.0122 47.1028Z" fill="#F4F5BA" stroke="black"/>
<circle cx="89.7261" cy="133.171" r="25" fill="#FFFEF6" stroke="black"/>
<circle cx="97.2261" cy="133.671" r="9.5" fill="black" stroke="black"/>
<circle cx="172.726" cy="133.171" r="25" fill="#F5F5F5" stroke="black"/>
<circle cx="165.226" cy="133.671" r="9.5" fill="black" stroke="black"/>
<ellipse cx="130.226" cy="156.671" rx="8" ry="6" fill="#6E5645"/>
<path d="M205.226 196.171C206.726 207.171 192.726 220.171 179.226 208.671C163.726 211.171 157.226 206.94 157.226 196.171C157.226 185.401 167.971 176.671 181.226 176.671C194.481 176.671 205.226 185.401 205.226 196.171Z" fill="black"/>
<path d="M205.226 196.171C206.726 207.171 192.726 220.171 179.226 208.671C163.726 211.171 157.226 206.94 157.226 196.171C157.226 185.401 167.971 176.671 181.226 176.671C194.481 176.671 205.226 185.401 205.226 196.171Z" fill="black"/>
<path d="M205.226 196.171C206.726 207.171 192.726 220.171 179.226 208.671C163.726 211.171 157.226 206.94 157.226 196.171C157.226 185.401 167.971 176.671 181.226 176.671C194.481 176.671 205.226 185.401 205.226 196.171Z" stroke="black"/>
<path d="M103.883 183.12C112.726 200.17 102.216 210.488 85.2259 206.67C72.2259 214.17 65.7365 214.182 60.9296 204.545C56.1227 194.907 59.726 181.171 73.7026 176.383C85.5639 170.466 99.0761 173.483 103.883 183.12Z" fill="black"/>
<path d="M103.883 183.12C112.726 200.17 102.216 210.488 85.2259 206.67C72.2259 214.17 65.7365 214.182 60.9296 204.545C56.1227 194.907 59.726 181.171 73.7026 176.383C85.5639 170.466 99.0761 173.483 103.883 183.12Z" fill="black"/>
<path d="M103.883 183.12C112.726 200.17 102.216 210.488 85.2259 206.67C72.2259 214.17 65.7365 214.182 60.9296 204.545C56.1227 194.907 59.726 181.171 73.7026 176.383C85.5639 170.466 99.0761 173.483 103.883 183.12Z" stroke="black"/>
<path d="M252.127 144.669C253.507 144.723 254.67 143.649 254.724 142.269C254.779 140.889 253.704 139.727 252.325 139.672L252.127 144.669ZM214.127 143.169L252.127 144.669L252.325 139.672L214.325 138.172L214.127 143.169Z" fill="black"/>
<path d="M237.52 182.685C238.767 183.276 240.258 182.744 240.85 181.496C241.441 180.249 240.909 178.758 239.661 178.166L237.52 182.685ZM203.155 166.396L237.52 182.685L239.661 178.166L205.297 161.878L203.155 166.396Z" fill="black"/>
</svg>
