<svg width="314" height="423" viewBox="0 0 314 423" fill="none" xmlns="http://www.w3.org/2000/svg">
<path d="M195.368 213.966H195.456L195.543 213.956L214.535 211.719L236.54 210.582C241.4 210.331 245.478 214.204 245.478 219.071V257.177C245.478 261.767 241.834 265.528 237.246 265.673L157.788 268.171L80.3273 265.679C75.7417 265.532 72.1006 261.772 72.1006 257.184V218.541C72.1006 213.846 75.9062 210.041 80.6006 210.041H97.083L119.557 212.277L119.573 212.278L119.589 212.279L141.135 213.962L141.193 213.966H141.252H157.787H178.331H195.368Z" fill="#FFFEF6" stroke="black" stroke-width="3"/>
<path d="M85.1289 278.19V268.165H231.219L228.958 283.991L228.943 284.096V284.203V299.736V317.775V317.884L228.959 317.993L231.462 335.011L233.954 355.446V369.252L231.517 382.9L225.286 393.924L214.048 402.23L203.703 409.127L184.997 416.018L154.632 419.503L131.167 421.5H109.738L81.9646 419.516L67.227 413.621L53.4512 406.241L42.1844 395.464L33.4122 382.793L31.0129 372.717V357.967L33.4511 340.9L42.1742 328.785L53.504 317.947L63.9169 311.005L63.9463 310.986L63.9746 310.965L73.495 303.95L73.6728 303.819L73.8052 303.642L79.8181 295.625L79.8874 295.533L79.9417 295.431L83.9502 287.915L84.0857 287.661L84.1175 287.375L85.1197 278.355L85.1289 278.273V278.19Z" fill="#C00F0F" stroke="black" stroke-width="3"/>
<path d="M112.307 353.923C118.669 369.339 118.194 386.285 114.931 399.401C113.3 405.956 110.989 411.482 108.551 415.331C107.33 417.258 106.108 418.715 104.967 419.674C103.81 420.646 102.866 420.999 102.169 420.999C62.6557 420.999 31.9927 395.047 30.0076 364.278C29.0375 349.241 35.7134 334.7 44.7568 323.872C49.2702 318.468 54.3357 314.037 59.2522 310.967C64.0645 307.962 68.615 306.335 72.3043 306.25C75.782 307.752 81.934 310.655 89.0507 317.468C96.3792 324.484 104.787 335.701 112.307 353.923Z" fill="#FFFEF6" stroke="black" stroke-width="3"/>
<path d="M195.419 412.049L195.375 412.063L195.331 412.08C190.436 413.962 186.807 415.192 184.084 415.657C181.355 416.123 179.924 415.754 179.029 414.939C178.044 414.042 177.292 412.254 176.852 408.848C176.42 405.505 176.324 400.964 176.324 394.94C176.324 373.87 192.963 356.855 213.407 356.855C219.825 356.855 224.353 356.856 227.587 357.124C230.889 357.397 232.445 357.931 233.262 358.664C234.003 359.329 234.413 360.422 234.527 362.825C234.593 364.217 234.56 365.83 234.52 367.802C234.49 369.269 234.455 370.933 234.455 372.854C233.969 382.069 228.634 390.481 221.103 397.338C213.573 404.195 203.997 409.353 195.419 412.049Z" fill="#FFFEF6" stroke="black" stroke-width="3"/>
<path d="M79.4287 319.753L94.4609 303.719" stroke="black" stroke-width="3" stroke-linecap="round"/>
<path d="M94.5554 336.904L112.191 323.787" stroke="black" stroke-width="3" stroke-linecap="round"/>
<path d="M106.581 377.903L128.529 379.07" stroke="black" stroke-width="3" stroke-linecap="round"/>
<path d="M102.573 398.948L123.517 405.613" stroke="black" stroke-width="3" stroke-linecap="round"/>
<path d="M103.575 356.173L124.295 348.841" stroke="black" stroke-width="3" stroke-linecap="round"/>
<path d="M228.832 222.521C230.355 233.573 216.134 246.634 202.421 235.08C186.676 237.592 180.074 233.341 180.074 222.521C180.074 211.7 190.989 202.929 204.453 202.929C217.917 202.929 228.832 211.7 228.832 222.521Z" fill="white"/>
<path d="M228.832 222.521C230.355 233.573 216.134 246.634 202.421 235.08C186.676 237.592 180.074 233.341 180.074 222.521C180.074 211.7 190.989 202.929 204.453 202.929C217.917 202.929 228.832 211.7 228.832 222.521Z" fill="white"/>
<path d="M228.832 222.521C230.355 233.573 216.134 246.634 202.421 235.08C186.676 237.592 180.074 233.341 180.074 222.521C180.074 211.7 190.989 202.929 204.453 202.929C217.917 202.929 228.832 211.7 228.832 222.521Z" stroke="black" stroke-width="3"/>
<path d="M132.866 211.492C140.977 227.131 131.337 236.595 115.752 233.093C103.828 239.973 97.8752 239.983 93.466 231.143C89.0568 222.304 92.362 209.703 105.182 205.311C116.062 199.885 128.456 202.652 132.866 211.492Z" fill="white"/>
<path d="M132.866 211.492C140.977 227.131 131.337 236.595 115.752 233.093C103.828 239.973 97.8752 239.983 93.466 231.143C89.0568 222.304 92.362 209.703 105.182 205.311C116.062 199.885 128.456 202.652 132.866 211.492Z" fill="white"/>
<path d="M132.866 211.492C140.977 227.131 131.337 236.595 115.752 233.093C103.828 239.973 97.8752 239.983 93.466 231.143C89.0568 222.304 92.362 209.703 105.182 205.311C116.062 199.885 128.456 202.652 132.866 211.492Z" stroke="black" stroke-width="3"/>
<path d="M94.3865 96.3131L94.3581 96.3344L94.333 96.3595L89.7514 100.941L85.1697 105.523L85.1537 105.539L85.1392 105.556L81.3212 110.138L81.3211 110.138L81.3149 110.146L78.2605 113.964L78.2469 113.98L78.2349 113.999L73.8181 120.624L49.9524 118.471L40.1623 25.0889L119.265 63.5102L120.133 80.3765L114.317 83.2846L114.307 83.2895L114.297 83.2948L107.425 87.1128L107.407 87.1226L107.39 87.1338L100.518 91.7154L100.506 91.7231L100.495 91.7315L94.3865 96.3131Z" fill="#373C36" stroke="black"/>
<circle cx="38.8075" cy="25.0096" r="10.954" fill="#373C36" stroke="black"/>
<path d="M219.614 99.8668L219.642 99.8881L219.668 99.9132L224.249 104.495L228.831 109.076L228.847 109.092L228.861 109.11L232.679 113.692L232.679 113.691L232.686 113.699L235.74 117.517L235.754 117.534L235.766 117.552L240.182 124.177L264.048 122.025L273.838 28.6427L194.735 67.064L193.868 83.9302L199.684 86.8384L199.694 86.8432L199.703 86.8485L206.576 90.6665L206.593 90.6763L206.61 90.6876L213.483 95.2692L213.494 95.2769L213.505 95.2852L219.614 99.8668Z" fill="#373C36" stroke="black"/>
<circle cx="11.454" cy="11.454" r="10.954" transform="matrix(-1 0 0 1 286.647 17.1093)" fill="#373C36" stroke="black"/>
<path d="M155.687 217.703L155.663 217.701H155.639C132.488 217.701 109.295 213.697 91.9076 203.924C74.549 194.168 62.9791 178.668 62.4791 155.585C62.9791 134.386 74.578 113.513 91.9961 97.9243C109.411 82.3382 132.587 72.0893 155.639 72.0893C178.689 72.0893 201.863 82.4839 219.28 98.1444C236.7 113.808 248.298 134.681 248.298 155.585C248.298 176.466 236.963 193.12 219.705 204.003C202.439 214.891 179.263 219.985 155.687 217.703Z" fill="#373C36" stroke="black"/>
<path d="M179.574 126.569C179.574 132.968 177.88 136.774 174.439 139.122C170.937 141.512 165.532 142.467 157.903 142.868C150.668 143.249 144.484 142.668 140.124 140.349C137.956 139.196 136.241 137.614 135.064 135.5C133.886 133.384 133.23 130.704 133.23 127.332C133.23 122.209 135.73 116.406 139.811 111.877C143.889 107.353 149.49 104.161 155.638 104.161C161.804 104.161 167.794 107.177 172.252 111.519C176.715 115.866 179.574 121.471 179.574 126.569Z" fill="#FF759E" stroke="#FF759E"/>
<rect x="148.002" y="138.786" width="6.10881" height="9.16321" fill="#FF759E"/>
<rect x="160.22" y="138.786" width="6.10881" height="9.16321" fill="#FF759E"/>
<rect x="155.639" y="137.259" width="3.0544" height="10.6904" fill="#FF759E"/>
<ellipse cx="142.508" cy="128.63" rx="3.99129" ry="5.9084" transform="rotate(12.732 142.508 128.63)" fill="#2F4135"/>
<ellipse cx="170.064" cy="128.665" rx="3.99129" ry="5.9084" transform="rotate(-13.5262 170.064 128.665)" fill="#2F4135"/>
<path d="M155.775 160.183L156.436 160.714L157.068 160.149C174.793 144.31 190.993 142.877 202.676 147.994C214.443 153.149 221.835 165.013 221.835 176.203C221.835 184.841 220.008 191.67 216.758 197.068C213.509 202.464 208.799 206.498 202.924 209.483C191.129 215.476 174.729 217.201 156.402 217.201C138.055 217.201 121.661 215.855 109.868 210.05C104 207.161 99.2954 203.179 96.049 197.717C92.7996 192.251 90.9688 185.231 90.9688 176.203C90.9688 165.054 98.5085 154.136 110.381 149.44C122.202 144.765 138.436 146.236 155.775 160.183Z" fill="white" stroke="black" stroke-width="2"/>
<path d="M162.774 191.475C162.774 192.743 162.041 193.942 160.751 194.845C159.463 195.746 157.657 196.32 155.638 196.32C153.62 196.32 151.814 195.746 150.526 194.845C149.236 193.942 148.502 192.743 148.502 191.475C148.502 190.207 149.236 189.007 150.526 188.105C151.814 187.203 153.62 186.629 155.638 186.629C157.657 186.629 159.463 187.203 160.751 188.105C162.041 189.007 162.774 190.207 162.774 191.475Z" fill="#FF759E" stroke="black"/>
<path d="M206.036 173.148C206.036 182.004 201.592 189.184 196.109 189.184C190.627 189.184 186.183 182.004 186.183 173.148C184.655 167.039 191.528 168.567 195.346 165.512C202.982 160.167 206.036 164.292 206.036 173.148Z" fill="black"/>
<path d="M206.036 173.148C206.036 182.004 201.592 189.184 196.109 189.184C190.627 189.184 186.183 182.004 186.183 173.148C184.655 167.039 191.528 168.567 195.346 165.512C202.982 160.167 206.036 164.292 206.036 173.148Z" fill="black"/>
<path d="M205.62 158.363C205.773 158.133 206.084 158.071 206.313 158.224C206.543 158.377 206.605 158.687 206.452 158.917L205.62 158.363ZM204.509 160.931L204.925 161.208L204.869 161.291L204.786 161.347L204.509 160.931ZM202.218 162.458L201.916 162.059L201.928 162.05L201.941 162.042L202.218 162.458ZM200.965 163.407L200.647 163.021L200.655 163.015L200.663 163.009L200.965 163.407ZM198.4 165.512L198.205 165.973L197.444 165.65L198.083 165.126L198.4 165.512ZM200.201 166.276L200.396 165.816L201.143 166.132L200.524 166.657L200.201 166.276ZM206.452 158.917L204.925 161.208L204.093 160.653L205.62 158.363L206.452 158.917ZM204.786 161.347L202.495 162.874L201.941 162.042L204.232 160.515L204.786 161.347ZM202.52 162.856L201.266 163.806L200.663 163.009L201.916 162.059L202.52 162.856ZM201.282 163.794L198.717 165.899L198.083 165.126L200.647 163.021L201.282 163.794ZM198.595 165.052L200.396 165.816L200.006 166.736L198.205 165.973L198.595 165.052ZM200.524 166.657L198.723 168.184L198.077 167.422L199.878 165.895L200.524 166.657Z" fill="black"/>
<path d="M208.274 162.356C208.427 162.126 208.738 162.064 208.968 162.217C209.197 162.37 209.259 162.681 209.106 162.91L208.274 162.356ZM207.163 164.924L207.579 165.201L207.523 165.284L207.44 165.34L207.163 164.924ZM204.872 166.451L204.57 166.052L204.582 166.043L204.595 166.035L204.872 166.451ZM203.619 167.401L203.301 167.014L203.309 167.008L203.317 167.002L203.619 167.401ZM201.054 169.505L200.859 169.966L200.098 169.643L200.737 169.119L201.054 169.505ZM202.855 170.269L203.05 169.809L203.797 170.126L203.178 170.65L202.855 170.269ZM209.106 162.91L207.579 165.201L206.747 164.646L208.274 162.356L209.106 162.91ZM207.44 165.34L205.149 166.867L204.595 166.035L206.886 164.508L207.44 165.34ZM205.174 166.85L203.92 167.799L203.317 167.002L204.57 166.052L205.174 166.85ZM203.936 167.787L201.371 169.892L200.737 169.119L203.301 167.014L203.936 167.787ZM201.249 169.045L203.05 169.809L202.66 170.729L200.859 169.966L201.249 169.045ZM203.178 170.65L201.378 172.178L200.731 171.415L202.532 169.888L203.178 170.65Z" fill="black"/>
<path d="M106.768 171.712C106.768 180.569 111.213 187.748 116.695 187.748C122.177 187.748 126.622 180.569 126.622 171.712C128.149 165.604 121.277 167.131 117.459 164.077C109.823 158.731 106.768 162.856 106.768 171.712Z" fill="black"/>
<path d="M106.768 171.712C106.768 180.569 111.213 187.748 116.695 187.748C122.177 187.748 126.622 180.569 126.622 171.712C128.149 165.604 121.277 167.131 117.459 164.077C109.823 158.731 106.768 162.856 106.768 171.712Z" fill="black"/>
<path d="M106.381 156.901C106.264 156.651 105.967 156.543 105.717 156.659C105.466 156.776 105.358 157.074 105.475 157.324L106.381 156.901ZM106.869 159.129L106.416 159.34L106.426 159.363L106.439 159.385L106.869 159.129ZM107.945 160.931L107.516 161.187L107.548 161.24L107.592 161.284L107.945 160.931ZM110.236 163.221L109.882 163.575L110.236 163.221ZM111 163.985L111.353 163.631L111.353 163.631L111 163.985ZM111.763 164.749L111.41 165.102L111.424 165.117L111.44 165.13L111.763 164.749ZM105.475 157.324L106.416 159.34L107.322 158.917L106.381 156.901L105.475 157.324ZM106.439 159.385L107.516 161.187L108.374 160.674L107.298 158.872L106.439 159.385ZM107.592 161.284L109.882 163.575L110.59 162.868L108.299 160.577L107.592 161.284ZM109.882 163.575L110.646 164.339L111.353 163.631L110.59 162.868L109.882 163.575ZM110.646 164.339L111.41 165.102L112.117 164.395L111.353 163.631L110.646 164.339ZM111.44 165.13L113.241 166.657L113.887 165.894L112.087 164.367L111.44 165.13Z" fill="black"/>
<path d="M104.854 163.01C104.737 162.76 104.44 162.652 104.19 162.768C103.939 162.885 103.831 163.183 103.948 163.433L104.854 163.01ZM105.342 165.237L104.888 165.449L104.899 165.472L104.912 165.494L105.342 165.237ZM106.418 167.039L105.989 167.296L106.021 167.349L106.065 167.393L106.418 167.039ZM108.709 169.33L108.355 169.684L108.709 169.33ZM109.473 170.094L109.826 169.74L109.826 169.74L109.473 170.094ZM110.236 170.857L109.883 171.211L109.897 171.225L109.913 171.239L110.236 170.857ZM103.948 163.433L104.888 165.449L105.795 165.026L104.854 163.01L103.948 163.433ZM104.912 165.494L105.989 167.296L106.847 166.783L105.771 164.981L104.912 165.494ZM106.065 167.393L108.355 169.684L109.062 168.977L106.772 166.686L106.065 167.393ZM108.355 169.684L109.119 170.447L109.826 169.74L109.062 168.977L108.355 169.684ZM109.119 170.447L109.883 171.211L110.59 170.504L109.826 169.74L109.119 170.447ZM109.913 171.239L111.714 172.766L112.36 172.003L110.56 170.476L109.913 171.239Z" fill="black"/>
<path d="M166.592 200.069C166.591 201.97 166.544 204.418 165.412 206.508C164.269 208.619 161.96 210.458 157.127 210.83C156.989 210.84 156.691 210.77 156.208 210.527C155.75 210.295 155.198 209.946 154.582 209.503C153.353 208.62 151.915 207.396 150.542 206.095C149.168 204.794 147.872 203.428 146.923 202.262C146.447 201.679 146.067 201.156 145.808 200.723C145.679 200.506 145.585 200.321 145.525 200.169C145.484 200.066 145.464 199.99 145.455 199.938C145.539 199.957 145.647 199.992 145.783 200.046C146.242 200.229 146.853 200.563 147.617 200.981C147.876 201.123 148.153 201.274 148.448 201.433C150.711 202.651 153.865 204.192 157.166 204.192C160.488 204.192 163.076 202.635 164.793 201.398C165.143 201.146 165.461 200.904 165.739 200.693C165.802 200.645 165.863 200.599 165.922 200.554C166.197 200.345 166.417 200.183 166.592 200.069ZM166.875 199.919C166.877 199.918 166.879 199.918 166.879 199.918C166.879 199.918 166.877 199.918 166.875 199.919Z" stroke="black"/>
<line x1="156.139" y1="204.456" x2="156.139" y2="210.565" stroke="black"/>
<path d="M160.984 203.692V209.801" stroke="black"/>
<circle cx="210.347" cy="113.024" r="12.5434" fill="#FB816A"/>
<path d="M205.875 122.879L206.852 123.378L207.671 123.743L209.072 123.955L210.074 123.964L211.678 123.777L212.883 123.386L213.889 122.947" stroke="#F39F8F" stroke-linecap="round"/>
<circle cx="229.162" cy="119.295" r="12.5434" fill="#FC3047"/>
<path d="M229.162 129.151L230.258 129.151L231.154 129.104L232.498 128.656L233.394 128.208L234.738 127.312L235.634 126.416L236.33 125.567" stroke="#FF7080" stroke-linecap="round"/>
<mask id="path-40-outside-1_119_217" maskUnits="userSpaceOnUse" x="184.427" y="58.6418" width="93" height="67" fill="black">
<rect fill="white" x="184.427" y="58.6418" width="93" height="67"/>
<path fill-rule="evenodd" clip-rule="evenodd" d="M206.763 65.5378L205.419 65.9858L203.627 65.9858L201.835 64.6418L201.387 66.4337L200.491 68.2257L199.147 69.5696L197.803 71.3615L196.907 72.7054L195.563 73.6014L194.219 74.4973L192.427 74.9454L193.771 75.8413L194.667 76.7373L195.563 77.6332L196.011 79.4251L196.459 81.2171L196.754 82.561L196.754 83.9049L196.754 86.1448L196.754 89.2911L196.011 91.9686L194.667 93.5098L196.459 93.7605L198.251 94.6564L200.043 96.2128L201.387 97.7922L203.179 100.032L205.867 98.6882L209.002 97.7923H210.794L213.93 98.2402L216.618 99.1362L219.306 100.928L221.098 102.272L222.442 103.616L223.338 105.408L225.13 104.512L227.818 104.512L230.058 104.512L230.506 98.2401L228.266 96.8962L226.922 95.5522L226.474 94.6563L225.717 93.5098L225.13 91.9686L225.13 90.1766L225.13 87.9367L225.717 86.1448L227.076 83.9049L228.195 83.0089L226.474 82.113L225.13 81.217L224.234 80.3211L223.338 79.4251L221.994 77.6332L221.098 75.3933L220.65 71.8095L220.202 69.1216L217.962 69.5696L215.274 69.5696L213.482 69.1216L211.69 68.2257L210.571 67.3297L209.003 65.9858L208.107 64.6418L206.763 65.5378ZM267.688 106.304L270.824 103.616L267.688 102.272L265.896 100.928L263.656 99.1361L261.864 96.0003L260.52 91.9685L257.385 94.2084L255.145 94.6564L252.905 94.2084L250.665 93.3124L248.425 91.9685L246.185 90.1765L245.289 92.4164L243.497 94.6564L242.153 96.4484L239.913 98.2403H237.226H232.746L230.506 98.2401L230.058 104.512H231.85L233.642 104.96L235.434 105.856L237.673 106.752L239.017 108.096L240.361 109.44L241.705 111.232L242.153 112.576L243.049 114.815L243.497 116.607L243.945 118.847L245.737 119.295L247.529 119.743L248.873 120.639L250.217 121.535L252.009 119.295L254.249 117.503L256.041 117.055L258.281 116.607H260.52L262.312 117.055L264.104 117.503V112.576L265 109.888L265.896 108.096L267.688 106.304Z"/>
</mask>
<path fill-rule="evenodd" clip-rule="evenodd" d="M206.763 65.5378L205.419 65.9858L203.627 65.9858L201.835 64.6418L201.387 66.4337L200.491 68.2257L199.147 69.5696L197.803 71.3615L196.907 72.7054L195.563 73.6014L194.219 74.4973L192.427 74.9454L193.771 75.8413L194.667 76.7373L195.563 77.6332L196.011 79.4251L196.459 81.2171L196.754 82.561L196.754 83.9049L196.754 86.1448L196.754 89.2911L196.011 91.9686L194.667 93.5098L196.459 93.7605L198.251 94.6564L200.043 96.2128L201.387 97.7922L203.179 100.032L205.867 98.6882L209.002 97.7923H210.794L213.93 98.2402L216.618 99.1362L219.306 100.928L221.098 102.272L222.442 103.616L223.338 105.408L225.13 104.512L227.818 104.512L230.058 104.512L230.506 98.2401L228.266 96.8962L226.922 95.5522L226.474 94.6563L225.717 93.5098L225.13 91.9686L225.13 90.1766L225.13 87.9367L225.717 86.1448L227.076 83.9049L228.195 83.0089L226.474 82.113L225.13 81.217L224.234 80.3211L223.338 79.4251L221.994 77.6332L221.098 75.3933L220.65 71.8095L220.202 69.1216L217.962 69.5696L215.274 69.5696L213.482 69.1216L211.69 68.2257L210.571 67.3297L209.003 65.9858L208.107 64.6418L206.763 65.5378ZM267.688 106.304L270.824 103.616L267.688 102.272L265.896 100.928L263.656 99.1361L261.864 96.0003L260.52 91.9685L257.385 94.2084L255.145 94.6564L252.905 94.2084L250.665 93.3124L248.425 91.9685L246.185 90.1765L245.289 92.4164L243.497 94.6564L242.153 96.4484L239.913 98.2403H237.226H232.746L230.506 98.2401L230.058 104.512H231.85L233.642 104.96L235.434 105.856L237.673 106.752L239.017 108.096L240.361 109.44L241.705 111.232L242.153 112.576L243.049 114.815L243.497 116.607L243.945 118.847L245.737 119.295L247.529 119.743L248.873 120.639L250.217 121.535L252.009 119.295L254.249 117.503L256.041 117.055L258.281 116.607H260.52L262.312 117.055L264.104 117.503V112.576L265 109.888L265.896 108.096L267.688 106.304Z" fill="#89A976"/>
<path d="M205.419 65.9858L205.419 68.9858L205.905 68.9858L206.367 68.8318L205.419 65.9858ZM206.763 65.5378L207.711 68.3838L208.092 68.2568L208.427 68.0339L206.763 65.5378ZM203.627 65.9858L201.827 68.3858L202.627 68.9858L203.627 68.9858L203.627 65.9858ZM201.835 64.6418L203.635 62.2418L200.02 59.5308L198.924 63.9142L201.835 64.6418ZM201.387 66.4337L204.07 67.7753L204.217 67.4808L204.297 67.1613L201.387 66.4337ZM200.491 68.2257L202.612 70.347L202.956 70.0027L203.174 69.5673L200.491 68.2257ZM199.147 69.5696L197.026 67.4482L196.875 67.599L196.747 67.7696L199.147 69.5696ZM197.803 71.3615L195.403 69.5615L195.353 69.6281L195.307 69.6974L197.803 71.3615ZM196.907 72.7054L198.571 75.2016L199.07 74.8688L199.403 74.3695L196.907 72.7054ZM195.563 73.6014L193.899 71.1052L193.899 71.1052L195.563 73.6014ZM194.219 74.4973L194.947 77.4078L195.451 77.2817L195.883 76.9935L194.219 74.4973ZM192.427 74.9454L191.7 72.0349L185.121 73.6798L190.763 77.4415L192.427 74.9454ZM193.771 75.8413L195.893 73.72L195.682 73.5099L195.435 73.3452L193.771 75.8413ZM194.667 76.7373L192.546 78.8586L192.546 78.8586L194.667 76.7373ZM195.563 77.6332L198.474 76.9056L198.272 76.0995L197.684 75.5119L195.563 77.6332ZM196.011 79.4251L198.922 78.6976L198.922 78.6975L196.011 79.4251ZM196.459 81.2171L199.389 80.5747L199.38 80.5319L199.369 80.4895L196.459 81.2171ZM196.754 82.561L199.754 82.561L199.754 82.236L199.684 81.9186L196.754 82.561ZM196.754 83.9049L199.754 83.9049L199.754 83.9049L196.754 83.9049ZM196.754 86.1448L199.754 86.1448L199.754 86.1448L196.754 86.1448ZM196.754 89.2911L199.645 90.0928L199.754 89.6994L199.754 89.2911L196.754 89.2911ZM196.011 91.9686L198.272 93.9403L198.72 93.4268L198.902 92.7703L196.011 91.9686ZM194.667 93.5098L192.406 91.5381L188.765 95.7132L194.251 96.4808L194.667 93.5098ZM196.459 93.7605L197.801 91.0772L197.361 90.8575L196.875 90.7894L196.459 93.7605ZM198.251 94.6564L200.218 92.3915L199.932 92.1427L199.593 91.9731L198.251 94.6564ZM200.043 96.2128L202.328 94.2687L202.181 94.0963L202.01 93.9479L200.043 96.2128ZM201.387 97.7922L203.729 95.9182L203.701 95.8827L203.672 95.8481L201.387 97.7922ZM203.179 100.032L200.836 101.906L202.351 103.8L204.52 102.715L203.179 100.032ZM205.867 98.6882L205.042 95.8037L204.774 95.8802L204.525 96.0049L205.867 98.6882ZM209.002 97.7923V94.7923H208.582L208.178 94.9077L209.002 97.7923ZM210.794 97.7923L211.219 94.8224L211.008 94.7923H210.794V97.7923ZM213.93 98.2402L214.879 95.3942L214.622 95.3086L214.355 95.2704L213.93 98.2402ZM216.618 99.1362L218.282 96.6401L217.948 96.4172L217.567 96.2902L216.618 99.1362ZM219.306 100.928L221.106 98.5281L221.039 98.4782L220.97 98.432L219.306 100.928ZM221.098 102.272L223.219 100.151L223.068 100L222.898 99.8721L221.098 102.272ZM222.442 103.616L225.125 102.274L224.907 101.839L224.563 101.495L222.442 103.616ZM223.338 105.408L220.655 106.75L221.996 109.433L224.68 108.091L223.338 105.408ZM225.13 104.512L225.13 101.512L224.422 101.512L223.788 101.829L225.13 104.512ZM227.818 104.512L227.817 107.512L227.818 107.512L227.818 104.512ZM230.058 104.512L230.058 107.512L232.851 107.512L233.05 104.726L230.058 104.512ZM230.506 98.2401L233.498 98.4539L233.629 96.6158L232.049 95.6677L230.506 98.2401ZM228.266 96.8962L226.144 99.0175L226.405 99.2787L226.722 99.4687L228.266 96.8962ZM226.922 95.5522L224.238 96.8939L224.456 97.3293L224.8 97.6736L226.922 95.5522ZM226.474 94.6563L229.157 93.3147L229.077 93.1541L228.978 93.0043L226.474 94.6563ZM225.717 93.5098L222.914 94.5786L223.032 94.8865L223.213 95.1617L225.717 93.5098ZM225.13 91.9686L222.13 91.9686L222.13 92.5211L222.327 93.0374L225.13 91.9686ZM225.13 90.1766L222.13 90.1766L222.13 90.1766L225.13 90.1766ZM225.13 87.9367L222.279 87.0019L222.13 87.4573L222.13 87.9367L225.13 87.9367ZM225.717 86.1448L223.152 84.5888L222.974 84.883L222.867 85.21L225.717 86.1448ZM227.076 83.9049L225.201 81.5632L224.787 81.895L224.511 82.3489L227.076 83.9049ZM228.195 83.0089L230.07 85.3506L233.664 82.4731L229.58 80.3478L228.195 83.0089ZM226.474 82.113L224.81 84.6091L224.945 84.6992L225.089 84.7741L226.474 82.113ZM225.13 81.217L223.008 83.3384L223.219 83.5484L223.466 83.7132L225.13 81.217ZM224.234 80.3211L222.112 82.4424L222.112 82.4424L224.234 80.3211ZM223.338 79.4251L220.938 81.2251L221.066 81.3956L221.216 81.5464L223.338 79.4251ZM221.994 77.6332L219.208 78.7473L219.356 79.1157L219.594 79.4331L221.994 77.6332ZM221.098 75.3933L218.121 75.7654L218.169 76.1488L218.313 76.5075L221.098 75.3933ZM220.65 71.8095L223.627 71.4373L223.619 71.3766L223.609 71.3162L220.65 71.8095ZM220.202 69.1216L223.161 68.6283L222.652 65.5722L219.614 66.1798L220.202 69.1216ZM217.962 69.5696L217.962 72.5696L218.259 72.5696L218.55 72.5113L217.962 69.5696ZM215.274 69.5696L214.547 72.48L214.905 72.5696L215.274 72.5696L215.274 69.5696ZM213.482 69.1216L212.141 71.8049L212.435 71.9521L212.755 72.032L213.482 69.1216ZM211.69 68.2257L209.816 70.5679L210.064 70.7667L210.349 70.909L211.69 68.2257ZM210.571 67.3297L208.619 69.6077L208.657 69.6405L208.696 69.6719L210.571 67.3297ZM209.003 65.9858L206.506 67.6499L206.736 67.9944L207.05 68.2638L209.003 65.9858ZM208.107 64.6418L210.603 62.9777L208.939 60.4816L206.442 62.1457L208.107 64.6418ZM270.824 103.616L272.776 105.894L276.436 102.757L272.006 100.858L270.824 103.616ZM267.688 106.304L265.736 104.026L265.648 104.101L265.567 104.182L267.688 106.304ZM267.688 102.272L265.888 104.672L266.176 104.888L266.506 105.029L267.688 102.272ZM265.896 100.928L264.022 103.271L264.059 103.3L264.096 103.328L265.896 100.928ZM263.656 99.1361L261.052 100.625L261.335 101.121L261.782 101.479L263.656 99.1361ZM261.864 96.0003L259.018 96.9489L259.112 97.2308L259.26 97.4887L261.864 96.0003ZM260.52 91.9685L263.367 91.0198L262.082 87.1663L258.777 89.5272L260.52 91.9685ZM257.385 94.2084L257.973 97.1501L258.604 97.0238L259.128 96.6496L257.385 94.2084ZM255.145 94.6564L254.556 97.5981L255.145 97.7158L255.733 97.5981L255.145 94.6564ZM252.905 94.2084L251.791 96.9938L252.046 97.0961L252.316 97.1501L252.905 94.2084ZM250.665 93.3124L249.121 95.8849L249.328 96.0086L249.551 96.0978L250.665 93.3124ZM248.425 91.9685L246.551 94.3111L246.709 94.4371L246.882 94.5409L248.425 91.9685ZM246.185 90.1765L248.059 87.8339L244.902 85.3078L243.4 89.0624L246.185 90.1765ZM245.289 92.4164L247.632 94.2905L247.909 93.9434L248.075 93.5306L245.289 92.4164ZM243.497 94.6564L241.155 92.7823L241.125 92.8189L241.097 92.8564L243.497 94.6564ZM242.153 96.4484L244.027 98.791L244.325 98.553L244.553 98.2483L242.153 96.4484ZM239.913 98.2403V101.24H240.966L241.788 100.583L239.913 98.2403ZM232.746 98.2403L232.746 101.24H232.746V98.2403ZM230.506 98.2401L230.506 95.2401L227.713 95.2399L227.513 98.0263L230.506 98.2401ZM230.058 104.512L227.065 104.298L226.836 107.512H230.058V104.512ZM231.85 104.512L232.577 101.601L232.219 101.512H231.85V104.512ZM233.642 104.96L234.983 102.277L234.689 102.129L234.369 102.049L233.642 104.96ZM235.434 105.856L234.092 108.539L234.204 108.595L234.319 108.641L235.434 105.856ZM237.673 106.752L239.795 104.63L239.359 104.195L238.788 103.966L237.673 106.752ZM239.017 108.096L236.896 110.217L236.896 110.217L239.017 108.096ZM240.361 109.44L242.761 107.64L242.633 107.469L242.483 107.318L240.361 109.44ZM241.705 111.232L244.551 110.283L244.397 109.821L244.105 109.432L241.705 111.232ZM242.153 112.576L239.307 113.524L239.335 113.608L239.368 113.69L242.153 112.576ZM243.049 114.815L245.96 114.088L245.91 113.89L245.835 113.701L243.049 114.815ZM243.497 116.607L246.439 116.019L246.425 115.949L246.408 115.88L243.497 116.607ZM243.945 118.847L241.003 119.436L241.376 121.297L243.218 121.758L243.945 118.847ZM245.737 119.295L246.465 116.385L246.465 116.385L245.737 119.295ZM247.529 119.743L249.193 117.247L248.761 116.959L248.257 116.833L247.529 119.743ZM248.873 120.639L247.209 123.135L247.209 123.135L248.873 120.639ZM250.217 121.535L248.553 124.031L250.841 125.557L252.56 123.409L250.217 121.535ZM252.009 119.295L250.135 116.953L249.874 117.161L249.666 117.421L252.009 119.295ZM254.249 117.503L253.521 114.593L252.886 114.752L252.375 115.161L254.249 117.503ZM256.041 117.055L255.452 114.114L255.382 114.128L255.313 114.145L256.041 117.055ZM258.281 116.607V113.607H257.984L257.692 113.666L258.281 116.607ZM260.52 116.607L261.248 113.697L260.89 113.607H260.52V116.607ZM262.312 117.055L263.04 114.145L263.04 114.145L262.312 117.055ZM264.104 117.503L263.377 120.414L267.104 121.346V117.503H264.104ZM264.104 112.576L261.258 111.627L261.104 112.089V112.576H264.104ZM265 109.888L262.317 108.546L262.222 108.737L262.154 108.939L265 109.888ZM265.896 108.096L263.775 105.974L263.431 106.319L263.213 106.754L265.896 108.096ZM206.367 68.8318L207.711 68.3838L205.814 62.6917L204.47 63.1397L206.367 68.8318ZM203.627 68.9858L205.419 68.9858L205.419 62.9858L203.627 62.9858L203.627 68.9858ZM200.035 67.0418L201.827 68.3858L205.427 63.5858L203.635 62.2418L200.035 67.0418ZM204.297 67.1613L204.745 65.3694L198.924 63.9142L198.476 65.7061L204.297 67.1613ZM203.174 69.5673L204.07 67.7753L198.704 65.0921L197.808 66.8841L203.174 69.5673ZM201.268 71.6909L202.612 70.347L198.37 66.1043L197.026 67.4482L201.268 71.6909ZM200.203 73.1615L201.547 71.3696L196.747 67.7696L195.403 69.5615L200.203 73.1615ZM199.403 74.3695L200.299 73.0256L195.307 69.6974L194.411 71.0413L199.403 74.3695ZM197.227 76.0975L198.571 75.2016L195.243 70.2093L193.899 71.1052L197.227 76.0975ZM195.883 76.9935L197.227 76.0975L193.899 71.1052L192.555 72.0012L195.883 76.9935ZM193.155 77.8558L194.947 77.4078L193.492 71.5869L191.7 72.0349L193.155 77.8558ZM195.435 73.3452L194.091 72.4492L190.763 77.4415L192.107 78.3375L195.435 73.3452ZM196.788 74.6159L195.893 73.72L191.65 77.9626L192.546 78.8586L196.788 74.6159ZM197.684 75.5119L196.788 74.6159L192.546 78.8586L193.442 79.7545L197.684 75.5119ZM198.922 78.6975L198.474 76.9056L192.653 78.3609L193.101 80.1528L198.922 78.6975ZM199.369 80.4895L198.922 78.6976L193.101 80.1527L193.549 81.9446L199.369 80.4895ZM199.684 81.9186L199.389 80.5747L193.529 81.8594L193.823 83.2034L199.684 81.9186ZM199.754 83.9049L199.754 82.561L193.754 82.561L193.754 83.9049L199.754 83.9049ZM199.754 86.1448L199.754 83.9049L193.754 83.9049L193.754 86.1448L199.754 86.1448ZM199.754 89.2911L199.754 86.1448L193.754 86.1448L193.754 89.2911L199.754 89.2911ZM198.902 92.7703L199.645 90.0928L193.863 88.4893L193.12 91.1668L198.902 92.7703ZM196.928 95.4814L198.272 93.9403L193.75 89.9969L192.406 91.5381L196.928 95.4814ZM196.875 90.7894L195.083 90.5387L194.251 96.4808L196.043 96.7315L196.875 90.7894ZM199.593 91.9731L197.801 91.0772L195.117 96.4438L196.909 97.3397L199.593 91.9731ZM202.01 93.9479L200.218 92.3915L196.284 96.9213L198.076 98.4777L202.01 93.9479ZM203.672 95.8481L202.328 94.2687L197.758 98.1569L199.102 99.7364L203.672 95.8481ZM205.521 98.1581L203.729 95.9182L199.044 99.6663L200.836 101.906L205.521 98.1581ZM204.525 96.0049L201.837 97.3489L204.52 102.715L207.208 101.372L204.525 96.0049ZM208.178 94.9077L205.042 95.8037L206.691 101.573L209.827 100.677L208.178 94.9077ZM210.794 94.7923H209.002V100.792H210.794V94.7923ZM214.355 95.2704L211.219 94.8224L210.37 100.762L213.506 101.21L214.355 95.2704ZM217.567 96.2902L214.879 95.3942L212.982 101.086L215.669 101.982L217.567 96.2902ZM220.97 98.432L218.282 96.6401L214.954 101.632L217.642 103.424L220.97 98.432ZM222.898 99.8721L221.106 98.5281L217.506 103.328L219.298 104.672L222.898 99.8721ZM224.563 101.495L223.219 100.151L218.977 104.393L220.321 105.737L224.563 101.495ZM226.021 104.066L225.125 102.274L219.759 104.958L220.655 106.75L226.021 104.066ZM223.788 101.829L221.996 102.725L224.68 108.091L226.472 107.195L223.788 101.829ZM227.818 101.512L225.13 101.512L225.13 107.512L227.817 107.512L227.818 101.512ZM230.057 101.512L227.817 101.512L227.818 107.512L230.058 107.512L230.057 101.512ZM227.513 98.0264L227.065 104.298L233.05 104.726L233.498 98.4539L227.513 98.0264ZM226.722 99.4687L228.962 100.813L232.049 95.6677L229.809 94.3237L226.722 99.4687ZM224.8 97.6736L226.144 99.0175L230.387 94.7749L229.043 93.4309L224.8 97.6736ZM223.79 95.9979L224.238 96.8939L229.605 94.2106L229.157 93.3147L223.79 95.9979ZM223.213 95.1617L223.97 96.3082L228.978 93.0043L228.222 91.8578L223.213 95.1617ZM222.327 93.0374L222.914 94.5786L228.521 92.4409L227.933 90.8998L222.327 93.0374ZM222.13 90.1766L222.13 91.9686L228.13 91.9685L228.13 90.1766L222.13 90.1766ZM222.13 87.9367L222.13 90.1766L228.13 90.1766L228.13 87.9367L222.13 87.9367ZM222.867 85.21L222.279 87.0019L227.98 88.8715L228.568 87.0797L222.867 85.21ZM224.511 82.3489L223.152 84.5888L228.282 87.7008L229.641 85.4609L224.511 82.3489ZM226.32 80.6672L225.201 81.5632L228.951 86.2466L230.07 85.3506L226.32 80.6672ZM225.089 84.7741L226.81 85.6701L229.58 80.3478L227.859 79.4518L225.089 84.7741ZM223.466 83.7132L224.81 84.6091L228.138 79.6168L226.794 78.7209L223.466 83.7132ZM222.112 82.4424L223.008 83.3384L227.251 79.0957L226.355 78.1997L222.112 82.4424ZM221.216 81.5464L222.112 82.4424L226.355 78.1997L225.459 77.3038L221.216 81.5464ZM219.594 79.4331L220.938 81.2251L225.738 77.6251L224.394 75.8332L219.594 79.4331ZM218.313 76.5075L219.208 78.7473L224.779 76.519L223.883 74.2791L218.313 76.5075ZM217.673 72.1816L218.121 75.7654L224.075 75.0212L223.627 71.4373L217.673 72.1816ZM217.243 69.6148L217.691 72.3027L223.609 71.3162L223.161 68.6283L217.243 69.6148ZM218.55 72.5113L220.79 72.0633L219.614 66.1798L217.374 66.6278L218.55 72.5113ZM215.274 72.5696L217.962 72.5696L217.962 66.5696L215.274 66.5696L215.274 72.5696ZM212.755 72.032L214.547 72.48L216.002 66.6591L214.21 66.2112L212.755 72.032ZM210.349 70.909L212.141 71.8049L214.824 66.4383L213.032 65.5424L210.349 70.909ZM208.696 69.6719L209.816 70.5679L213.565 65.8834L212.445 64.9874L208.696 69.6719ZM207.05 68.2638L208.619 69.6077L212.523 65.0516L210.955 63.7077L207.05 68.2638ZM205.61 66.306L206.506 67.6499L211.499 64.3216L210.603 62.9777L205.61 66.306ZM208.427 68.0339L209.771 67.138L206.442 62.1457L205.098 63.0416L208.427 68.0339ZM268.872 101.338L265.736 104.026L269.641 108.582L272.776 105.894L268.872 101.338ZM266.506 105.029L269.642 106.373L272.006 100.858L268.87 99.5145L266.506 105.029ZM264.096 103.328L265.888 104.672L269.488 99.872L267.696 98.528L264.096 103.328ZM261.782 101.479L264.022 103.271L267.77 98.5854L265.53 96.7935L261.782 101.479ZM259.26 97.4887L261.052 100.625L266.261 97.6477L264.469 94.5119L259.26 97.4887ZM257.674 92.9171L259.018 96.9489L264.71 95.0516L263.367 91.0198L257.674 92.9171ZM259.128 96.6496L262.264 94.4097L258.777 89.5272L255.641 91.7671L259.128 96.6496ZM255.733 97.5981L257.973 97.1501L256.796 91.2666L254.556 91.7146L255.733 97.5981ZM252.316 97.1501L254.556 97.5981L255.733 91.7146L253.493 91.2666L252.316 97.1501ZM249.551 96.0978L251.791 96.9938L254.019 91.4229L251.779 90.527L249.551 96.0978ZM246.882 94.5409L249.121 95.8849L252.208 90.7399L249.969 89.396L246.882 94.5409ZM244.311 92.5191L246.551 94.3111L250.299 89.6259L248.059 87.8339L244.311 92.5191ZM248.075 93.5306L248.971 91.2907L243.4 89.0624L242.504 91.3022L248.075 93.5306ZM245.84 96.5304L247.632 94.2905L242.947 90.5424L241.155 92.7823L245.84 96.5304ZM244.553 98.2483L245.897 96.4563L241.097 92.8564L239.753 94.6484L244.553 98.2483ZM241.788 100.583L244.027 98.791L240.279 94.1057L238.039 95.8977L241.788 100.583ZM237.226 101.24H239.913V95.2403H237.226V101.24ZM232.746 101.24H237.226V95.2403H232.746V101.24ZM230.506 101.24L232.746 101.24L232.746 95.2403L230.506 95.2401L230.506 101.24ZM233.05 104.726L233.498 98.4539L227.513 98.0263L227.065 104.298L233.05 104.726ZM231.85 101.512H230.058V107.512H231.85V101.512ZM234.369 102.049L232.577 101.601L231.122 107.422L232.914 107.87L234.369 102.049ZM236.775 103.172L234.983 102.277L232.3 107.643L234.092 108.539L236.775 103.172ZM238.788 103.966L236.548 103.07L234.319 108.641L236.559 109.537L238.788 103.966ZM241.139 105.974L239.795 104.63L235.552 108.873L236.896 110.217L241.139 105.974ZM242.483 107.318L241.139 105.974L236.896 110.217L238.24 111.561L242.483 107.318ZM244.105 109.432L242.761 107.64L237.961 111.24L239.305 113.032L244.105 109.432ZM244.999 111.627L244.551 110.283L238.859 112.181L239.307 113.524L244.999 111.627ZM245.835 113.701L244.939 111.461L239.368 113.69L240.264 115.93L245.835 113.701ZM246.408 115.88L245.96 114.088L240.139 115.543L240.587 117.335L246.408 115.88ZM246.887 118.259L246.439 116.019L240.556 117.196L241.003 119.436L246.887 118.259ZM246.465 116.385L244.673 115.937L243.218 121.758L245.01 122.206L246.465 116.385ZM248.257 116.833L246.465 116.385L245.01 122.206L246.801 122.654L248.257 116.833ZM250.537 118.143L249.193 117.247L245.865 122.239L247.209 123.135L250.537 118.143ZM251.881 119.039L250.537 118.143L247.209 123.135L248.553 124.031L251.881 119.039ZM249.666 117.421L247.874 119.661L252.56 123.409L254.351 121.169L249.666 117.421ZM252.375 115.161L250.135 116.953L253.883 121.638L256.123 119.846L252.375 115.161ZM255.313 114.145L253.521 114.593L254.976 120.414L256.768 119.966L255.313 114.145ZM257.692 113.666L255.452 114.114L256.629 119.997L258.869 119.549L257.692 113.666ZM260.52 113.607H258.281V119.607H260.52V113.607ZM263.04 114.145L261.248 113.697L259.793 119.518L261.585 119.966L263.04 114.145ZM264.832 114.593L263.04 114.145L261.585 119.966L263.377 120.414L264.832 114.593ZM261.104 112.576V117.503H267.104V112.576H261.104ZM262.154 108.939L261.258 111.627L266.95 113.524L267.846 110.836L262.154 108.939ZM263.213 106.754L262.317 108.546L267.684 111.229L268.58 109.437L263.213 106.754ZM265.567 104.182L263.775 105.974L268.018 110.217L269.809 108.425L265.567 104.182Z" fill="#567C4A" mask="url(#path-40-outside-1_119_217)"/>
<path d="M263.404 107.469L261.101 107.041L258.318 106.923L255.535 106.805L252.752 106.688L249.489 106.879L246.226 107.07L242.848 107.719L238.145 108.838" stroke="#A6ECB5" stroke-width="2" stroke-linecap="round"/>
<path d="M245.059 96.0003L244.36 99.8395L243.88 103.679L244.36 107.518L247.24 110.397L250.233 112.595L253.428 114.925" stroke="#A6ECB5" stroke-width="2" stroke-linecap="round"/>
<path d="M256.837 97.44L255.398 100.319L254.44 103.679L254.92 107.518L256.837 109.437L259.237 111.837L262.116 113.757" stroke="#A6ECB5" stroke-width="2" stroke-linecap="round"/>
<path d="M206.315 69.4351L206.763 72.123L207.659 75.2589L208.555 78.3947L209.45 81.5306L210.794 85.1144L212.138 88.6982L213.93 92.2821L216.618 97.2098" stroke="#A6ECB5" stroke-width="2" stroke-linecap="round"/>
<path d="M196.907 77.4988L200.939 77.9468L205.419 77.9468L208.554 77.9468L211.242 76.6028L214.826 73.9149L217.378 71.2482" stroke="#A6ECB5" stroke-width="2" stroke-linecap="round"/>
<path d="M197.803 89.5942L201.835 90.2599L204.523 90.2599L208.107 90.2599L211.243 90.0422L214.378 89.1462L216.17 88.2503L218.41 86.4584L220.202 84.6664L221.994 82.8745" stroke="#A6ECB5" stroke-width="2" stroke-linecap="round"/>
</svg>
