<svg width="271" height="385" viewBox="0 0 271 385" fill="none" xmlns="http://www.w3.org/2000/svg">
<rect x="43.5" y="185.5" width="179.239" height="33.0751" rx="4.5" fill="#873A30" stroke="#D5AD9B"/>
<rect x="97.3027" y="313.73" width="71.6338" height="30.385" rx="1.5" fill="#D9D9D9" stroke="#D9BA9F"/>
<rect x="59.6409" y="219.575" width="75.2207" height="30.385" rx="1.5" fill="url(#paint0_linear_140_502)" stroke="#CCA49A"/>
<rect x="60.5376" y="282.345" width="75.2207" height="30.385" rx="1.5" fill="url(#paint1_linear_140_502)" stroke="#CCA49A"/>
<rect x="60.5376" y="282.345" width="75.2207" height="30.385" rx="1.5" fill="url(#paint2_linear_140_502)" stroke="#CCA49A"/>
<rect x="59.6409" y="345.115" width="75.2207" height="30.385" rx="1.5" fill="url(#paint3_linear_140_502)" stroke="#CCA49A"/>
<rect x="135.862" y="219.575" width="70.7371" height="30.385" rx="1.5" fill="#B66541" stroke="#CCA49A"/>
<rect x="135.862" y="345.115" width="70.7371" height="30.385" rx="1.5" fill="#B66541" stroke="#CCA49A"/>
<rect x="136.758" y="282.345" width="69.8404" height="30.385" rx="1.5" fill="#B66541" stroke="#CCA49A"/>
<rect x="97.3027" y="250.96" width="71.6338" height="30.385" rx="1.5" fill="url(#paint4_linear_140_502)" stroke="#CCA49A"/>
<rect x="97.3027" y="313.73" width="71.6338" height="30.385" rx="1.5" fill="url(#paint5_linear_140_502)" stroke="#CCA49A"/>
<rect x="60.5376" y="250.96" width="35.7653" height="30.385" rx="1.5" fill="url(#paint6_linear_140_502)" stroke="#CCA49A"/>
<rect x="59.6409" y="313.73" width="36.662" height="30.385" rx="1.5" fill="url(#paint7_linear_140_502)" stroke="#CCA49A"/>
<rect x="169.937" y="250.96" width="36.662" height="30.385" rx="1.5" fill="#873A30" stroke="#CCA49A"/>
<rect x="169.937" y="313.73" width="36.662" height="30.385" rx="1.5" fill="#873A30" stroke="#CCA49A"/>
<rect x="59.6409" y="219.575" width="146.958" height="155.925" rx="2.5" stroke="#B7756C"/>
<path d="M196.859 191.43C198.17 200.938 185.936 212.175 174.139 202.234C160.594 204.395 154.914 200.739 154.914 191.43C154.914 182.121 164.304 174.575 175.887 174.575C187.469 174.575 196.859 182.121 196.859 191.43Z" fill="white"/>
<path d="M196.859 191.43C198.17 200.938 185.936 212.175 174.139 202.234C160.594 204.395 154.914 200.739 154.914 191.43C154.914 182.121 164.304 174.575 175.887 174.575C187.469 174.575 196.859 182.121 196.859 191.43Z" fill="white"/>
<path d="M196.859 191.43C198.17 200.938 185.936 212.175 174.139 202.234C160.594 204.395 154.914 200.739 154.914 191.43C154.914 182.121 164.304 174.575 175.887 174.575C187.469 174.575 196.859 182.121 196.859 191.43Z" stroke="black" stroke-width="3"/>
<path d="M114.302 181.942C121.28 195.396 112.987 203.538 99.5794 200.525C89.3211 206.444 84.2002 206.453 80.4071 198.848C76.6139 191.243 79.4573 180.403 90.4863 176.625C99.8461 171.957 110.509 174.337 114.302 181.942Z" fill="white"/>
<path d="M114.302 181.942C121.28 195.396 112.987 203.538 99.5794 200.525C89.3211 206.444 84.2002 206.453 80.4071 198.848C76.6139 191.243 79.4573 180.403 90.4863 176.625C99.8461 171.957 110.509 174.337 114.302 181.942Z" fill="white"/>
<path d="M114.302 181.942C121.28 195.396 112.987 203.538 99.5794 200.525C89.3211 206.444 84.2002 206.453 80.4071 198.848C76.6139 191.243 79.4573 180.403 90.4863 176.625C99.8461 171.957 110.509 174.337 114.302 181.942Z" stroke="black" stroke-width="3"/>
<path d="M81.1568 82.8002L81.1284 82.8216L81.1033 82.8467L77.1618 86.7882L73.2204 90.7296L73.2043 90.7456L73.1898 90.7631L69.9053 94.7045L69.9052 94.7045L69.8989 94.7123L67.2713 97.9968L67.2577 98.0138L67.2457 98.0318L63.4691 103.697L43.0365 101.854L34.6334 21.7013L102.534 54.6813L103.276 69.1042L98.3129 71.5856L98.3032 71.5904L98.2937 71.5957L92.3815 74.8802L92.3638 74.8901L92.347 74.9013L86.4348 78.8428L86.4232 78.8505L86.4121 78.8588L81.1568 82.8002Z" fill="#373C36" stroke="black"/>
<circle cx="33.3854" cy="21.5153" r="9.35365" fill="#373C36" stroke="black"/>
<path d="M188.971 85.8575L188.999 85.8788L189.024 85.9039L192.966 89.8454L196.907 93.7868L196.923 93.8029L196.938 93.8203L200.222 97.7617L200.222 97.7617L200.229 97.7695L202.856 101.054L202.87 101.071L202.882 101.089L206.658 106.754L227.091 104.911L235.494 24.7585L167.594 57.7386L166.852 72.1614L171.815 74.6428L171.824 74.6476L171.834 74.6529L177.746 77.9375L177.764 77.9473L177.78 77.9585L183.693 81.9L183.704 81.9077L183.715 81.916L188.971 85.8575Z" fill="#373C36" stroke="black"/>
<circle cx="9.85365" cy="9.85365" r="9.35365" transform="matrix(-1 0 0 1 246.596 14.7188)" fill="#373C36" stroke="black"/>
<path d="M133.941 187.216L133.917 187.213H133.893C113.983 187.213 94.0437 183.77 79.1005 175.371C64.1857 166.988 54.2495 153.675 54.2495 133.847C54.2495 115.635 64.2147 97.6956 79.1889 84.2943C94.1605 70.8954 114.081 62.0868 133.893 62.0868C153.702 62.0868 173.623 71.0205 188.595 84.4836C203.571 97.9496 213.536 115.889 213.536 133.847C213.536 151.781 203.801 166.088 188.971 175.44C174.132 184.798 154.21 189.177 133.941 187.216Z" fill="#373C36" stroke="black"/>
<path d="M154.414 108.884C154.414 114.377 152.961 117.624 150.027 119.626C147.032 121.67 142.401 122.492 135.837 122.837C129.615 123.164 124.312 122.664 120.579 120.678C118.724 119.691 117.259 118.339 116.254 116.534C115.247 114.726 114.685 112.433 114.685 109.541C114.685 105.155 116.827 100.179 120.329 96.2926C123.827 92.4104 128.628 89.677 133.893 89.677C139.174 89.677 144.31 92.262 148.136 95.9876C151.966 99.7182 154.414 104.524 154.414 108.884Z" fill="#FF759E" stroke="#FF759E"/>
<rect x="127.323" y="119.395" width="5.25528" height="7.88292" fill="#FF759E"/>
<rect x="137.834" y="119.395" width="5.25528" height="7.88292" fill="#FF759E"/>
<rect x="133.893" y="118.081" width="2.62764" height="9.19674" fill="#FF759E"/>
<ellipse cx="122.596" cy="110.657" rx="3.43363" ry="5.08288" transform="rotate(12.732 122.596 110.657)" fill="#2F4135"/>
<ellipse cx="146.303" cy="110.688" rx="3.43363" ry="5.08288" transform="rotate(-13.5262 146.303 110.688)" fill="#2F4135"/>
<path d="M133.923 137.911L134.584 138.442L135.216 137.877C150.434 124.278 164.313 123.069 174.302 127.445C184.376 131.857 190.701 142.014 190.701 151.584C190.701 158.995 189.133 164.844 186.353 169.462C183.574 174.077 179.543 177.531 174.509 180.089C164.393 185.229 150.313 186.714 134.55 186.714C118.766 186.714 104.692 185.554 94.5793 180.576C89.5509 178.101 85.526 174.692 82.7493 170.021C79.9695 165.344 78.3984 159.332 78.3984 151.584C78.3984 142.055 84.8446 132.711 95.0101 128.69C105.124 124.69 119.038 125.938 133.923 137.911Z" fill="white" stroke="black" stroke-width="2"/>
<path d="M139.962 164.722C139.962 165.784 139.347 166.796 138.251 167.564C137.156 168.33 135.617 168.82 133.893 168.82C132.169 168.82 130.629 168.33 129.534 167.564C128.438 166.796 127.823 165.784 127.823 164.722C127.823 163.66 128.438 162.647 129.534 161.88C130.629 161.113 132.169 160.623 133.893 160.623C135.617 160.623 137.156 161.113 138.251 161.88C139.347 162.647 139.962 163.66 139.962 164.722Z" fill="#FF759E" stroke="black"/>
<path d="M177.249 148.956C177.249 156.574 173.425 162.751 168.709 162.751C163.992 162.751 160.169 156.574 160.169 148.956C158.855 143.7 164.767 145.014 168.052 142.387C174.621 137.788 177.249 141.337 177.249 148.956Z" fill="black"/>
<path d="M177.249 148.956C177.249 156.574 173.425 162.751 168.709 162.751C163.992 162.751 160.169 156.574 160.169 148.956C158.855 143.7 164.767 145.014 168.052 142.387C174.621 137.788 177.249 141.337 177.249 148.956Z" fill="black"/>
<path d="M176.833 136.197C176.986 135.967 177.296 135.905 177.526 136.059C177.756 136.212 177.818 136.522 177.665 136.752L176.833 136.197ZM175.935 138.445L176.351 138.723L176.295 138.806L176.212 138.861L175.935 138.445ZM173.964 139.759L173.662 139.36L173.674 139.351L173.687 139.343L173.964 139.759ZM172.886 140.576L172.568 140.189L172.576 140.183L172.584 140.177L172.886 140.576ZM170.68 142.387L170.484 142.847L169.724 142.524L170.362 142L170.68 142.387ZM172.229 143.044L172.424 142.583L173.171 142.9L172.552 143.425L172.229 143.044ZM177.665 136.752L176.351 138.723L175.519 138.168L176.833 136.197L177.665 136.752ZM176.212 138.861L174.241 140.175L173.687 139.343L175.657 138.029L176.212 138.861ZM174.266 140.158L173.187 140.974L172.584 140.177L173.662 139.36L174.266 140.158ZM173.203 140.962L170.997 142.773L170.362 142L172.568 140.189L173.203 140.962ZM170.875 141.926L172.424 142.583L172.034 143.504L170.484 142.847L170.875 141.926ZM172.552 143.425L171.003 144.739L170.356 143.976L171.905 142.662L172.552 143.425Z" fill="black"/>
<path d="M179.116 139.633C179.269 139.403 179.579 139.341 179.809 139.494C180.039 139.647 180.101 139.957 179.948 140.187L179.116 139.633ZM178.218 141.881L178.634 142.158L178.578 142.241L178.495 142.297L178.218 141.881ZM176.247 143.194L175.945 142.796L175.957 142.787L175.97 142.778L176.247 143.194ZM175.169 144.011L174.852 143.625L174.859 143.619L174.867 143.613L175.169 144.011ZM172.963 145.822L172.768 146.282L172.007 145.96L172.645 145.436L172.963 145.822ZM174.512 146.479L174.707 146.019L175.454 146.335L174.835 146.86L174.512 146.479ZM179.948 140.187L178.634 142.158L177.802 141.603L179.116 139.633L179.948 140.187ZM178.495 142.297L176.525 143.61L175.97 142.778L177.941 141.465L178.495 142.297ZM176.549 143.593L175.471 144.41L174.867 143.613L175.945 142.796L176.549 143.593ZM175.486 144.398L173.28 146.208L172.645 145.436L174.852 143.625L175.486 144.398ZM173.158 145.362L174.707 146.019L174.317 146.939L172.768 146.282L173.158 145.362ZM174.835 146.86L173.286 148.174L172.639 147.411L174.189 146.098L174.835 146.86Z" fill="black"/>
<path d="M91.8505 147.721C91.8505 155.339 95.6739 161.516 100.39 161.516C105.107 161.516 108.93 155.339 108.93 147.721C110.244 142.465 104.332 143.779 101.047 141.152C94.4781 136.553 91.8505 140.102 91.8505 147.721Z" fill="black"/>
<path d="M91.8505 147.721C91.8505 155.339 95.6739 161.516 100.39 161.516C105.107 161.516 108.93 155.339 108.93 147.721C110.244 142.465 104.332 143.779 101.047 141.152C94.4781 136.553 91.8505 140.102 91.8505 147.721Z" fill="black"/>
<path d="M91.5808 134.949C91.4641 134.699 91.1665 134.591 90.9163 134.708C90.666 134.824 90.5578 135.122 90.6746 135.372L91.5808 134.949ZM91.9368 136.895L91.4837 137.106L91.4945 137.13L91.5076 137.151L91.9368 136.895ZM92.863 138.445L92.4338 138.702L92.4656 138.755L92.5094 138.799L92.863 138.445ZM94.8337 140.416L94.4802 140.77L94.8337 140.416ZM95.4906 141.073L95.8442 140.719L95.8442 140.719L95.4906 141.073ZM96.1475 141.73L95.794 142.083L95.8085 142.098L95.8241 142.111L96.1475 141.73ZM90.6746 135.372L91.4837 137.106L92.3899 136.684L91.5808 134.949L90.6746 135.372ZM91.5076 137.151L92.4338 138.702L93.2922 138.189L92.366 136.639L91.5076 137.151ZM92.5094 138.799L94.4802 140.77L95.1873 140.062L93.2165 138.092L92.5094 138.799ZM94.4802 140.77L95.1371 141.426L95.8442 140.719L95.1873 140.062L94.4802 140.77ZM95.1371 141.426L95.794 142.083L96.5011 141.376L95.8442 140.719L95.1371 141.426ZM95.8241 142.111L97.3734 143.425L98.0202 142.662L96.4709 141.348L95.8241 142.111Z" fill="black"/>
<path d="M90.2673 140.205C90.1506 139.954 89.8531 139.846 89.6028 139.963C89.3526 140.08 89.2443 140.377 89.3611 140.627L90.2673 140.205ZM90.6233 142.15L90.1702 142.362L90.181 142.385L90.1941 142.407L90.6233 142.15ZM91.5495 143.701L91.1203 143.957L91.1521 144.01L91.1959 144.054L91.5495 143.701ZM93.5202 145.671L93.1667 146.025L93.5202 145.671ZM94.1771 146.328L94.5307 145.975L94.5307 145.975L94.1771 146.328ZM94.8341 146.985L94.4805 147.339L94.495 147.353L94.5107 147.366L94.8341 146.985ZM89.3611 140.627L90.1702 142.362L91.0764 141.939L90.2673 140.205L89.3611 140.627ZM90.1941 142.407L91.1203 143.957L91.9787 143.444L91.0525 141.894L90.1941 142.407ZM91.1959 144.054L93.1667 146.025L93.8738 145.318L91.9031 143.347L91.1959 144.054ZM93.1667 146.025L93.8236 146.682L94.5307 145.975L93.8738 145.318L93.1667 146.025ZM93.8236 146.682L94.4805 147.339L95.1876 146.632L94.5307 145.975L93.8236 146.682ZM94.5107 147.366L96.0599 148.68L96.7067 147.918L95.1574 146.604L94.5107 147.366Z" fill="black"/>
<path d="M142.781 172.588C142.964 172.449 143.117 172.335 143.246 172.247C143.242 173.863 143.178 175.888 142.239 177.622C141.269 179.412 139.307 180.984 135.168 181.303C135.07 181.31 134.828 181.258 134.414 181.049C134.024 180.853 133.553 180.554 133.025 180.175C131.971 179.417 130.736 178.366 129.556 177.249C128.376 176.131 127.263 174.958 126.449 173.958C126.041 173.457 125.716 173.01 125.496 172.642C125.386 172.457 125.307 172.302 125.257 172.175C125.247 172.149 125.238 172.125 125.231 172.103C125.277 172.118 125.329 172.137 125.388 172.16C125.779 172.316 126.299 172.6 126.955 172.959C127.178 173.081 127.418 173.212 127.673 173.35C129.62 174.398 132.347 175.732 135.206 175.732C138.087 175.732 140.328 174.382 141.809 173.315C142.111 173.098 142.385 172.889 142.624 172.707C142.679 172.666 142.731 172.626 142.781 172.588ZM143.575 172.054C143.578 172.053 143.579 172.053 143.579 172.053C143.579 172.053 143.578 172.053 143.575 172.054Z" stroke="black"/>
<line x1="134.393" y1="175.889" x2="134.393" y2="181.144" stroke="black"/>
<path d="M138.491 175.232V180.487" stroke="black"/>
<circle cx="180.957" cy="97.2318" r="10.7908" fill="#FB816A"/>
<path d="M177.111 105.71L177.951 106.139L178.656 106.454L179.86 106.636L180.722 106.643L182.102 106.483L183.139 106.147L184.004 105.769" stroke="#F39F8F" stroke-linecap="round"/>
<circle cx="197.143" cy="102.627" r="10.7908" fill="#FC3047"/>
<path d="M197.143 111.106L198.086 111.106L198.857 111.065L200.013 110.68L200.784 110.294L201.94 109.524L202.711 108.753L203.31 108.023" stroke="#FF7080" stroke-linecap="round"/>
<mask id="path-47-outside-1_140_502" maskUnits="userSpaceOnUse" x="157.541" y="49.61" width="82" height="59" fill="black">
<rect fill="white" x="157.541" y="49.61" width="82" height="59"/>
<path fill-rule="evenodd" clip-rule="evenodd" d="M177.874 56.3808L176.717 56.7662L175.176 56.7662L173.634 55.61L173.249 57.1516L172.478 58.6931L171.322 59.8493L170.166 61.3908L169.395 62.547L168.239 63.3177L167.083 64.0885L165.541 64.4739L166.697 65.2447L167.468 66.0155L168.239 66.7863L168.624 68.3278L169.01 69.8694L169.263 71.0255L169.263 72.1817L169.263 74.1086L169.263 76.8153L168.624 79.1186L167.468 80.4445L169.01 80.6602L170.551 81.4309L172.093 82.7699L173.249 84.1287L174.791 86.0556L177.103 84.8994L179.801 84.1287H181.342L184.04 84.514L186.352 85.2848L188.664 86.8264L190.206 87.9825L191.362 89.1387L192.133 90.6803L193.675 89.9094L195.987 89.9095L197.914 89.9094L198.299 84.514L196.372 83.3578L195.216 82.2016L194.831 81.4309L194.18 80.4445L193.675 79.1187V77.5771V75.6501L194.18 74.1086L195.349 72.1816L196.312 71.4109L194.831 70.6401L193.675 69.8693L192.904 69.0985L192.133 68.3278L190.977 66.7862L190.206 64.8593L189.821 61.7762L189.435 59.4639L187.508 59.8493L185.196 59.8493L183.654 59.4639L182.113 58.6931L181.15 57.9223L179.801 56.7662L179.03 55.61L177.874 56.3808ZM230.287 91.451L232.984 89.1387L230.287 87.9825L228.745 86.8263L226.818 85.2848L225.277 82.5871L224.12 79.1186L221.423 81.0455L219.496 81.4309L217.569 81.0455L215.642 80.2748L213.715 79.1186L211.788 77.577L211.017 79.504L209.476 81.4309L208.319 82.9726L206.393 84.5141L204.08 84.5141L200.226 84.5141L198.299 84.514L197.914 89.9094H199.455L200.997 90.2949L202.539 91.0656L204.466 91.8364L205.622 92.9926L206.778 94.1487L207.934 95.6903L208.319 96.8464L209.09 98.7733L209.476 100.315L209.861 102.242L211.403 102.627L212.944 103.013L214.1 103.783L215.256 104.554L216.798 102.627L218.725 101.086L220.266 100.7L222.193 100.315H224.12L225.662 100.7L227.203 101.086V96.8464L227.974 94.5341L228.745 92.9925L230.287 91.451Z"/>
</mask>
<path fill-rule="evenodd" clip-rule="evenodd" d="M177.874 56.3808L176.717 56.7662L175.176 56.7662L173.634 55.61L173.249 57.1516L172.478 58.6931L171.322 59.8493L170.166 61.3908L169.395 62.547L168.239 63.3177L167.083 64.0885L165.541 64.4739L166.697 65.2447L167.468 66.0155L168.239 66.7863L168.624 68.3278L169.01 69.8694L169.263 71.0255L169.263 72.1817L169.263 74.1086L169.263 76.8153L168.624 79.1186L167.468 80.4445L169.01 80.6602L170.551 81.4309L172.093 82.7699L173.249 84.1287L174.791 86.0556L177.103 84.8994L179.801 84.1287H181.342L184.04 84.514L186.352 85.2848L188.664 86.8264L190.206 87.9825L191.362 89.1387L192.133 90.6803L193.675 89.9094L195.987 89.9095L197.914 89.9094L198.299 84.514L196.372 83.3578L195.216 82.2016L194.831 81.4309L194.18 80.4445L193.675 79.1187V77.5771V75.6501L194.18 74.1086L195.349 72.1816L196.312 71.4109L194.831 70.6401L193.675 69.8693L192.904 69.0985L192.133 68.3278L190.977 66.7862L190.206 64.8593L189.821 61.7762L189.435 59.4639L187.508 59.8493L185.196 59.8493L183.654 59.4639L182.113 58.6931L181.15 57.9223L179.801 56.7662L179.03 55.61L177.874 56.3808ZM230.287 91.451L232.984 89.1387L230.287 87.9825L228.745 86.8263L226.818 85.2848L225.277 82.5871L224.12 79.1186L221.423 81.0455L219.496 81.4309L217.569 81.0455L215.642 80.2748L213.715 79.1186L211.788 77.577L211.017 79.504L209.476 81.4309L208.319 82.9726L206.393 84.5141L204.08 84.5141L200.226 84.5141L198.299 84.514L197.914 89.9094H199.455L200.997 90.2949L202.539 91.0656L204.466 91.8364L205.622 92.9926L206.778 94.1487L207.934 95.6903L208.319 96.8464L209.09 98.7733L209.476 100.315L209.861 102.242L211.403 102.627L212.944 103.013L214.1 103.783L215.256 104.554L216.798 102.627L218.725 101.086L220.266 100.7L222.193 100.315H224.12L225.662 100.7L227.203 101.086V96.8464L227.974 94.5341L228.745 92.9925L230.287 91.451Z" fill="#89A976"/>
<path d="M176.717 56.7662L176.717 59.7662L177.204 59.7662L177.666 59.6122L176.717 56.7662ZM177.874 56.3808L178.822 59.2269L179.203 59.0998L179.538 58.877L177.874 56.3808ZM175.176 56.7662L173.376 59.1662L174.176 59.7662L175.176 59.7662L175.176 56.7662ZM173.634 55.61L175.434 53.21L171.82 50.4991L170.724 54.8824L173.634 55.61ZM173.249 57.1516L175.932 58.4932L176.08 58.1986L176.159 57.8792L173.249 57.1516ZM172.478 58.6931L174.6 60.8145L174.944 60.4702L175.162 60.0347L172.478 58.6931ZM171.322 59.8493L169.201 57.7279L169.05 57.8787L168.922 58.0493L171.322 59.8493ZM170.166 61.3908L167.766 59.5908L167.716 59.6574L167.67 59.7267L170.166 61.3908ZM169.395 62.547L171.059 65.0431L171.558 64.7103L171.891 64.2111L169.395 62.547ZM168.239 63.3177L166.575 60.8216L166.575 60.8216L168.239 63.3177ZM167.083 64.0885L167.81 66.9989L168.315 66.8729L168.747 66.5847L167.083 64.0885ZM165.541 64.4739L164.814 61.5635L158.235 63.2084L163.877 66.9701L165.541 64.4739ZM166.697 65.2447L168.819 63.1234L168.609 62.9133L168.362 62.7486L166.697 65.2447ZM167.468 66.0155L165.347 68.1368L165.347 68.1368L167.468 66.0155ZM168.239 66.7863L171.149 66.0586L170.948 65.2525L170.36 64.6649L168.239 66.7863ZM168.624 68.3278L171.535 67.6002L171.535 67.6002L168.624 68.3278ZM169.01 69.8694L171.94 69.227L171.931 69.1842L171.92 69.1418L169.01 69.8694ZM169.263 71.0255L172.263 71.0255L172.263 70.7006L172.194 70.3832L169.263 71.0255ZM169.263 72.1817L172.263 72.1817L172.263 72.1817L169.263 72.1817ZM169.263 74.1086L172.263 74.1086L172.263 74.1086L169.263 74.1086ZM169.263 76.8153L172.154 77.617L172.263 77.2236L172.263 76.8153L169.263 76.8153ZM168.624 79.1186L170.885 81.0903L171.333 80.5769L171.515 79.9204L168.624 79.1186ZM167.468 80.4445L165.207 78.4728L161.566 82.648L167.053 83.4156L167.468 80.4445ZM169.01 80.6602L170.351 77.9769L169.912 77.7572L169.425 77.6891L169.01 80.6602ZM170.551 81.4309L172.519 79.166L172.232 78.9173L171.893 78.7476L170.551 81.4309ZM172.093 82.7699L174.378 80.8258L174.231 80.6534L174.06 80.505L172.093 82.7699ZM173.249 84.1287L175.592 82.2546L175.563 82.2191L175.534 82.1845L173.249 84.1287ZM174.791 86.0556L172.448 87.9297L173.963 89.8235L176.132 88.7389L174.791 86.0556ZM177.103 84.8994L176.279 82.0149L176.011 82.0915L175.761 82.2162L177.103 84.8994ZM179.801 84.1287V81.1287H179.38L178.976 81.2441L179.801 84.1287ZM181.342 84.1287L181.766 81.1588L181.555 81.1287H181.342V84.1287ZM184.04 84.514L184.989 81.668L184.732 81.5824L184.464 81.5442L184.04 84.514ZM186.352 85.2848L188.016 82.7887L187.682 82.5658L187.301 82.4388L186.352 85.2848ZM188.664 86.8264L190.465 84.4264L190.398 84.3764L190.329 84.3302L188.664 86.8264ZM190.206 87.9825L192.327 85.8612L192.177 85.7105L192.006 85.5825L190.206 87.9825ZM191.362 89.1387L194.045 87.7971L193.828 87.3616L193.484 87.0174L191.362 89.1387ZM192.133 90.6803L189.45 92.0219L190.791 94.7053L193.475 93.3635L192.133 90.6803ZM193.675 89.9094L193.675 86.9094L192.966 86.9094L192.333 87.2262L193.675 89.9094ZM195.987 89.9095L195.987 92.9095L195.987 92.9095L195.987 89.9095ZM197.914 89.9094L197.914 92.9094L200.707 92.9093L200.906 90.1231L197.914 89.9094ZM198.299 84.514L201.292 84.7277L201.423 82.8896L199.843 81.9415L198.299 84.514ZM196.372 83.3578L194.251 85.4791L194.512 85.7403L194.829 85.9303L196.372 83.3578ZM195.216 82.2016L192.533 83.5433L192.751 83.9787L193.095 84.3229L195.216 82.2016ZM194.831 81.4309L197.514 80.0892L197.434 79.9287L197.335 79.7789L194.831 81.4309ZM194.18 80.4445L191.377 81.5133L191.494 81.8213L191.676 82.0965L194.18 80.4445ZM193.675 79.1187H190.675V79.6712L190.871 80.1875L193.675 79.1187ZM193.675 75.6501L190.824 74.7153L190.675 75.1708V75.6501H193.675ZM194.18 74.1086L191.615 72.5526L191.437 72.8468L191.329 73.1738L194.18 74.1086ZM195.349 72.1816L193.474 69.84L193.06 70.1718L192.784 70.6256L195.349 72.1816ZM196.312 71.4109L198.187 73.7526L201.78 70.8751L197.697 68.7497L196.312 71.4109ZM194.831 70.6401L193.167 73.1362L193.302 73.2263L193.446 73.3012L194.831 70.6401ZM193.675 69.8693L191.553 71.9907L191.763 72.2007L192.01 72.3655L193.675 69.8693ZM192.904 69.0985L190.782 71.2199L190.782 71.2199L192.904 69.0985ZM192.133 68.3278L189.733 70.1277L189.861 70.2983L190.012 70.4491L192.133 68.3278ZM190.977 66.7862L188.191 67.9004L188.339 68.2688L188.577 68.5862L190.977 66.7862ZM190.206 64.8593L187.229 65.2314L187.277 65.6148L187.421 65.9735L190.206 64.8593ZM189.821 61.7762L192.798 61.4041L192.79 61.3433L192.78 61.283L189.821 61.7762ZM189.435 59.4639L192.394 58.9706L191.885 55.9145L188.847 56.5221L189.435 59.4639ZM187.508 59.8493L187.508 62.8493L187.805 62.8493L188.097 62.791L187.508 59.8493ZM185.196 59.8493L184.468 62.7597L184.827 62.8493L185.196 62.8493L185.196 59.8493ZM183.654 59.4639L182.313 62.1472L182.607 62.2944L182.927 62.3743L183.654 59.4639ZM182.113 58.6931L180.238 61.0354L180.487 61.2342L180.771 61.3764L182.113 58.6931ZM181.15 57.9223L179.198 60.2004L179.236 60.2331L179.275 60.2646L181.15 57.9223ZM179.801 56.7662L177.304 58.4303L177.534 58.7748L177.849 59.0442L179.801 56.7662ZM179.03 55.61L181.526 53.9459L179.862 51.4498L177.366 53.1139L179.03 55.61ZM232.984 89.1387L234.937 91.4164L238.596 88.2798L234.166 86.3812L232.984 89.1387ZM230.287 91.451L228.334 89.1732L228.247 89.2482L228.165 89.3297L230.287 91.451ZM230.287 87.9825L228.487 90.3825L228.774 90.5983L229.105 90.7399L230.287 87.9825ZM228.745 86.8263L226.871 89.1689L226.908 89.1982L226.945 89.2263L228.745 86.8263ZM226.818 85.2848L224.213 86.7732L224.497 87.27L224.944 87.6274L226.818 85.2848ZM225.277 82.5871L222.43 83.5357L222.524 83.8176L222.672 84.0755L225.277 82.5871ZM224.12 79.1186L226.966 78.1699L225.682 74.3165L222.377 76.6774L224.12 79.1186ZM221.423 81.0455L222.011 83.9873L222.642 83.861L223.166 83.4867L221.423 81.0455ZM219.496 81.4309L218.907 84.3727L219.496 84.4904L220.084 84.3727L219.496 81.4309ZM217.569 81.0455L216.455 83.831L216.71 83.9332L216.98 83.9873L217.569 81.0455ZM215.642 80.2748L214.098 82.8472L214.304 82.9709L214.528 83.0602L215.642 80.2748ZM213.715 79.1186L211.841 81.4612L211.998 81.5872L212.171 81.6911L213.715 79.1186ZM211.788 77.577L213.662 75.2344L210.504 72.7083L209.003 76.4628L211.788 77.577ZM211.017 79.504L213.36 81.378L213.638 81.0309L213.803 80.6182L211.017 79.504ZM209.476 81.4309L207.133 79.5569L207.104 79.5935L207.076 79.631L209.476 81.4309ZM208.319 82.9726L210.194 85.3152L210.491 85.0772L210.72 84.7725L208.319 82.9726ZM206.393 84.5141L206.393 87.5141L207.445 87.5141L208.267 86.8567L206.393 84.5141ZM204.08 84.5141L204.08 87.5141L204.08 87.5141L204.08 84.5141ZM200.226 84.5141L200.226 87.5141L200.226 87.5141L200.226 84.5141ZM198.299 84.514L198.3 81.514L195.506 81.5138L195.307 84.3002L198.299 84.514ZM197.914 89.9094L194.922 89.6957L194.692 92.9094H197.914V89.9094ZM199.455 89.9094L200.183 86.999L199.825 86.9094H199.455V89.9094ZM200.997 90.2949L202.339 87.6115L202.044 87.4643L201.725 87.3845L200.997 90.2949ZM202.539 91.0656L201.197 93.7489L201.309 93.8047L201.424 93.851L202.539 91.0656ZM204.466 91.8364L206.587 89.7151L206.151 89.2797L205.58 89.051L204.466 91.8364ZM206.778 94.1487L209.178 92.3487L209.05 92.1782L208.899 92.0274L206.778 94.1487ZM207.934 95.6903L210.78 94.7414L210.626 94.2797L210.334 93.8903L207.934 95.6903ZM208.319 96.8464L205.474 97.7953L205.501 97.8788L205.534 97.9606L208.319 96.8464ZM209.09 98.7733L212.001 98.0457L211.951 97.8482L211.876 97.6592L209.09 98.7733ZM209.476 100.315L212.417 99.7266L212.403 99.6566L212.386 99.5874L209.476 100.315ZM209.861 102.242L206.919 102.83L207.292 104.692L209.133 105.152L209.861 102.242ZM211.403 102.627L212.13 99.7168L212.13 99.7168L211.403 102.627ZM212.944 103.013L214.608 100.516L214.176 100.228L213.672 100.102L212.944 103.013ZM214.1 103.783L212.436 106.28L212.436 106.28L214.1 103.783ZM215.256 104.554L213.592 107.05L215.881 108.576L217.599 106.428L215.256 104.554ZM216.798 102.627L214.924 100.285L214.664 100.493L214.455 100.753L216.798 102.627ZM218.725 101.086L217.997 98.1752L217.362 98.334L216.851 98.7431L218.725 101.086ZM220.266 100.7L219.678 97.7585L219.608 97.7725L219.539 97.7898L220.266 100.7ZM222.193 100.315V97.315H221.896L221.605 97.3732L222.193 100.315ZM224.12 100.315L224.848 97.4045L224.49 97.315H224.12V100.315ZM225.662 100.7L226.39 97.7898L226.389 97.7898L225.662 100.7ZM227.203 101.086L226.476 103.996L230.203 104.928V101.086H227.203ZM227.203 96.8464L224.357 95.8977L224.203 96.3596V96.8464H227.203ZM227.974 94.5341L225.291 93.1924L225.196 93.3831L225.128 93.5854L227.974 94.5341ZM228.745 92.9925L226.624 90.8712L226.279 91.2155L226.062 91.6509L228.745 92.9925ZM177.666 59.6122L178.822 59.2269L176.925 53.5348L175.769 53.9201L177.666 59.6122ZM175.176 59.7662L176.717 59.7662L176.717 53.7662L175.176 53.7662L175.176 59.7662ZM171.834 58.01L173.376 59.1662L176.976 54.3662L175.434 53.21L171.834 58.01ZM176.159 57.8792L176.545 56.3376L170.724 54.8824L170.339 56.424L176.159 57.8792ZM175.162 60.0347L175.932 58.4932L170.566 55.81L169.795 57.3515L175.162 60.0347ZM173.443 61.9706L174.6 60.8145L170.357 56.5718L169.201 57.7279L173.443 61.9706ZM172.566 63.1908L173.722 61.6493L168.922 58.0493L167.766 59.5908L172.566 63.1908ZM171.891 64.2111L172.662 63.0549L167.67 59.7267L166.899 60.8829L171.891 64.2111ZM169.903 65.8139L171.059 65.0431L167.731 60.0508L166.575 60.8216L169.903 65.8139ZM168.747 66.5847L169.903 65.8139L166.575 60.8216L165.419 61.5924L168.747 66.5847ZM166.269 67.3844L167.81 66.9989L166.355 61.1781L164.814 61.5635L166.269 67.3844ZM168.362 62.7486L167.205 61.9778L163.877 66.9701L165.033 67.7409L168.362 62.7486ZM169.59 63.8942L168.819 63.1234L164.576 67.366L165.347 68.1368L169.59 63.8942ZM170.36 64.6649L169.59 63.8942L165.347 68.1368L166.118 68.9076L170.36 64.6649ZM171.535 67.6002L171.149 66.0586L165.329 67.5139L165.714 69.0554L171.535 67.6002ZM171.92 69.1418L171.535 67.6002L165.714 69.0554L166.099 70.5969L171.92 69.1418ZM172.194 70.3832L171.94 69.227L166.079 70.5117L166.333 71.6679L172.194 70.3832ZM172.263 72.1817L172.263 71.0255L166.263 71.0255L166.263 72.1817L172.263 72.1817ZM172.263 74.1086L172.263 72.1817L166.263 72.1817L166.263 74.1086L172.263 74.1086ZM172.263 76.8153L172.263 74.1086L166.263 74.1086L166.263 76.8153L172.263 76.8153ZM171.515 79.9204L172.154 77.617L166.372 76.0135L165.733 78.3169L171.515 79.9204ZM169.729 82.4162L170.885 81.0903L166.363 77.147L165.207 78.4728L169.729 82.4162ZM169.425 77.6891L167.884 77.4735L167.053 83.4156L168.594 83.6313L169.425 77.6891ZM171.893 78.7476L170.351 77.9769L167.668 83.3435L169.21 84.1142L171.893 78.7476ZM174.06 80.505L172.519 79.166L168.584 83.6958L170.126 85.0348L174.06 80.505ZM175.534 82.1845L174.378 80.8258L169.808 84.714L170.964 86.0728L175.534 82.1845ZM177.133 84.1815L175.592 82.2546L170.906 86.0027L172.448 87.9297L177.133 84.1815ZM175.761 82.2162L173.449 83.3723L176.132 88.7389L178.445 87.5827L175.761 82.2162ZM178.976 81.2441L176.279 82.0149L177.927 87.784L180.625 87.0132L178.976 81.2441ZM181.342 81.1287H179.801V87.1287H181.342V81.1287ZM184.464 81.5442L181.766 81.1588L180.918 87.0985L183.616 87.4839L184.464 81.5442ZM187.301 82.4388L184.989 81.668L183.091 87.3601L185.403 88.1309L187.301 82.4388ZM190.329 84.3302L188.016 82.7887L184.688 87.781L187 89.3225L190.329 84.3302ZM192.006 85.5825L190.465 84.4264L186.864 89.2264L188.406 90.3825L192.006 85.5825ZM193.484 87.0174L192.327 85.8612L188.085 90.1039L189.241 91.26L193.484 87.0174ZM194.816 89.3386L194.045 87.7971L188.679 90.4803L189.45 92.0219L194.816 89.3386ZM192.333 87.2262L190.791 87.997L193.475 93.3635L195.016 92.5926L192.333 87.2262ZM195.987 86.9095L193.675 86.9094L193.674 92.9094L195.987 92.9095L195.987 86.9095ZM197.914 86.9094L195.987 86.9095L195.987 92.9095L197.914 92.9094L197.914 86.9094ZM195.307 84.3002L194.921 89.6956L200.906 90.1231L201.292 84.7277L195.307 84.3002ZM194.829 85.9303L196.756 87.0865L199.843 81.9415L197.916 80.7853L194.829 85.9303ZM193.095 84.3229L194.251 85.4791L198.494 81.2365L197.337 80.0803L193.095 84.3229ZM192.147 82.7725L192.533 83.5433L197.899 80.86L197.514 80.0892L192.147 82.7725ZM191.676 82.0965L192.327 83.0828L197.335 79.7789L196.684 78.7926L191.676 82.0965ZM190.871 80.1875L191.377 81.5133L196.983 79.3757L196.478 78.0498L190.871 80.1875ZM190.675 77.5771V79.1187H196.675V77.5771H190.675ZM190.675 75.6501V77.5771H196.675V75.6501H190.675ZM191.329 73.1738L190.824 74.7153L196.525 76.585L197.031 75.0435L191.329 73.1738ZM192.784 70.6256L191.615 72.5526L196.745 75.6646L197.914 73.7377L192.784 70.6256ZM194.436 69.0692L193.474 69.84L197.224 74.5233L198.187 73.7526L194.436 69.0692ZM193.446 73.3012L194.927 74.072L197.697 68.7497L196.216 67.979L193.446 73.3012ZM192.01 72.3655L193.167 73.1362L196.495 68.1439L195.339 67.3732L192.01 72.3655ZM190.782 71.2199L191.553 71.9907L195.796 67.748L195.025 66.9772L190.782 71.2199ZM190.012 70.4491L190.782 71.2199L195.025 66.9772L194.254 66.2065L190.012 70.4491ZM188.577 68.5862L189.733 70.1277L194.533 66.5278L193.377 64.9862L188.577 68.5862ZM187.421 65.9735L188.191 67.9004L193.762 65.672L192.992 63.7451L187.421 65.9735ZM186.844 62.1483L187.229 65.2314L193.183 64.4872L192.798 61.4041L186.844 62.1483ZM186.476 59.9571L186.862 62.2694L192.78 61.283L192.394 58.9706L186.476 59.9571ZM188.097 62.791L190.024 62.4056L188.847 56.5221L186.92 56.9075L188.097 62.791ZM185.196 62.8493L187.508 62.8493L187.508 56.8493L185.196 56.8493L185.196 62.8493ZM182.927 62.3743L184.468 62.7597L185.924 56.9388L184.382 56.5534L182.927 62.3743ZM180.771 61.3764L182.313 62.1472L184.996 56.7806L183.455 56.0098L180.771 61.3764ZM179.275 60.2646L180.238 61.0354L183.987 56.3509L183.024 55.5801L179.275 60.2646ZM177.849 59.0442L179.198 60.2004L183.102 55.6443L181.753 54.4882L177.849 59.0442ZM176.534 57.2742L177.304 58.4303L182.297 55.1021L181.526 53.9459L176.534 57.2742ZM179.538 58.877L180.694 58.1062L177.366 53.1139L176.21 53.8847L179.538 58.877ZM231.032 86.8609L228.334 89.1732L232.239 93.7288L234.937 91.4164L231.032 86.8609ZM229.105 90.7399L231.803 91.8961L234.166 86.3812L231.468 85.2251L229.105 90.7399ZM226.945 89.2263L228.487 90.3825L232.087 85.5825L230.545 84.4263L226.945 89.2263ZM224.944 87.6274L226.871 89.1689L230.619 84.4837L228.692 82.9422L224.944 87.6274ZM222.672 84.0755L224.213 86.7732L229.423 83.7964L227.881 81.0987L222.672 84.0755ZM221.274 80.0673L222.43 83.5357L228.123 81.6384L226.966 78.1699L221.274 80.0673ZM223.166 83.4867L225.864 81.5598L222.377 76.6774L219.679 78.6043L223.166 83.4867ZM220.084 84.3727L222.011 83.9873L220.834 78.1038L218.907 78.4892L220.084 84.3727ZM216.98 83.9873L218.907 84.3727L220.084 78.4892L218.157 78.1038L216.98 83.9873ZM214.528 83.0602L216.455 83.831L218.683 78.2601L216.756 77.4893L214.528 83.0602ZM212.171 81.6911L214.098 82.8472L217.185 77.7023L215.258 76.5461L212.171 81.6911ZM209.914 79.9196L211.841 81.4612L215.589 76.776L213.662 75.2344L209.914 79.9196ZM213.803 80.6182L214.573 78.6912L209.003 76.4628L208.232 78.3898L213.803 80.6182ZM211.818 83.305L213.36 81.378L208.675 77.6299L207.133 79.5569L211.818 83.305ZM210.72 84.7725L211.876 83.2309L207.076 79.631L205.919 81.1726L210.72 84.7725ZM208.267 86.8567L210.194 85.3152L206.445 80.6299L204.518 82.1715L208.267 86.8567ZM204.08 87.5141L206.393 87.5141L206.393 81.5141L204.08 81.5141L204.08 87.5141ZM200.226 87.5141L204.08 87.5141L204.08 81.5141L200.226 81.5141L200.226 87.5141ZM198.299 87.514L200.226 87.5141L200.227 81.5141L198.3 81.514L198.299 87.514ZM200.906 90.1232L201.292 84.7277L195.307 84.3002L194.922 89.6957L200.906 90.1232ZM199.455 86.9094H197.914V92.9094H199.455V86.9094ZM201.725 87.3845L200.183 86.999L198.728 92.8198L200.269 93.2053L201.725 87.3845ZM203.88 88.3822L202.339 87.6115L199.656 92.9782L201.197 93.7489L203.88 88.3822ZM205.58 89.051L203.653 88.2802L201.424 93.851L203.351 94.6218L205.58 89.051ZM207.743 90.8713L206.587 89.7151L202.344 93.9577L203.5 95.1139L207.743 90.8713ZM208.899 92.0274L207.743 90.8713L203.5 95.1139L204.657 96.2701L208.899 92.0274ZM210.334 93.8903L209.178 92.3487L204.378 95.9487L205.534 97.4903L210.334 93.8903ZM211.165 95.8975L210.78 94.7414L205.088 96.6392L205.474 97.7953L211.165 95.8975ZM211.876 97.6592L211.105 95.7322L205.534 97.9606L206.305 99.8875L211.876 97.6592ZM212.386 99.5874L212.001 98.0457L206.18 99.5009L206.565 101.043L212.386 99.5874ZM212.803 101.654L212.417 99.7266L206.534 100.903L206.919 102.83L212.803 101.654ZM212.13 99.7168L210.589 99.3314L209.133 105.152L210.675 105.538L212.13 99.7168ZM213.672 100.102L212.13 99.7168L210.675 105.538L212.217 105.923L213.672 100.102ZM215.764 101.287L214.608 100.516L211.28 105.509L212.436 106.28L215.764 101.287ZM216.921 102.058L215.764 101.287L212.436 106.28L213.592 107.05L216.921 102.058ZM214.455 100.753L212.914 102.68L217.599 106.428L219.141 104.501L214.455 100.753ZM216.851 98.7431L214.924 100.285L218.672 104.97L220.599 103.428L216.851 98.7431ZM219.539 97.7898L217.997 98.1752L219.453 103.996L220.994 103.611L219.539 97.7898ZM221.605 97.3732L219.678 97.7585L220.855 103.642L222.782 103.257L221.605 97.3732ZM224.12 97.315H222.193V103.315H224.12V97.315ZM226.389 97.7898L224.848 97.4045L223.393 103.225L224.934 103.611L226.389 97.7898ZM227.931 98.1752L226.39 97.7898L224.934 103.611L226.476 103.996L227.931 98.1752ZM224.203 96.8464V101.086H230.203V96.8464H224.203ZM225.128 93.5854L224.357 95.8977L230.05 97.7951L230.82 95.4828L225.128 93.5854ZM226.062 91.6509L225.291 93.1924L230.658 95.8757L231.428 94.3342L226.062 91.6509ZM228.165 89.3297L226.624 90.8712L230.866 95.1138L232.408 93.5723L228.165 89.3297Z" fill="#567C4A" mask="url(#path-47-outside-1_140_502)"/>
<path d="M226.6 92.453L224.619 92.0854L222.225 91.9839L219.831 91.8825L217.437 91.7811L214.63 91.9458L211.823 92.1105L208.917 92.6681L204.871 93.6312" stroke="#A6ECB5" stroke-width="2" stroke-linecap="round"/>
<path d="M210.819 82.5871L210.218 85.8899L209.805 89.1927L210.218 92.4954L212.695 94.9725L215.27 96.8635L218.019 98.8676" stroke="#A6ECB5" stroke-width="2" stroke-linecap="round"/>
<path d="M220.952 83.8257L219.714 86.3027L218.89 89.1927L219.303 92.4954L220.952 94.1468L223.016 96.2111L225.493 97.8624" stroke="#A6ECB5" stroke-width="2" stroke-linecap="round"/>
<path d="M177.489 59.7337L177.874 62.046L178.645 64.7437L179.415 67.4414L180.186 70.1391L181.342 73.2222L182.499 76.3053L184.04 79.3884L186.352 83.6277" stroke="#A6ECB5" stroke-width="2" stroke-linecap="round"/>
<path d="M169.396 66.6706L172.864 67.056L176.718 67.056L179.416 67.056L181.728 65.8999L184.811 63.5875L187.006 61.2934" stroke="#A6ECB5" stroke-width="2" stroke-linecap="round"/>
<path d="M170.166 77.0761L173.635 77.6488L175.947 77.6488L179.03 77.6488L181.728 77.4615L184.425 76.6907L185.967 75.9199L187.894 74.3784L189.435 72.8368L190.977 71.2953" stroke="#A6ECB5" stroke-width="2" stroke-linecap="round"/>
<path d="M60.3142 221.051L87.6794 243.589C89.2177 244.856 90.9366 245.886 92.7793 246.645L128.705 261.437C131.23 262.477 133.837 263.309 136.499 263.923L170.037 271.662C171.007 271.886 172.005 271.964 172.998 271.893L206.5 269.5" stroke="#2F4135" stroke-width="2"/>
<path d="M60.386 270L87.7512 292.538C89.2894 293.805 91.0084 294.835 92.8511 295.594L128.776 310.387C131.302 311.427 133.909 312.258 136.571 312.872L170.108 320.612C171.078 320.836 172.076 320.913 173.069 320.842L206.572 318.449" stroke="#2F4135" stroke-width="2"/>
<path d="M59.386 320L86.7512 342.538C88.2894 343.805 90.0084 344.835 91.8511 345.594L127.776 360.387C130.302 361.427 132.909 362.258 135.571 362.872L169.108 370.612C170.078 370.836 171.076 370.913 172.069 370.842L205.572 368.449" stroke="#2F4135" stroke-width="2"/>
<rect x="91.8186" y="238.373" width="8.69933" height="6.1085" transform="rotate(31.7851 91.8186 238.373)" fill="black"/>
<path d="M101.878 243.066L99.9909 243.538L98.182 243.538L96.0453 242.351L93.8251 241.118L91.9096 239.681L90.5131 237.819L90.0525 235.976L90.0525 233.599L90.5242 231.712L91.4857 229.789L92.4685 228.315L92.0525 228.038L92.4685 228.315L93.441 226.857L94.4059 225.892L94.4059 225.892L95.9059 224.392L96.8975 223.4L97.9669 222.428L99.3111 221.468L101.276 220.485L103.244 219.501L104.692 219.018L106.552 218.553L108.297 218.99L109.115 219.808L109.572 221.178L110.052 223.1L110.052 225.538L110.052 228.489L109.562 230.94L109.562 230.94L109.064 233.428L108.572 235.398L108.099 236.816L107.136 238.261L106.164 239.72L105.199 240.685L103.756 242.127L101.878 243.066Z" fill="#8F769F" stroke="#6E5B80"/>
<ellipse cx="105.71" cy="227.056" rx="3.2397" ry="6.46348" transform="rotate(14.027 105.71 227.056)" fill="#B498C9"/>
<ellipse cx="104.835" cy="231.544" rx="1.5" ry="1.81332" transform="rotate(11.6413 104.835 231.544)" fill="#FCEEFE"/>
<rect x="110.452" y="346.011" width="8.69933" height="6.1085" transform="rotate(23.0515 110.452 346.011)" fill="black"/>
<path d="M121.107 349.123L119.314 349.876L117.526 350.15L115.234 349.302L112.852 348.42L110.741 347.29L109.078 345.662L108.343 343.911L107.982 341.561L108.161 339.625L108.82 337.578L109.567 335.972L109.114 335.761L109.567 335.972L110.307 334.382L111.114 333.282L111.114 333.282L112.369 331.572L113.199 330.441L114.108 329.318L115.291 328.164L117.084 326.895L118.88 325.624L120.238 324.927L122.006 324.184L123.796 324.351L124.729 325.035L125.389 326.32L126.155 328.147L126.526 330.557L126.974 333.473L126.861 335.97L126.861 335.97L126.747 338.505L126.56 340.527L126.308 342.001L125.575 343.575L124.835 345.164L124.028 346.264L122.821 347.909L121.107 349.123Z" fill="#8F769F" stroke="#6E5B80"/>
<ellipse cx="122.463" cy="332.716" rx="3.2397" ry="6.46348" transform="rotate(5.29342 122.463 332.716)" fill="#B498C9"/>
<ellipse cx="122.28" cy="337.286" rx="1.5" ry="1.81332" transform="rotate(2.90772 122.28 337.286)" fill="#FCEEFE"/>
<rect x="177.863" y="363.286" width="8.69934" height="6.1085" transform="rotate(-4.15872 177.863 363.286)" fill="black"/>
<path d="M188.245 362.522L186.969 363.991L185.487 365.028L183.056 365.28L180.53 365.542L178.137 365.463L175.925 364.738L174.491 363.492L173.129 361.545L172.433 359.728L172.119 357.601L172.079 355.83L171.579 355.841L172.079 355.83L172.04 354.077L172.277 352.733L172.277 352.733L172.646 350.644L172.89 349.263L173.209 347.854L173.76 346.297L174.807 344.365L175.855 342.431L176.765 341.205L178.023 339.757L179.702 339.115L180.842 339.316L182.002 340.177L183.497 341.476L184.895 343.474L186.586 345.892L187.59 348.181L187.59 348.181L188.608 350.505L189.334 352.402L189.76 353.835L189.799 355.57L189.838 357.323L189.601 358.667L189.246 360.676L188.245 362.522Z" fill="#95CC67" stroke="#7DA855"/>
<ellipse cx="182.206" cy="347.207" rx="3.2397" ry="6.46348" transform="rotate(-20.9515 182.206 347.207)" fill="#B0E294"/>
<ellipse cx="184.063" cy="351.386" rx="1.5" ry="1.81332" transform="rotate(-23.3372 184.063 351.386)" fill="#E9FEDD"/>
<rect x="187.547" y="271.569" width="8.69933" height="6.1085" transform="rotate(-6.57207 187.547 271.569)" fill="black"/>
<path d="M185.694 278.53L186.818 276.943L188.19 275.764L190.584 275.272L193.072 274.761L195.461 274.603L197.734 275.106L199.284 276.204L200.833 278.007L201.704 279.746L202.228 281.831L202.443 283.589L202.939 283.529L202.443 283.589L202.655 285.33L202.552 286.69L202.552 286.69L202.392 288.806L202.285 290.204L202.108 291.638L201.713 293.242L200.863 295.268L200.011 297.297L199.227 298.606L198.119 300.171L196.512 300.977L195.357 300.889L194.118 300.148L192.502 299.003L190.913 297.153L188.991 294.915L187.765 292.736L187.765 292.736L186.522 290.524L185.611 288.709L185.046 287.325L184.836 285.602L184.623 283.861L184.726 282.501L184.881 280.466L185.694 278.53Z" fill="#BD4633" stroke="#6E1B13"/>
<ellipse cx="193.218" cy="293.172" rx="3.2397" ry="6.46348" transform="rotate(153.368 193.218 293.172)" fill="#DB6561"/>
<ellipse cx="190.958" cy="289.197" rx="1.5" ry="1.81332" transform="rotate(150.983 190.958 289.197)" fill="#FDF4FE"/>
<rect x="91.5208" y="296.109" width="8.69934" height="6.1085" transform="rotate(24.1087 91.5208 296.109)" fill="black"/>
<path d="M98.8107 306.439L98.0854 304.634L97.0238 303.17L94.8087 302.136L92.5072 301.062L90.2198 300.355L87.8925 300.316L86.1304 301.025L84.2058 302.42L82.9546 303.909L81.9618 305.816L81.345 307.477L80.8763 307.303L81.345 307.477L80.7346 309.12L80.5194 310.468L80.5194 310.468L80.1851 312.563L79.9642 313.948L79.8045 315.384L79.8159 317.036L80.1735 319.203L80.5317 321.374L80.9906 322.83L81.7057 324.609L83.0824 325.766L84.2257 325.948L85.6028 325.514L87.4407 324.775L89.4152 323.344L91.8042 321.613L93.5014 319.777L93.5014 319.777L95.224 317.914L96.5303 316.36L97.4011 315.144L98.0055 313.517L98.616 311.874L98.8311 310.526L99.1526 308.511L98.8107 306.439Z" fill="#F6D756" stroke="#B4AD41"/>
<ellipse cx="3.2397" cy="6.46348" rx="3.2397" ry="6.46348" transform="matrix(0.765594 0.643324 0.643324 -0.765594 81.4573 321.801)" fill="#F8F788"/>
<ellipse cx="1.5" cy="1.81332" rx="1.5" ry="1.81332" transform="matrix(0.738151 0.674635 0.674635 -0.738151 88.886 315.922)" fill="#FEF8F0"/>
<rect x="162.986" y="318.398" width="8.69933" height="6.1085" transform="rotate(-166.867 162.986 318.398)" fill="black"/>
<path d="M153.844 308.922L154.885 310.564L156.196 311.812L158.562 312.425L161.02 313.063L163.398 313.343L165.693 312.957L167.297 311.94L168.936 310.219L169.896 308.527L170.525 306.471L170.83 304.726L171.322 304.812L170.83 304.726L171.131 302.998L171.098 301.634L171.098 301.634L171.046 299.514L171.011 298.112L170.907 296.67L170.595 295.048L169.85 292.982L169.103 290.912L168.387 289.564L167.36 287.944L165.796 287.057L164.639 287.086L163.363 287.763L161.69 288.824L160.009 290.59L157.975 292.727L156.64 294.84L156.639 294.84L155.284 296.986L154.283 298.752L153.647 300.105L153.349 301.815L153.047 303.542L153.081 304.907L153.131 306.946L153.844 308.922Z" fill="#EE864A" stroke="#A95C2F"/>
<ellipse cx="3.2397" cy="6.46348" rx="3.2397" ry="6.46348" transform="matrix(-0.869807 -0.493392 -0.493392 0.869807 168.115 290.66)" fill="#F2A977"/>
<ellipse cx="1.5" cy="1.81332" rx="1.5" ry="1.81332" transform="matrix(-0.848515 -0.529172 -0.529172 0.848515 161.879 297.793)" fill="#FDF4D8"/>
<rect x="132.12" y="263.78" width="8.69933" height="6.1085" transform="rotate(14.8299 132.12 263.78)" fill="black"/>
<path d="M140.907 273.557L139.965 271.856L138.731 270.533L136.405 269.78L133.989 268.998L131.631 268.578L129.317 268.827L127.656 269.747L125.918 271.369L124.86 273.001L124.11 275.016L123.702 276.74L123.216 276.625L123.702 276.74L123.299 278.446L123.252 279.81L123.252 279.81L123.178 281.93L123.13 283.332L123.148 284.777L123.363 286.414L123.985 288.521L124.608 290.632L125.243 292.02L126.172 293.697L127.681 294.675L128.838 294.715L130.151 294.115L131.884 293.155L133.667 291.492L135.824 289.479L137.282 287.448L137.282 287.448L138.762 285.387L139.867 283.683L140.581 282.37L140.98 280.68L141.384 278.974L141.431 277.61L141.502 275.571L140.907 273.557Z" fill="#68AEC3" stroke="#4A7E8A"/>
<ellipse cx="3.2397" cy="6.46348" rx="3.2397" ry="6.46348" transform="matrix(0.839064 0.544033 0.544033 -0.839064 125.58 290.941)" fill="#88CCDC"/>
<ellipse cx="1.5" cy="1.81332" rx="1.5" ry="1.81332" transform="matrix(0.815691 0.578488 0.578488 -0.815691 132.227 284.191)" fill="#EBFEFF"/>
<defs>
<linearGradient id="paint0_linear_140_502" x1="135.362" y1="219.075" x2="59.1409" y2="250.46" gradientUnits="userSpaceOnUse">
<stop offset="0.717259" stop-color="#B66541"/>
<stop offset="1" stop-color="#C7A188"/>
</linearGradient>
<linearGradient id="paint1_linear_140_502" x1="136.258" y1="281.845" x2="60.0376" y2="313.23" gradientUnits="userSpaceOnUse">
<stop offset="0.389791" stop-color="#B66541"/>
<stop offset="1" stop-color="#C7A188"/>
</linearGradient>
<linearGradient id="paint2_linear_140_502" x1="136.258" y1="281.845" x2="60.0376" y2="313.23" gradientUnits="userSpaceOnUse">
<stop offset="0.389791" stop-color="#B66541"/>
<stop offset="1" stop-color="#C7A188"/>
</linearGradient>
<linearGradient id="paint3_linear_140_502" x1="135.362" y1="344.615" x2="59.1409" y2="376" gradientUnits="userSpaceOnUse">
<stop offset="0.12689" stop-color="#B66541"/>
<stop offset="1" stop-color="#C7A188"/>
</linearGradient>
<linearGradient id="paint4_linear_140_502" x1="99.4929" y1="266.601" x2="169.437" y2="266.601" gradientUnits="userSpaceOnUse">
<stop stop-color="#A9522D"/>
<stop offset="1" stop-color="#A5572C"/>
</linearGradient>
<linearGradient id="paint5_linear_140_502" x1="99.4929" y1="329.371" x2="169.437" y2="329.371" gradientUnits="userSpaceOnUse">
<stop stop-color="#A9522D"/>
<stop offset="1" stop-color="#A5572C"/>
</linearGradient>
<linearGradient id="paint6_linear_140_502" x1="96.8029" y1="250.46" x2="55.4359" y2="258.676" gradientUnits="userSpaceOnUse">
<stop offset="0.414026" stop-color="#B66541"/>
<stop offset="0.850272" stop-color="#C7A188"/>
</linearGradient>
<linearGradient id="paint7_linear_140_502" x1="96.8028" y1="313.23" x2="54.5062" y2="321.836" gradientUnits="userSpaceOnUse">
<stop stop-color="#B66541"/>
<stop offset="0.850272" stop-color="#C7A188"/>
</linearGradient>
</defs>
</svg>
