<svg width="312" height="384" viewBox="0 0 312 384" fill="none" xmlns="http://www.w3.org/2000/svg">
<path d="M263.041 326.061L263.058 326.156L263.083 326.25C264.475 331.51 265.137 335.279 265.223 337.901C265.313 340.635 264.753 341.478 264.509 341.7C264.32 341.872 263.699 342.217 261.74 341.841C259.861 341.481 257.405 340.581 254.298 339.256C252.516 338.496 250.562 337.613 248.45 336.658C236.137 331.091 218.487 323.111 198.431 323.111C172.403 323.111 154.733 327.271 143.318 329.959C142.018 330.265 140.8 330.552 139.659 330.811C136.865 331.447 134.646 331.893 132.862 332.075C131.045 332.26 129.975 332.135 129.333 331.88C128.845 331.686 128.456 331.367 128.127 330.537C127.782 329.665 127.544 328.308 127.505 326.219C128.004 325.272 128.498 324.33 128.99 323.394C136.908 308.316 144.115 294.593 153.971 284.335C164.395 273.484 177.818 266.5 198.431 266.5C218.89 266.5 233.935 275.635 244.453 287.665C255.021 299.753 260.967 314.723 263.041 326.061Z" fill="#FA6051" stroke="black" stroke-width="5"/>
<path d="M191.666 340.006L191.583 340H191.5H181H180.943L180.886 340.003L169.886 340.503L169.757 340.508L169.629 340.528L159.629 342.028L159.522 342.044L159.417 342.069L146.917 345.069L146.905 345.072L146.894 345.075L136.904 347.572L127.74 349.784C126.311 350.129 124.893 349.171 124.68 347.716L123.155 337.297C122.964 335.988 123.825 334.757 125.119 334.487L132.51 332.947L132.548 332.939L132.587 332.93L146.95 329.463L158.81 327.981L158.824 327.979L158.838 327.977L169.807 326.481L178.638 325.5H191.5H206.951C207.134 325.5 207.315 325.52 207.493 325.56L220.38 328.423L235.784 332.895L248.408 336.78C248.527 336.816 248.643 336.862 248.755 336.915L260.387 342.499C260.563 342.583 260.729 342.689 260.881 342.812L265.42 346.5C266.304 347.219 266.591 348.444 266.118 349.48L261.879 358.752C261.291 360.039 259.753 360.581 258.487 359.949L252.139 356.775L241.66 351.285L241.598 351.253L241.535 351.224L230.991 346.431C230.536 346.225 230.061 346.064 229.574 345.951L217.062 343.064L217.026 343.056L216.99 343.049L206.99 341.049L206.83 341.016L206.666 341.006L191.666 340.006Z" fill="#FFFEF6" stroke="black" stroke-width="5"/>
<path d="M193.172 341.506L193.086 341.5H193H178H177.853L177.708 341.517L160.708 343.517L160.6 343.53L160.493 343.552L145.993 346.552L145.924 346.566L145.856 346.584L134.595 349.587C131.122 350.513 129.456 354.466 131.218 357.598L133.821 362.226L133.867 362.308L133.92 362.387L135.92 365.387L135.942 365.42L135.966 365.453L138.466 368.953L138.483 368.977L138.5 369L141.5 373L141.549 373.065L141.602 373.127L144.591 376.614L146.186 378.528C147.225 379.775 148.761 380.499 150.383 380.507L245.701 380.991C247.719 381.001 249.581 379.905 250.551 378.136L256.746 366.838C258.209 364.171 257.228 360.822 254.557 359.365L246.197 354.805L246.158 354.784L246.118 354.764L233.413 348.411C233.054 348.232 232.676 348.092 232.287 347.995L218.606 344.575L218.537 344.557L218.468 344.544L207.968 342.544L207.821 342.516L207.672 342.506L193.172 341.506Z" fill="#FFFEF6" stroke="black" stroke-width="5"/>
<path d="M195 362V377.5" stroke="black" stroke-width="6" stroke-linecap="round"/>
<path d="M194.68 361.873L192.5 362L190.5 361.5L170 354.5" stroke="black" stroke-width="6" stroke-linecap="round"/>
<path d="M194 361.906L196.321 361.972L198.459 361.412L220.413 353.782" stroke="black" stroke-width="6" stroke-linecap="round"/>
<mask id="path-7-outside-1_115_45" maskUnits="userSpaceOnUse" x="85.9841" y="91.3517" width="202" height="198" fill="black">
<rect fill="white" x="85.9841" y="91.3517" width="202" height="198"/>
<path fill-rule="evenodd" clip-rule="evenodd" d="M268.463 206.325C270.973 193.951 270.939 180.835 267.91 167.703C256.674 118.994 208.488 88.5211 160.283 99.6403C112.078 110.76 82.1081 159.26 93.3436 207.969C94.9128 214.772 97.2026 221.219 100.112 227.246C95.8972 233.228 93.8588 239.553 94.4763 245.924C96.9485 271.432 141.059 288.03 192.999 282.996C244.939 277.962 285.041 253.202 282.569 227.694C281.776 219.515 276.703 212.252 268.463 206.325Z"/>
</mask>
<path fill-rule="evenodd" clip-rule="evenodd" d="M268.463 206.325C270.973 193.951 270.939 180.835 267.91 167.703C256.674 118.994 208.488 88.5211 160.283 99.6403C112.078 110.76 82.1081 159.26 93.3436 207.969C94.9128 214.772 97.2026 221.219 100.112 227.246C95.8972 233.228 93.8588 239.553 94.4763 245.924C96.9485 271.432 141.059 288.03 192.999 282.996C244.939 277.962 285.041 253.202 282.569 227.694C281.776 219.515 276.703 212.252 268.463 206.325Z" fill="#FFFEF6"/>
<path d="M267.91 167.703L272.782 166.579L267.91 167.703ZM268.463 206.325L263.562 205.33L262.92 208.497L265.543 210.383L268.463 206.325ZM160.283 99.6403L159.159 94.7683L160.283 99.6403ZM93.3436 207.969L88.4716 209.093L93.3436 207.969ZM100.112 227.246L104.2 230.127L105.894 227.722L104.615 225.073L100.112 227.246ZM94.4763 245.924L89.4996 246.406H89.4996L94.4763 245.924ZM192.999 282.996L193.481 287.972L192.999 282.996ZM282.569 227.694L287.546 227.212L282.569 227.694ZM263.038 168.827C265.903 181.25 265.934 193.644 263.562 205.33L273.363 207.319C276.013 194.259 275.975 180.42 272.782 166.579L263.038 168.827ZM161.407 104.512C206.874 94.0248 252.412 122.76 263.038 168.827L272.782 166.579C260.937 115.227 210.103 83.0174 159.159 94.7683L161.407 104.512ZM98.2157 206.845C87.5898 160.779 115.94 115 161.407 104.512L159.159 94.7683C108.216 106.519 76.6264 157.741 88.4716 209.093L98.2157 206.845ZM104.615 225.073C101.866 219.378 99.7006 213.283 98.2157 206.845L88.4716 209.093C90.1249 216.261 92.5391 223.06 95.6097 229.42L104.615 225.073ZM99.453 245.441C98.9764 240.524 100.505 235.37 104.2 230.127L96.0253 224.366C91.2897 231.087 88.7412 238.581 89.4996 246.406L99.453 245.441ZM192.517 278.019C167.139 280.479 143.919 277.619 126.948 271.233C109.638 264.72 100.403 255.248 99.453 245.441L89.4996 246.406C91.0214 262.108 105.078 273.689 123.426 280.593C142.113 287.624 166.918 290.547 193.481 287.972L192.517 278.019ZM277.592 228.176C278.543 237.983 271.299 249.052 255.562 258.768C240.133 268.295 217.894 275.56 192.517 278.019L193.481 287.972C220.044 285.398 243.826 277.766 260.815 267.277C277.496 256.978 289.067 242.914 287.546 227.212L277.592 228.176ZM265.543 210.383C273.05 215.784 276.983 221.89 277.592 228.176L287.546 227.212C286.569 217.14 280.355 208.72 271.382 202.266L265.543 210.383Z" fill="black" mask="url(#path-7-outside-1_115_45)"/>
<ellipse cx="140.123" cy="224.984" rx="6.125" ry="11.5" transform="rotate(-10.8002 140.123 224.984)" fill="black"/>
<ellipse cx="228.472" cy="208.554" rx="6.12448" ry="11.5" transform="rotate(-12.5202 228.472 208.554)" fill="black"/>
<ellipse cx="187.948" cy="231.317" rx="8.42926" ry="10.4491" transform="rotate(-101.759 187.948 231.317)" fill="black"/>
<path d="M241.5 45.5071C241.5 68.7031 234.926 81.5071 222.5 81.5071C210.074 81.5071 210 68.5071 207 45.5071C203 36.0071 183.5 14.0071 203 0.507114C219 -3.99286 241.5 22.3112 241.5 45.5071Z" fill="black"/>
<path d="M111 121.16C111 136.624 84.6518 158.66 54 158.66C18.5 158.66 0 150.625 0 135.161C5 101.66 63.5 111.66 75 121.16C85 126.16 111 105.697 111 121.16Z" fill="black"/>
<path d="M123.29 66.2311C125.058 65.4324 126.556 64.1365 127.601 62.5013L134.133 52.2769C136.193 49.053 139.912 47.2867 143.712 47.7274L170.636 50.849C171.541 50.9539 172.427 51.182 173.271 51.527L192.665 59.4611C193.55 59.8233 194.379 60.3105 195.126 60.9079L216.5 78.0071L249 100.507L255.07 105.138C263.869 111.85 256.861 125.767 246.229 122.696L231.36 118.4C230.458 118.139 229.523 118.007 228.584 118.007L205.786 118.007C204.932 118.007 204.082 118.117 203.256 118.333L172 126.507L133.887 132.371C133.297 132.461 132.716 132.605 132.151 132.8L89.1498 147.611C88.3952 147.871 87.7173 148.315 87.1775 148.903C83.26 153.172 76.5371 148.128 79.5389 143.173L85.9999 132.507L97.4999 108.507L109.073 76.0147C109.985 73.454 111.9 71.375 114.377 70.2562L123.29 66.2311Z" fill="#FA6051" stroke="black" stroke-width="5"/>
<path d="M69.5 164.931C69.5 160.816 72.0202 157.122 75.851 155.62L94 148.507L118.5 141.007L149 134.007L176 128.007L205.801 120.439C206.925 120.153 208.091 120.065 209.245 120.179L247.064 123.915C247.687 123.976 248.302 124.096 248.903 124.273L275.763 132.173C279.556 133.288 282.335 136.533 282.855 140.451L285.325 159.071C286.496 167.903 276.404 173.742 269.331 168.324L266.786 166.375C265.61 165.474 264.249 164.846 262.8 164.536L245.036 160.729C244.347 160.582 243.645 160.507 242.941 160.507L207.5 160.507L168.5 165.007L130.5 174.507L95.2463 186.097C94.419 186.369 93.6307 186.748 92.9016 187.224L84.9679 192.406C78.3165 196.749 69.5 191.977 69.5 184.033L69.5 164.931Z" fill="#FFFEF6" stroke="black" stroke-width="5"/>
<circle cx="111" cy="47.5071" r="24.5" fill="#FFFEF6" stroke="black" stroke-width="5"/>
<circle cx="238" cy="123.507" r="14" fill="#FB816A"/>
<path d="M233.01 134.507L234.1 135.064L235.014 135.471L236.578 135.708L237.696 135.718L239.486 135.509L240.832 135.073L241.954 134.583" stroke="#F39F8F" stroke-linecap="round"/>
<circle cx="259" cy="130.507" r="14" fill="#FC3047"/>
<path d="M259 141.507H260.224L261.224 141.454L262.724 140.954L263.724 140.454L265.224 139.454L266.224 138.454L267 137.507" stroke="#FF7080" stroke-linecap="round"/>
<mask id="path-21-outside-2_115_45" maskUnits="userSpaceOnUse" x="210" y="63.5071" width="102" height="74" fill="black">
<rect fill="white" x="210" y="63.5071" width="102" height="74"/>
<path fill-rule="evenodd" clip-rule="evenodd" d="M234 70.5072L232.5 71.0072L230.5 71.0072L228.5 69.5071L228 71.5071L227 73.5072L225.5 75.0071L224 77.0071L223 78.5071L221.5 79.5071L220 80.5071L218 81.0072L219.5 82.0072L220.5 83.0072L221.5 84.0072L222 86.0072L222.5 88.0072L222.829 89.5072L222.829 91.0072L222.829 93.5072L222.829 97.0188L222 100.007L220.5 101.727L222.5 102.007L224.5 103.007L226.5 104.744L228 106.507L230 109.007L233 107.507L236.5 106.507H238.5L242 107.007L245 108.007L248 110.007L250 111.507L251.5 113.007L252.5 115.007L254.5 114.007L257.5 114.007L260 114.007L260 114.007L262 114.007L264 114.507L266 115.507L268.5 116.507L270 118.007L271.5 119.507L273 121.507L273.5 123.007L274.5 125.507L275 127.507L275.5 130.007L277.5 130.507L279.5 131.007L281 132.007L282.5 133.007L284.5 130.507L287 128.507L289 128.007L291.5 127.507H294L296 128.007L298 128.507V123.007L299 120.007L300 118.007L302 116.007L305.5 113.007L302 111.507L300 110.007L297.5 108.007L295.5 104.507L294 100.007L290.5 102.507L288 103.007L285.5 102.507L283 101.507L280.5 100.007L278 98.0071L277 100.507L275 103.007L273.5 105.007L271 107.007L268 107.007L263 107.007L260.5 107.007L258 105.507L256.5 104.007L256 103.007L255.156 101.727L254.5 100.007L254.5 98.0071L254.5 95.5071L255.156 93.5071L256.673 91.0071L257.921 90.0071L256 89.0071L254.5 88.0071L253.5 87.0071L252.5 86.0071L251 84.0071L250 81.5071L249.5 77.5071L249 74.5071L246.5 75.0071L243.5 75.0071L241.5 74.5071L239.5 73.5072L238.25 72.5071L236.5 71.0072L235.5 69.5072L234 70.5072ZM260.5 107.007L260 114.007H260L260.5 107.007Z"/>
</mask>
<path fill-rule="evenodd" clip-rule="evenodd" d="M234 70.5072L232.5 71.0072L230.5 71.0072L228.5 69.5071L228 71.5071L227 73.5072L225.5 75.0071L224 77.0071L223 78.5071L221.5 79.5071L220 80.5071L218 81.0072L219.5 82.0072L220.5 83.0072L221.5 84.0072L222 86.0072L222.5 88.0072L222.829 89.5072L222.829 91.0072L222.829 93.5072L222.829 97.0188L222 100.007L220.5 101.727L222.5 102.007L224.5 103.007L226.5 104.744L228 106.507L230 109.007L233 107.507L236.5 106.507H238.5L242 107.007L245 108.007L248 110.007L250 111.507L251.5 113.007L252.5 115.007L254.5 114.007L257.5 114.007L260 114.007L260 114.007L262 114.007L264 114.507L266 115.507L268.5 116.507L270 118.007L271.5 119.507L273 121.507L273.5 123.007L274.5 125.507L275 127.507L275.5 130.007L277.5 130.507L279.5 131.007L281 132.007L282.5 133.007L284.5 130.507L287 128.507L289 128.007L291.5 127.507H294L296 128.007L298 128.507V123.007L299 120.007L300 118.007L302 116.007L305.5 113.007L302 111.507L300 110.007L297.5 108.007L295.5 104.507L294 100.007L290.5 102.507L288 103.007L285.5 102.507L283 101.507L280.5 100.007L278 98.0071L277 100.507L275 103.007L273.5 105.007L271 107.007L268 107.007L263 107.007L260.5 107.007L258 105.507L256.5 104.007L256 103.007L255.156 101.727L254.5 100.007L254.5 98.0071L254.5 95.5071L255.156 93.5071L256.673 91.0071L257.921 90.0071L256 89.0071L254.5 88.0071L253.5 87.0071L252.5 86.0071L251 84.0071L250 81.5071L249.5 77.5071L249 74.5071L246.5 75.0071L243.5 75.0071L241.5 74.5071L239.5 73.5072L238.25 72.5071L236.5 71.0072L235.5 69.5072L234 70.5072ZM260.5 107.007L260 114.007H260L260.5 107.007Z" fill="#89A976"/>
<path d="M232.5 71.0072L232.5 74.0072H232.987L233.449 73.8532L232.5 71.0072ZM234 70.5072L234.949 73.3532L235.33 73.2262L235.664 73.0033L234 70.5072ZM230.5 71.0072L228.7 73.4072L229.5 74.0072L230.5 74.0072L230.5 71.0072ZM228.5 69.5071L230.3 67.1071L226.685 64.3962L225.59 68.7795L228.5 69.5071ZM228 71.5071L230.683 72.8487L230.831 72.5542L230.91 72.2347L228 71.5071ZM227 73.5072L229.121 75.6285L229.466 75.2842L229.683 74.8488L227 73.5072ZM225.5 75.0071L223.379 72.8858L223.228 73.0365L223.1 73.2071L225.5 75.0071ZM224 77.0071L221.6 75.2071L221.55 75.2737L221.504 75.343L224 77.0071ZM223 78.5071L224.664 81.0033L225.163 80.6704L225.496 80.1712L223 78.5071ZM221.5 79.5071L219.836 77.011L219.836 77.011L221.5 79.5071ZM220 80.5071L220.728 83.4175L221.232 83.2915L221.664 83.0033L220 80.5071ZM218 81.0072L217.272 78.0967L210.693 79.7416L216.336 83.5033L218 81.0072ZM219.5 82.0072L221.621 79.8858L221.411 79.6758L221.164 79.511L219.5 82.0072ZM220.5 83.0072L218.379 85.1285L218.379 85.1285L220.5 83.0072ZM221.5 84.0072L224.41 83.2795L224.209 82.4734L223.621 81.8858L221.5 84.0072ZM222 86.0072L224.91 85.2796L224.91 85.2795L222 86.0072ZM222.5 88.0072L225.43 87.3648L225.421 87.322L225.41 87.2796L222.5 88.0072ZM222.829 89.5072L225.829 89.5072L225.829 89.1822L225.759 88.8648L222.829 89.5072ZM222.829 91.0072H225.829V91.0072L222.829 91.0072ZM222.829 93.5072L225.829 93.5072V93.5072H222.829ZM222.829 97.0188L225.72 97.8205L225.829 97.4271L225.829 97.0188L222.829 97.0188ZM222 100.007L224.261 101.979L224.709 101.465L224.891 100.809L222 100.007ZM220.5 101.727L218.239 99.7556L214.598 103.931L220.084 104.698L220.5 101.727ZM222.5 102.007L223.842 99.3238L223.402 99.1041L222.916 99.0361L222.5 102.007ZM224.5 103.007L226.467 100.742L226.181 100.493L225.842 100.324L224.5 103.007ZM226.5 104.744L228.785 102.8L228.638 102.628L228.467 102.479L226.5 104.744ZM228 106.507L230.343 104.633L230.314 104.598L230.285 104.563L228 106.507ZM230 109.007L227.657 110.881L229.172 112.775L231.342 111.69L230 109.007ZM233 107.507L232.176 104.623L231.908 104.699L231.658 104.824L233 107.507ZM236.5 106.507V103.507H236.08L235.676 103.623L236.5 106.507ZM238.5 106.507L238.924 103.537L238.713 103.507H238.5V106.507ZM242 107.007L242.949 104.161L242.692 104.076L242.424 104.037L242 107.007ZM245 108.007L246.664 105.511L246.33 105.288L245.949 105.161L245 108.007ZM248 110.007L249.8 107.607L249.733 107.557L249.664 107.511L248 110.007ZM250 111.507L252.121 109.386L251.971 109.235L251.8 109.107L250 111.507ZM251.5 113.007L254.183 111.665L253.966 111.23L253.621 110.886L251.5 113.007ZM252.5 115.007L249.817 116.349L251.158 119.032L253.842 117.69L252.5 115.007ZM254.5 114.007L254.5 111.007L253.792 111.007L253.158 111.324L254.5 114.007ZM257.5 114.007L257.5 117.007H257.5L257.5 114.007ZM260 114.007L257.005 113.831L256.818 117.007L260 117.007L260 114.007ZM262 114.007L262.728 111.097L262.369 111.007H262L262 114.007ZM264 114.507L265.342 111.824L265.047 111.677L264.728 111.597L264 114.507ZM266 115.507L264.659 118.19L264.77 118.246L264.886 118.292L266 115.507ZM268.5 116.507L270.621 114.386L270.186 113.95L269.614 113.722L268.5 116.507ZM271.5 119.507L273.9 117.707L273.772 117.537L273.621 117.386L271.5 119.507ZM273 121.507L275.846 120.558L275.692 120.096L275.4 119.707L273 121.507ZM273.5 123.007L270.654 123.956L270.682 124.04L270.715 124.121L273.5 123.007ZM274.5 125.507L277.411 124.779L277.361 124.582L277.286 124.393L274.5 125.507ZM275 127.507L277.942 126.919L277.928 126.849L277.911 126.78L275 127.507ZM275.5 130.007L272.558 130.595L272.931 132.457L274.773 132.918L275.5 130.007ZM277.5 130.507L278.228 127.597L278.228 127.597L277.5 130.507ZM279.5 131.007L281.164 128.511L280.732 128.223L280.228 128.097L279.5 131.007ZM281 132.007L279.336 134.503L279.336 134.503L281 132.007ZM282.5 133.007L280.836 135.503L283.125 137.029L284.843 134.881L282.5 133.007ZM284.5 130.507L282.626 128.164L282.366 128.373L282.158 128.633L284.5 130.507ZM287 128.507L286.273 125.597L285.637 125.755L285.126 126.164L287 128.507ZM289 128.007L288.412 125.065L288.342 125.079L288.273 125.097L289 128.007ZM291.5 127.507V124.507H291.203L290.912 124.565L291.5 127.507ZM294 127.507L294.728 124.597L294.369 124.507H294V127.507ZM296 128.007L296.728 125.097L296.728 125.097L296 128.007ZM298 128.507L297.273 131.417L301 132.349V128.507H298ZM298 123.007L295.154 122.058L295 122.52V123.007H298ZM299 120.007L296.317 118.665L296.222 118.856L296.154 119.058L299 120.007ZM300 118.007L297.879 115.886L297.535 116.23L297.317 116.665L300 118.007ZM302 116.007L300.048 113.729L299.96 113.804L299.879 113.886L302 116.007ZM305.5 113.007L307.453 115.285L311.112 112.148L306.682 110.25L305.5 113.007ZM302 111.507L300.2 113.907L300.488 114.123L300.818 114.265L302 111.507ZM300 110.007L298.126 112.35L298.163 112.379L298.2 112.407L300 110.007ZM297.5 108.007L294.895 109.495L295.179 109.992L295.626 110.35L297.5 108.007ZM295.5 104.507L292.654 105.456L292.748 105.738L292.895 105.995L295.5 104.507ZM294 100.007L296.846 99.0584L295.562 95.205L292.256 97.5659L294 100.007ZM290.5 102.507L291.089 105.449L291.72 105.323L292.244 104.948L290.5 102.507ZM288 103.007L287.412 105.949L288 106.067L288.589 105.949L288 103.007ZM285.5 102.507L284.386 105.292L284.642 105.395L284.912 105.449L285.5 102.507ZM283 101.507L281.457 104.08L281.663 104.203L281.886 104.292L283 101.507ZM280.5 100.007L278.626 102.35L278.784 102.476L278.957 102.58L280.5 100.007ZM278 98.0071L279.874 95.6645L276.717 93.1383L275.215 96.8929L278 98.0071ZM277 100.507L279.343 102.381L279.62 102.034L279.786 101.621L277 100.507ZM275 103.007L272.658 101.133L272.628 101.17L272.6 101.207L275 103.007ZM273.5 105.007L275.374 107.35L275.672 107.112L275.9 106.807L273.5 105.007ZM271 107.007L271 110.007L272.052 110.007L272.874 109.35L271 107.007ZM268 107.007L268 110.007H268L268 107.007ZM263 107.007L263 110.007H263L263 107.007ZM258 105.507L255.879 107.628L256.14 107.889L256.457 108.079L258 105.507ZM256.5 104.007L253.817 105.349L254.035 105.784L254.379 106.128L256.5 104.007ZM256 103.007L258.683 101.665L258.603 101.505L258.504 101.355L256 103.007ZM255.156 101.727L252.353 102.796L252.47 103.104L252.652 103.379L255.156 101.727ZM254.5 100.007L251.5 100.007V100.56L251.697 101.076L254.5 100.007ZM254.5 98.0071L251.5 98.0071V98.0071L254.5 98.0071ZM254.5 95.5071L251.649 94.5723L251.5 95.0277V95.5071L254.5 95.5071ZM255.156 93.5071L252.591 91.9511L252.413 92.2453L252.305 92.5723L255.156 93.5071ZM256.673 91.0071L254.797 88.6654L254.383 88.9972L254.108 89.4511L256.673 91.0071ZM257.921 90.0071L259.797 92.3488L263.39 89.4713L259.306 87.346L257.921 90.0071ZM256 89.0071L254.336 91.5033L254.471 91.5933L254.615 91.6682L256 89.0071ZM254.5 88.0071L252.379 90.1285L252.589 90.3385L252.836 90.5033L254.5 88.0071ZM253.5 87.0071L251.379 89.1284L251.379 89.1285L253.5 87.0071ZM252.5 86.0071L250.1 87.8071L250.228 87.9776L250.379 88.1284L252.5 86.0071ZM251 84.0071L248.215 85.1213L248.362 85.4897L248.6 85.8071L251 84.0071ZM250 81.5071L247.023 81.8792L247.071 82.2626L247.215 82.6213L250 81.5071ZM249.5 77.5071L252.477 77.135L252.469 77.0743L252.459 77.0139L249.5 77.5071ZM249 74.5071L251.959 74.0139L251.45 70.9577L248.412 71.5654L249 74.5071ZM246.5 75.0071L246.5 78.0071H246.797L247.088 77.9489L246.5 75.0071ZM243.5 75.0071L242.772 77.9175L243.131 78.0071H243.5L243.5 75.0071ZM241.5 74.5071L240.158 77.1904L240.453 77.3377L240.772 77.4175L241.5 74.5071ZM239.5 73.5072L237.625 75.8494L237.874 76.0482L238.158 76.1905L239.5 73.5072ZM238.25 72.5071L236.298 74.7852L236.337 74.8179L236.376 74.8494L238.25 72.5071ZM236.5 71.0072L234.004 72.6713L234.234 73.0158L234.548 73.2852L236.5 71.0072ZM235.5 69.5072L237.996 67.843L236.332 65.3469L233.836 67.011L235.5 69.5072ZM260 114.007V117.007H262.793L262.992 114.221L260 114.007ZM233.449 73.8532L234.949 73.3532L233.051 67.6611L231.551 68.1611L233.449 73.8532ZM230.5 74.0072L232.5 74.0072L232.5 68.0072L230.5 68.0072L230.5 74.0072ZM226.7 71.9071L228.7 73.4072L232.3 68.6072L230.3 67.1071L226.7 71.9071ZM230.91 72.2347L231.41 70.2347L225.59 68.7795L225.09 70.7795L230.91 72.2347ZM229.683 74.8488L230.683 72.8487L225.317 70.1655L224.317 72.1656L229.683 74.8488ZM227.621 77.1285L229.121 75.6285L224.879 71.3858L223.379 72.8858L227.621 77.1285ZM226.4 78.8071L227.9 76.8071L223.1 73.2071L221.6 75.2071L226.4 78.8071ZM225.496 80.1712L226.496 78.6712L221.504 75.343L220.504 76.843L225.496 80.1712ZM223.164 82.0033L224.664 81.0033L221.336 76.011L219.836 77.011L223.164 82.0033ZM221.664 83.0033L223.164 82.0033L219.836 77.011L218.336 78.011L221.664 83.0033ZM218.728 83.9176L220.728 83.4175L219.272 77.5967L217.272 78.0967L218.728 83.9176ZM221.164 79.511L219.664 78.511L216.336 83.5033L217.836 84.5033L221.164 79.511ZM222.621 80.8858L221.621 79.8858L217.379 84.1285L218.379 85.1285L222.621 80.8858ZM223.621 81.8858L222.621 80.8858L218.379 85.1285L219.379 86.1285L223.621 81.8858ZM224.91 85.2795L224.41 83.2795L218.59 84.7348L219.09 86.7348L224.91 85.2795ZM225.41 87.2796L224.91 85.2796L219.09 86.7347L219.59 88.7347L225.41 87.2796ZM225.759 88.8648L225.43 87.3648L219.57 88.6495L219.898 90.1495L225.759 88.8648ZM225.829 91.0072L225.829 89.5072L219.829 89.5072L219.829 91.0072L225.829 91.0072ZM225.829 93.5072L225.829 91.0072L219.829 91.0072L219.829 93.5072L225.829 93.5072ZM225.829 97.0188L225.829 93.5072L219.829 93.5072L219.829 97.0188L225.829 97.0188ZM224.891 100.809L225.72 97.8205L219.938 96.217L219.109 99.2054L224.891 100.809ZM222.761 103.699L224.261 101.979L219.739 98.0355L218.239 99.7556L222.761 103.699ZM222.916 99.0361L220.916 98.7563L220.084 104.698L222.084 104.978L222.916 99.0361ZM225.842 100.324L223.842 99.3238L221.158 104.69L223.158 105.69L225.842 100.324ZM228.467 102.479L226.467 100.742L222.533 105.272L224.533 107.009L228.467 102.479ZM230.285 104.563L228.785 102.8L224.215 106.688L225.715 108.451L230.285 104.563ZM232.343 107.133L230.343 104.633L225.657 108.381L227.657 110.881L232.343 107.133ZM231.658 104.824L228.658 106.324L231.342 111.69L234.342 110.19L231.658 104.824ZM235.676 103.623L232.176 104.623L233.824 110.392L237.324 109.392L235.676 103.623ZM238.5 103.507H236.5V109.507H238.5V103.507ZM242.424 104.037L238.924 103.537L238.076 109.477L241.576 109.977L242.424 104.037ZM245.949 105.161L242.949 104.161L241.051 109.853L244.051 110.853L245.949 105.161ZM249.664 107.511L246.664 105.511L243.336 110.503L246.336 112.503L249.664 107.511ZM251.8 109.107L249.8 107.607L246.2 112.407L248.2 113.907L251.8 109.107ZM253.621 110.886L252.121 109.386L247.879 113.628L249.379 115.128L253.621 110.886ZM255.183 113.665L254.183 111.665L248.817 114.349L249.817 116.349L255.183 113.665ZM253.158 111.324L251.158 112.324L253.842 117.69L255.842 116.69L253.158 111.324ZM257.5 111.007L254.5 111.007L254.5 117.007L257.5 117.007L257.5 111.007ZM260 111.007L257.5 111.007L257.5 117.007L260 117.007L260 111.007ZM262.995 114.183L262.995 114.183L257.005 113.831L257.005 113.831L262.995 114.183ZM262 111.007L260 111.007L260 117.007L262 117.007L262 111.007ZM264.728 111.597L262.728 111.097L261.272 116.917L263.272 117.418L264.728 111.597ZM267.342 112.824L265.342 111.824L262.658 117.19L264.659 118.19L267.342 112.824ZM269.614 113.722L267.114 112.722L264.886 118.292L267.386 119.293L269.614 113.722ZM272.121 115.886L270.621 114.386L266.379 118.628L267.879 120.128L272.121 115.886ZM273.621 117.386L272.121 115.886L267.879 120.128L269.379 121.628L273.621 117.386ZM275.4 119.707L273.9 117.707L269.1 121.307L270.6 123.307L275.4 119.707ZM276.346 122.058L275.846 120.558L270.154 122.456L270.654 123.956L276.346 122.058ZM277.286 124.393L276.286 121.893L270.715 124.121L271.715 126.621L277.286 124.393ZM277.911 126.78L277.411 124.779L271.59 126.235L272.09 128.235L277.911 126.78ZM278.442 129.419L277.942 126.919L272.058 128.096L272.558 130.595L278.442 129.419ZM278.228 127.597L276.228 127.097L274.773 132.918L276.773 133.418L278.228 127.597ZM280.228 128.097L278.228 127.597L276.773 133.417L278.773 133.917L280.228 128.097ZM282.664 129.511L281.164 128.511L277.836 133.503L279.336 134.503L282.664 129.511ZM284.164 130.511L282.664 129.511L279.336 134.503L280.836 135.503L284.164 130.511ZM282.158 128.633L280.158 131.133L284.843 134.881L286.843 132.381L282.158 128.633ZM285.126 126.164L282.626 128.164L286.374 132.85L288.874 130.85L285.126 126.164ZM288.273 125.097L286.273 125.597L287.728 131.417L289.728 130.918L288.273 125.097ZM290.912 124.565L288.412 125.065L289.588 130.949L292.088 130.449L290.912 124.565ZM294 124.507H291.5V130.507H294V124.507ZM296.728 125.097L294.728 124.597L293.273 130.418L295.273 130.918L296.728 125.097ZM298.728 125.597L296.728 125.097L295.273 130.917L297.273 131.417L298.728 125.597ZM295 123.007V128.507H301V123.007H295ZM296.154 119.058L295.154 122.058L300.846 123.956L301.846 120.956L296.154 119.058ZM297.317 116.665L296.317 118.665L301.683 121.349L302.683 119.349L297.317 116.665ZM299.879 113.886L297.879 115.886L302.121 120.128L304.121 118.128L299.879 113.886ZM303.548 110.729L300.048 113.729L303.953 118.285L307.453 115.285L303.548 110.729ZM300.818 114.265L304.318 115.765L306.682 110.25L303.182 108.75L300.818 114.265ZM298.2 112.407L300.2 113.907L303.8 109.107L301.8 107.607L298.2 112.407ZM295.626 110.35L298.126 112.35L301.874 107.664L299.374 105.664L295.626 110.35ZM292.895 105.995L294.895 109.495L300.105 106.519L298.105 103.019L292.895 105.995ZM291.154 100.956L292.654 105.456L298.346 103.558L296.846 99.0584L291.154 100.956ZM292.244 104.948L295.744 102.448L292.256 97.5659L288.756 100.066L292.244 104.948ZM288.589 105.949L291.089 105.449L289.912 99.5653L287.412 100.065L288.589 105.949ZM284.912 105.449L287.412 105.949L288.589 100.065L286.089 99.5653L284.912 105.449ZM281.886 104.292L284.386 105.292L286.614 99.7216L284.114 98.7216L281.886 104.292ZM278.957 102.58L281.457 104.08L284.544 98.9346L282.044 97.4346L278.957 102.58ZM276.126 100.35L278.626 102.35L282.374 97.6645L279.874 95.6645L276.126 100.35ZM279.786 101.621L280.786 99.1213L275.215 96.8929L274.215 99.3929L279.786 101.621ZM277.343 104.881L279.343 102.381L274.657 98.633L272.658 101.133L277.343 104.881ZM275.9 106.807L277.4 104.807L272.6 101.207L271.1 103.207L275.9 106.807ZM272.874 109.35L275.374 107.35L271.626 102.665L269.126 104.665L272.874 109.35ZM268 110.007L271 110.007L271 104.007L268 104.007L268 110.007ZM263 110.007L268 110.007L268 104.007L263 104.007L263 110.007ZM260.5 110.007L263 110.007L263 104.007L260.5 104.007L260.5 110.007ZM256.457 108.079L258.957 109.579L262.044 104.435L259.544 102.935L256.457 108.079ZM254.379 106.128L255.879 107.628L260.121 103.386L258.621 101.886L254.379 106.128ZM253.317 104.349L253.817 105.349L259.183 102.665L258.683 101.665L253.317 104.349ZM252.652 103.379L253.496 104.659L258.504 101.355L257.66 100.075L252.652 103.379ZM251.697 101.076L252.353 102.796L257.959 100.659L257.303 98.9383L251.697 101.076ZM251.5 98.0071L251.5 100.007L257.5 100.007L257.5 98.0071L251.5 98.0071ZM251.5 95.5071L251.5 98.0071L257.5 98.0071L257.5 95.5071L251.5 95.5071ZM252.305 92.5723L251.649 94.5723L257.351 96.4419L258.007 94.442L252.305 92.5723ZM254.108 89.4511L252.591 91.9511L257.721 95.0632L259.237 92.5631L254.108 89.4511ZM256.046 87.6654L254.797 88.6654L258.548 93.3488L259.797 92.3488L256.046 87.6654ZM254.615 91.6682L256.536 92.6682L259.306 87.346L257.385 86.346L254.615 91.6682ZM252.836 90.5033L254.336 91.5033L257.664 86.5109L256.164 85.5109L252.836 90.5033ZM251.379 89.1285L252.379 90.1285L256.621 85.8857L255.621 84.8857L251.379 89.1285ZM250.379 88.1284L251.379 89.1284L255.621 84.8858L254.621 83.8858L250.379 88.1284ZM248.6 85.8071L250.1 87.8071L254.9 84.2071L253.4 82.2071L248.6 85.8071ZM247.215 82.6213L248.215 85.1213L253.785 82.8929L252.785 80.3929L247.215 82.6213ZM246.523 77.8792L247.023 81.8792L252.977 81.135L252.477 77.135L246.523 77.8792ZM246.041 75.0003L246.541 78.0003L252.459 77.0139L251.959 74.0139L246.041 75.0003ZM247.088 77.9489L249.588 77.4488L248.412 71.5654L245.912 72.0654L247.088 77.9489ZM243.5 78.0071L246.5 78.0071L246.5 72.0071L243.5 72.0071L243.5 78.0071ZM240.772 77.4175L242.772 77.9175L244.228 72.0967L242.228 71.5967L240.772 77.4175ZM238.158 76.1905L240.158 77.1904L242.842 71.8238L240.842 70.8239L238.158 76.1905ZM236.376 74.8494L237.625 75.8494L241.375 71.1649L240.125 70.1649L236.376 74.8494ZM234.548 73.2852L236.298 74.7852L240.203 70.2291L238.452 68.7291L234.548 73.2852ZM233.004 71.1713L234.004 72.6713L238.996 69.343L237.996 67.843L233.004 71.1713ZM235.664 73.0033L237.164 72.0033L233.836 67.011L232.336 68.011L235.664 73.0033ZM262.992 114.221L263.492 107.221L257.508 106.793L257.008 113.793L262.992 114.221ZM260 111.007H260V117.007H260V111.007ZM257.508 106.793L257.008 113.793L262.992 114.221L263.492 107.221L257.508 106.793Z" fill="#567C4A" mask="url(#path-21-outside-2_115_45)"/>
<path d="M297.218 117.307L294.648 116.83L291.542 116.699L288.436 116.567L285.33 116.435L281.688 116.649L278.046 116.863L274.276 117.586L269.027 118.836" stroke="#A6ECB5" stroke-width="2" stroke-linecap="round"/>
<path d="M276.743 104.507L275.963 108.792L275.428 113.077L275.963 117.362L279.177 120.576L282.518 123.029L286.084 125.629" stroke="#A6ECB5" stroke-width="2" stroke-linecap="round"/>
<path d="M289.889 106.114L288.283 109.328L287.214 113.077L287.75 117.362L289.889 119.505L292.568 122.183L295.781 124.325" stroke="#A6ECB5" stroke-width="2" stroke-linecap="round"/>
<path d="M233.5 74.8571L234 77.8571L235 81.3571L236 84.8571L237 88.3571L238.5 92.3571L240 96.3571L242 100.357L245 105.857" stroke="#A6ECB5" stroke-width="2" stroke-linecap="round"/>
<path d="M223 83.8571L227.5 84.3571L232.5 84.3571L236 84.3571L239 82.8571L243 79.8571L245.848 76.8807" stroke="#A6ECB5" stroke-width="2" stroke-linecap="round"/>
<path d="M224 97.3571L228.5 98.1002L231.5 98.1002L235.5 98.1002L239 97.8571L242.5 96.8571L244.5 95.8571L247 93.8571L249 91.8571L251 89.8572" stroke="#A6ECB5" stroke-width="2" stroke-linecap="round"/>
<mask id="path-29-inside-3_115_45" fill="white">
<path fill-rule="evenodd" clip-rule="evenodd" d="M203.649 238.094C200.468 242.385 201.222 248.42 205.361 251.797L207.086 253.204C210.336 255.856 215.096 255.487 217.899 252.367L226.231 243.954C227.814 242.356 230.487 243.91 229.881 246.076C229.813 246.319 229.704 246.548 229.558 246.753L225.836 251.984L225.522 252.47L197.485 291.629C194.27 296.119 195.303 302.366 199.794 305.581L200.541 306.116C205.057 309.349 211.343 308.283 214.54 303.741L239.508 268.266C239.807 267.952 240.088 267.615 240.349 267.257L249.637 254.509C250.418 253.438 250.977 252.223 251.284 250.934L251.557 249.786C251.803 248.752 251.882 247.684 251.792 246.624L251.683 245.345C251.631 244.736 251.524 244.134 251.362 243.545L250.912 241.908C250.738 241.273 250.501 240.657 250.205 240.069L248.746 237.162L246.36 233.598C245.839 232.82 245.211 232.118 244.495 231.515L241.457 228.954L237.786 226.341C236.555 225.466 235.142 224.88 233.653 224.629L230.267 224.057C229.711 223.963 229.148 223.916 228.584 223.918L224.73 223.925C223.655 223.927 222.587 224.102 221.568 224.444L218.366 225.517L215.53 226.679C214.582 227.067 213.7 227.598 212.914 228.254L209.596 231.021C209.12 231.418 208.682 231.859 208.287 232.337L204.631 236.769L203.649 238.094Z"/>
</mask>
<path fill-rule="evenodd" clip-rule="evenodd" d="M203.649 238.094C200.468 242.385 201.222 248.42 205.361 251.797L207.086 253.204C210.336 255.856 215.096 255.487 217.899 252.367L226.231 243.954C227.814 242.356 230.487 243.91 229.881 246.076C229.813 246.319 229.704 246.548 229.558 246.753L225.836 251.984L225.522 252.47L197.485 291.629C194.27 296.119 195.303 302.366 199.794 305.581L200.541 306.116C205.057 309.349 211.343 308.283 214.54 303.741L239.508 268.266C239.807 267.952 240.088 267.615 240.349 267.257L249.637 254.509C250.418 253.438 250.977 252.223 251.284 250.934L251.557 249.786C251.803 248.752 251.882 247.684 251.792 246.624L251.683 245.345C251.631 244.736 251.524 244.134 251.362 243.545L250.912 241.908C250.738 241.273 250.501 240.657 250.205 240.069L248.746 237.162L246.36 233.598C245.839 232.82 245.211 232.118 244.495 231.515L241.457 228.954L237.786 226.341C236.555 225.466 235.142 224.88 233.653 224.629L230.267 224.057C229.711 223.963 229.148 223.916 228.584 223.918L224.73 223.925C223.655 223.927 222.587 224.102 221.568 224.444L218.366 225.517L215.53 226.679C214.582 227.067 213.7 227.598 212.914 228.254L209.596 231.021C209.12 231.418 208.682 231.859 208.287 232.337L204.631 236.769L203.649 238.094Z" fill="#D61F3A"/>
<path d="M205.361 251.797L206.625 250.247L206.625 250.247L205.361 251.797ZM203.649 238.094L205.256 239.285L205.256 239.285L203.649 238.094ZM207.086 253.204L205.822 254.754L205.822 254.754L207.086 253.204ZM217.899 252.367L216.478 250.959L216.444 250.994L216.411 251.03L217.899 252.367ZM226.231 243.954L224.81 242.546L224.81 242.546L226.231 243.954ZM229.881 246.076L227.955 245.537L227.955 245.537L229.881 246.076ZM229.558 246.753L231.187 247.912L231.187 247.912L229.558 246.753ZM225.836 251.984L224.206 250.824L224.18 250.862L224.155 250.9L225.836 251.984ZM225.522 252.47L227.149 253.634L227.177 253.595L227.204 253.554L225.522 252.47ZM197.485 291.629L195.859 290.464L195.859 290.464L197.485 291.629ZM199.794 305.581L198.629 307.207L198.629 307.207L199.794 305.581ZM200.541 306.116L201.705 304.49L201.705 304.49L200.541 306.116ZM214.54 303.741L212.904 302.59L212.904 302.59L214.54 303.741ZM239.508 268.266L238.059 266.887L237.957 266.994L237.872 267.115L239.508 268.266ZM240.349 267.257L241.965 268.435L241.965 268.435L240.349 267.257ZM249.637 254.509L248.021 253.332L248.021 253.332L249.637 254.509ZM251.284 250.934L253.23 251.396L253.23 251.396L251.284 250.934ZM251.557 249.786L253.502 250.249L253.502 250.249L251.557 249.786ZM251.792 246.624L253.785 246.455L253.785 246.455L251.792 246.624ZM251.683 245.345L249.69 245.515L249.69 245.515L251.683 245.345ZM251.362 243.545L249.433 244.075L249.433 244.075L251.362 243.545ZM250.912 241.908L252.841 241.378L252.841 241.378L250.912 241.908ZM250.205 240.069L251.993 239.171L251.993 239.171L250.205 240.069ZM248.746 237.162L250.533 236.264L250.477 236.153L250.408 236.05L248.746 237.162ZM246.36 233.598L244.698 234.71L244.698 234.71L246.36 233.598ZM244.495 231.515L245.784 229.985L245.784 229.985L244.495 231.515ZM241.457 228.954L242.746 227.424L242.684 227.372L242.617 227.324L241.457 228.954ZM237.786 226.341L238.945 224.712L238.945 224.712L237.786 226.341ZM233.653 224.629L233.986 222.657L233.986 222.657L233.653 224.629ZM230.267 224.057L229.934 226.029L229.934 226.029L230.267 224.057ZM228.584 223.918L228.58 221.918L228.58 221.918L228.584 223.918ZM224.73 223.925L224.726 221.925L224.726 221.925L224.73 223.925ZM221.568 224.444L222.204 226.34L222.204 226.34L221.568 224.444ZM218.366 225.517L217.73 223.621L217.669 223.642L217.608 223.667L218.366 225.517ZM215.53 226.679L216.288 228.53L216.288 228.53L215.53 226.679ZM212.914 228.254L211.634 226.718L211.633 226.718L212.914 228.254ZM209.596 231.021L208.315 229.485L208.315 229.485L209.596 231.021ZM208.287 232.337L206.744 231.064L206.744 231.064L208.287 232.337ZM204.631 236.769L203.088 235.496L203.055 235.536L203.024 235.578L204.631 236.769ZM206.625 250.247C203.314 247.546 202.711 242.718 205.256 239.285L202.042 236.903C198.225 242.053 199.129 249.294 204.097 253.347L206.625 250.247ZM208.35 251.655L206.625 250.247L204.097 253.347L205.822 254.754L208.35 251.655ZM216.411 251.03C214.321 253.356 210.773 253.631 208.35 251.655L205.822 254.754C209.899 258.08 215.87 257.618 219.387 253.703L216.411 251.03ZM224.81 242.546L216.478 250.959L219.32 253.774L227.652 245.361L224.81 242.546ZM231.807 246.615C232.969 242.462 227.845 239.482 224.81 242.546L227.652 245.361C227.692 245.321 227.718 245.307 227.726 245.304C227.735 245.299 227.742 245.298 227.749 245.297C227.767 245.295 227.814 245.299 227.872 245.332C227.93 245.366 227.956 245.405 227.963 245.422C227.966 245.428 227.968 245.435 227.969 245.444C227.969 245.453 227.97 245.483 227.955 245.537L231.807 246.615ZM231.187 247.912C231.467 247.519 231.677 247.08 231.807 246.615L227.955 245.537C227.949 245.557 227.94 245.576 227.928 245.593L231.187 247.912ZM227.465 253.143L231.187 247.912L227.928 245.593L224.206 250.824L227.465 253.143ZM227.204 253.554L227.517 253.067L224.155 250.9L223.841 251.387L227.204 253.554ZM199.111 292.793L227.149 253.634L223.896 251.306L195.859 290.464L199.111 292.793ZM200.958 303.955C197.366 301.383 196.539 296.385 199.111 292.793L195.859 290.464C192 295.853 193.241 303.349 198.629 307.207L200.958 303.955ZM201.705 304.49L200.958 303.955L198.629 307.207L199.376 307.742L201.705 304.49ZM212.904 302.59C210.347 306.223 205.318 307.077 201.705 304.49L199.376 307.742C204.796 311.622 212.339 310.343 216.176 304.892L212.904 302.59ZM237.872 267.115L212.904 302.59L216.176 304.892L241.143 269.417L237.872 267.115ZM238.733 266.079C238.523 266.367 238.298 266.636 238.059 266.887L240.957 269.645C241.315 269.268 241.653 268.864 241.965 268.435L238.733 266.079ZM248.021 253.332L238.733 266.079L241.965 268.435L251.254 255.687L248.021 253.332ZM249.338 250.471C249.093 251.502 248.645 252.475 248.021 253.332L251.254 255.687C252.19 254.402 252.862 252.943 253.23 251.396L249.338 250.471ZM249.611 249.324L249.338 250.471L253.23 251.396L253.502 250.249L249.611 249.324ZM249.799 246.794C249.871 247.642 249.808 248.496 249.611 249.324L253.502 250.249C253.798 249.007 253.893 247.726 253.785 246.455L249.799 246.794ZM249.69 245.515L249.799 246.794L253.785 246.455L253.676 245.175L249.69 245.515ZM249.433 244.075C249.563 244.546 249.649 245.028 249.69 245.515L253.676 245.175C253.613 244.445 253.484 243.722 253.29 243.015L249.433 244.075ZM248.984 242.438L249.433 244.075L253.29 243.015L252.841 241.378L248.984 242.438ZM248.418 240.966C248.655 241.437 248.844 241.93 248.984 242.438L252.841 241.378C252.631 240.616 252.347 239.877 251.993 239.171L248.418 240.966ZM246.958 238.06L248.418 240.966L251.993 239.171L250.533 236.264L246.958 238.06ZM244.698 234.71L247.084 238.275L250.408 236.05L248.022 232.485L244.698 234.71ZM243.206 233.044C243.779 233.527 244.281 234.088 244.698 234.71L248.022 232.485C247.397 231.551 246.644 230.71 245.784 229.985L243.206 233.044ZM240.168 230.483L243.206 233.044L245.784 229.985L242.746 227.424L240.168 230.483ZM236.626 227.971L240.298 230.583L242.617 227.324L238.945 224.712L236.626 227.971ZM233.32 226.601C234.512 226.802 235.642 227.27 236.626 227.971L238.945 224.712C237.469 223.661 235.773 222.958 233.986 222.657L233.32 226.601ZM229.934 226.029L233.32 226.601L233.986 222.657L230.6 222.085L229.934 226.029ZM228.588 225.918C229.039 225.917 229.489 225.954 229.934 226.029L230.6 222.085C229.933 221.972 229.257 221.916 228.58 221.918L228.588 225.918ZM224.733 225.925L228.588 225.918L228.58 221.918L224.726 221.925L224.733 225.925ZM222.204 226.34C223.019 226.066 223.873 225.926 224.733 225.925L224.726 221.925C223.436 221.927 222.155 222.137 220.932 222.547L222.204 226.34ZM219.002 227.414L222.204 226.34L220.932 222.547L217.73 223.621L219.002 227.414ZM216.288 228.53L219.124 227.368L217.608 223.667L214.772 224.828L216.288 228.53ZM214.195 229.789C214.824 229.265 215.53 228.84 216.288 228.53L214.772 224.828C213.635 225.294 212.577 225.931 211.634 226.718L214.195 229.789ZM210.877 232.557L214.195 229.789L211.633 226.718L208.315 229.485L210.877 232.557ZM209.83 233.61C210.146 233.227 210.496 232.875 210.877 232.557L208.315 229.485C207.744 229.962 207.218 230.49 206.744 231.064L209.83 233.61ZM206.174 238.041L209.83 233.61L206.744 231.064L203.088 235.496L206.174 238.041ZM205.256 239.285L206.238 237.96L203.024 235.578L202.042 236.903L205.256 239.285Z" fill="black" mask="url(#path-29-inside-3_115_45)"/>
<path d="M199.497 292.343L220.167 292.269L215.018 299.6L197.92 299.7L197.632 298.57L197.584 296.99L197.775 296.003L197.966 295.016L198.588 293.637L198.827 293.186L199.497 292.343Z" fill="#FEFAFF"/>
<path d="M209.594 278.143L230.207 278.051L225.641 284.513L205.287 284.16L209.594 278.143Z" fill="#FFFEF6"/>
<path d="M209.594 278.143L230.207 278.051L225.641 284.513L205.287 284.16L209.594 278.143Z" fill="#FFFEF6"/>
<path d="M209.594 278.143L230.207 278.051L225.641 284.513L205.287 284.16L209.594 278.143Z" fill="#FFFEF6"/>
<path d="M219.801 263.453L240.413 263.362L235.848 269.824L215.494 269.47L219.801 263.453Z" fill="#FFFEF6"/>
<path d="M219.801 263.453L240.413 263.362L235.848 269.824L215.494 269.47L219.801 263.453Z" fill="#FFFEF6"/>
<path d="M219.801 263.453L240.413 263.362L235.848 269.824L215.494 269.47L219.801 263.453Z" fill="#FFFEF6"/>
<path d="M230.985 248.209L249.788 248.423L249.473 249.894L249.091 251.346L248.708 252.275L248.143 253.15L246.889 254.862L226.535 254.509L230.985 248.209Z" fill="#FFFEF6"/>
<path d="M230.985 248.209L249.788 248.423L249.473 249.894L249.091 251.346L248.708 252.275L248.143 253.15L246.889 254.862L226.535 254.509L230.985 248.209Z" fill="#FFFEF6"/>
<path d="M230.985 248.209L249.788 248.423L249.473 249.894L249.091 251.346L248.708 252.275L248.143 253.15L246.889 254.862L226.535 254.509L230.985 248.209Z" fill="#FFFEF6"/>
<path d="M210.404 232.977L242.903 232.791L243.324 233.126L243.717 233.557L244.11 233.988L244.867 234.945L246.017 236.333L247.024 238.201L205.264 239.267L208.183 235.444L209.619 233.786L210.404 232.977Z" fill="#FFFEF6"/>
<path d="M210.404 232.977L242.903 232.791L243.324 233.126L243.717 233.557L244.11 233.988L244.867 234.945L246.017 236.333L247.024 238.201L205.264 239.267L208.183 235.444L209.619 233.786L210.404 232.977Z" fill="#FFFEF6"/>
<path d="M210.404 232.977L242.903 232.791L243.324 233.126L243.717 233.557L244.11 233.988L244.867 234.945L246.017 236.333L247.024 238.201L205.264 239.267L208.183 235.444L209.619 233.786L210.404 232.977Z" fill="#FFFEF6"/>
<path d="M205.013 248.471L219.354 248.058L218.104 249.375L216.572 251.004L214.925 252.312L212.838 253.017L210.778 252.923L208.862 252.349L206.754 250.674L205.604 249.286L205.013 248.471Z" fill="#FFFEF6"/>
<path d="M133.405 301.07C131.09 296.278 131.789 290.242 135.404 284.146C139.009 278.07 145.379 272.22 153.728 268.186C162.077 264.152 170.619 262.796 177.619 263.748C184.642 264.704 189.806 267.907 192.121 272.699C194.437 277.491 193.738 283.527 190.122 289.623C186.517 295.7 180.147 301.549 171.798 305.584C163.45 309.618 154.908 310.973 147.907 310.021C140.884 309.066 135.721 305.863 133.405 301.07Z" fill="#FA6051" stroke="black" stroke-width="5"/>
<path d="M154.017 293.627L154.075 293.735L154.147 293.835C154.883 294.867 155.586 295.874 156.259 296.84C157.526 298.657 158.689 300.325 159.777 301.718C161.45 303.861 163.2 305.705 165.338 306.714C167.599 307.78 170.031 307.801 172.784 306.854C175.455 305.936 178.517 304.083 182.227 301.297C186.583 298.025 190.937 293.726 193.161 288.58C195.447 283.292 195.411 277.254 191.213 270.941C186.932 264.503 181.146 262.823 175.635 262.973C172.937 263.047 170.301 263.554 167.947 264.108C166.911 264.353 165.974 264.594 165.103 264.817C163.896 265.128 162.818 265.405 161.789 265.61C157.49 266.469 154.309 267.947 152.154 270.04C149.956 272.174 148.992 274.784 148.852 277.529C148.715 280.216 149.364 283.024 150.334 285.712C151.309 288.414 152.654 291.118 154.017 293.627Z" fill="#FFFEF6" stroke="black" stroke-width="4"/>
<path d="M256.44 301.41C253.837 306.053 248.488 308.936 241.42 309.462C234.374 309.986 225.931 308.113 217.843 303.578C209.756 299.043 203.753 292.816 200.525 286.532C197.287 280.227 196.957 274.16 199.56 269.517C202.163 264.875 207.512 261.992 214.58 261.466C221.626 260.942 230.069 262.815 238.157 267.35C246.244 271.885 252.247 278.111 255.475 284.396C258.713 290.701 259.043 296.768 256.44 301.41Z" fill="#FA6051" stroke="black" stroke-width="5"/>
<path d="M238.536 288.774L238.591 288.664L238.632 288.549C239.056 287.354 239.48 286.201 239.886 285.097C240.65 283.016 241.352 281.108 241.871 279.419C242.67 276.82 243.18 274.33 242.782 271.999C242.362 269.535 240.987 267.53 238.634 265.814C236.352 264.15 233.08 262.701 228.671 261.255C223.494 259.557 217.477 258.449 211.985 259.571C206.34 260.725 201.411 264.212 198.639 271.269C195.811 278.465 197.748 284.17 201.026 288.602C202.631 290.772 204.556 292.643 206.359 294.256C207.152 294.965 207.886 295.595 208.568 296.181C209.514 296.993 210.358 297.718 211.116 298.444C214.281 301.477 217.315 303.238 220.264 303.807C223.272 304.387 225.965 303.683 228.295 302.226C230.577 300.799 232.506 298.66 234.155 296.325C235.812 293.979 237.259 291.328 238.536 288.774Z" fill="#FFFEF6" stroke="black" stroke-width="4"/>
</svg>
