<svg width="216" height="226" viewBox="0 0 216 226" fill="none" xmlns="http://www.w3.org/2000/svg">
<mask id="path-1-outside-1_152_41" maskUnits="userSpaceOnUse" x="0" y="45" width="216" height="181" fill="black">
<rect fill="white" y="45" width="216" height="181"/>
<path d="M56.5 57L67 50.5L79.5 50L128.5 49L148 51L158.5 56L165 62L172 66L180 69L189 73L195 77L201 82L207 89L210.5 96.5L212.5 101V108L210.5 114.5L205 117L199 119L192.5 120L187.5 119L184 115.5L180 110L177 103L174.5 98.5L172 90L167 82H165L163.5 84.5L167 90L169.5 96.5L172 104L176 111.5L180 118V121V125L179 130.5V134.5L182 137L185 142L187.5 148L190 154.5L191.5 164.5L192.5 172.5H188.5L185 174L180 177.5L173.5 184L170.5 190V194.5H173.5L176 189L180 184L184.5 180L188.5 178.5L192.5 177.5H195.5L199 178L202 180L204.5 184L206.5 189L207.5 194V199.5L206 205L203 210.5L200 214.5L196.5 218.5L192.5 221L186 222.5L179 221L171.5 218.326V212.826L170.468 212.413C169.672 212.094 168.771 212.512 168.5 213.326V213.326L167.88 216.116C167.645 217.173 166.86 218.02 165.825 218.336L162 219.5L156.5 221L145.5 222.5H125.5L82.5 221L65.5 219.5L66.5 216.5L67.5 214.5L66.5 212H64.5L62 214.5L59.5 219.5L55.5 221L48.5 221.5L38.5 219L32.5 214.5L27.5 209.5L24 202L23 194L25.5 184.5L32.5 179L41 178L50 182.5L55.5 189L56.5 194.5L58 196H60.5L62 191.5L60.5 189L58 184.5L55.5 180.5L51 177L46 174L41 172.5L37 173.5V165L39.5 156L41 146.5L43.5 139L44.5 129V120L46 110.5L50 99.5L54 90.5L58 84V81.5H54L49 90.5L43.5 102L41 110.5L39.5 122L34 126.5L27.5 129H20.5L11 122L5 114L4 104L7.5 94L11 87L16.5 80L24 74L32.5 68.5L41 65L47.5 62L56.5 57Z"/>
</mask>
<path d="M56.5 57L67 50.5L79.5 50L128.5 49L148 51L158.5 56L165 62L172 66L180 69L189 73L195 77L201 82L207 89L210.5 96.5L212.5 101V108L210.5 114.5L205 117L199 119L192.5 120L187.5 119L184 115.5L180 110L177 103L174.5 98.5L172 90L167 82H165L163.5 84.5L167 90L169.5 96.5L172 104L176 111.5L180 118V121V125L179 130.5V134.5L182 137L185 142L187.5 148L190 154.5L191.5 164.5L192.5 172.5H188.5L185 174L180 177.5L173.5 184L170.5 190V194.5H173.5L176 189L180 184L184.5 180L188.5 178.5L192.5 177.5H195.5L199 178L202 180L204.5 184L206.5 189L207.5 194V199.5L206 205L203 210.5L200 214.5L196.5 218.5L192.5 221L186 222.5L179 221L171.5 218.326V212.826L170.468 212.413C169.672 212.094 168.771 212.512 168.5 213.326V213.326L167.88 216.116C167.645 217.173 166.86 218.02 165.825 218.336L162 219.5L156.5 221L145.5 222.5H125.5L82.5 221L65.5 219.5L66.5 216.5L67.5 214.5L66.5 212H64.5L62 214.5L59.5 219.5L55.5 221L48.5 221.5L38.5 219L32.5 214.5L27.5 209.5L24 202L23 194L25.5 184.5L32.5 179L41 178L50 182.5L55.5 189L56.5 194.5L58 196H60.5L62 191.5L60.5 189L58 184.5L55.5 180.5L51 177L46 174L41 172.5L37 173.5V165L39.5 156L41 146.5L43.5 139L44.5 129V120L46 110.5L50 99.5L54 90.5L58 84V81.5H54L49 90.5L43.5 102L41 110.5L39.5 122L34 126.5L27.5 129H20.5L11 122L5 114L4 104L7.5 94L11 87L16.5 80L24 74L32.5 68.5L41 65L47.5 62L56.5 57Z" fill="#FFF7AC"/>
<path d="M56.5 57L67 50.5L79.5 50L128.5 49L148 51L158.5 56L165 62L172 66L180 69L189 73L195 77L201 82L207 89L210.5 96.5L212.5 101V108L210.5 114.5L205 117L199 119L192.5 120L187.5 119L184 115.5L180 110L177 103L174.5 98.5L172 90L167 82H165L163.5 84.5L167 90L169.5 96.5L172 104L176 111.5L180 118V121V125L179 130.5V134.5L182 137L185 142L187.5 148L190 154.5L191.5 164.5L192.5 172.5H188.5L185 174L180 177.5L173.5 184L170.5 190V194.5H173.5L176 189L180 184L184.5 180L188.5 178.5L192.5 177.5H195.5L199 178L202 180L204.5 184L206.5 189L207.5 194V199.5L206 205L203 210.5L200 214.5L196.5 218.5L192.5 221L186 222.5L179 221L171.5 218.326V212.826L170.468 212.413C169.672 212.094 168.771 212.512 168.5 213.326V213.326L167.88 216.116C167.645 217.173 166.86 218.02 165.825 218.336L162 219.5L156.5 221L145.5 222.5H125.5L82.5 221L65.5 219.5L66.5 216.5L67.5 214.5L66.5 212H64.5L62 214.5L59.5 219.5L55.5 221L48.5 221.5L38.5 219L32.5 214.5L27.5 209.5L24 202L23 194L25.5 184.5L32.5 179L41 178L50 182.5L55.5 189L56.5 194.5L58 196H60.5L62 191.5L60.5 189L58 184.5L55.5 180.5L51 177L46 174L41 172.5L37 173.5V165L39.5 156L41 146.5L43.5 139L44.5 129V120L46 110.5L50 99.5L54 90.5L58 84V81.5H54L49 90.5L43.5 102L41 110.5L39.5 122L34 126.5L27.5 129H20.5L11 122L5 114L4 104L7.5 94L11 87L16.5 80L24 74L32.5 68.5L41 65L47.5 62L56.5 57Z" stroke="#733934" stroke-width="6" mask="url(#path-1-outside-1_152_41)"/>
<ellipse cx="110" cy="93.1743" rx="6.5" ry="4" fill="#7E4037"/>
<path d="M128.437 97.0031C127.79 96.4855 126.846 96.5904 126.329 97.2373C125.811 97.8842 125.916 98.8281 126.563 99.3456L128.437 97.0031ZM120 109.174L119.706 110.645L119.778 110.66L119.851 110.667L120 109.174ZM111.529 103.174L110.029 103.174L110.029 103.519L110.18 103.829L111.529 103.174ZM112.5 105.174L111.151 105.829L111.261 106.056L111.439 106.235L112.5 105.174ZM114 106.674L112.939 107.735L113.044 107.84L113.168 107.922L114 106.674ZM115.5 107.674L114.668 108.922L114.746 108.974L114.829 109.016L115.5 107.674ZM117.5 108.674L116.829 110.016L117.009 110.106L117.206 110.145L117.5 108.674ZM125 109.674L124.851 111.167L125.074 111.189L125.294 111.145L125 109.674ZM127.5 109.174L127.794 110.645L128.239 110.556L128.561 110.235L127.5 109.174ZM129 107.674L130.061 108.735L130.136 108.66L130.2 108.574L129 107.674ZM130.5 105.674L131.7 106.574L131.882 106.332L131.955 106.038L130.5 105.674ZM131 103.674L132.455 104.038L132.5 103.859L132.5 103.674L131 103.674ZM131 102.174L132.5 102.174L132.5 101.82L132.342 101.504L131 102.174ZM130 100.174L131.342 99.5035L131.194 99.2089L130.937 99.0031L130 100.174ZM110.029 95.1743L110.029 103.174L113.029 103.174L113.029 95.1743L110.029 95.1743ZM110.18 103.829L111.151 105.829L113.849 104.519L112.879 102.519L110.18 103.829ZM111.439 106.235L112.939 107.735L115.061 105.614L113.561 104.114L111.439 106.235ZM113.168 107.922L114.668 108.922L116.332 106.426L114.832 105.426L113.168 107.922ZM114.829 109.016L116.829 110.016L118.171 107.333L116.171 106.333L114.829 109.016ZM117.206 110.145L119.706 110.645L120.294 107.703L117.794 107.203L117.206 110.145ZM119.851 110.667L124.851 111.167L125.149 108.182L120.149 107.682L119.851 110.667ZM125.294 111.145L127.794 110.645L127.206 107.703L124.706 108.203L125.294 111.145ZM128.561 110.235L130.061 108.735L127.939 106.614L126.439 108.114L128.561 110.235ZM130.2 108.574L131.7 106.574L129.3 104.774L127.8 106.774L130.2 108.574ZM131.955 106.038L132.455 104.038L129.545 103.311L129.045 105.311L131.955 106.038ZM132.5 103.674L132.5 102.174L129.5 102.174L129.5 103.674L132.5 103.674ZM132.342 101.504L131.342 99.5035L128.658 100.845L129.658 102.845L132.342 101.504ZM130.937 99.0031L128.437 97.0031L126.563 99.3456L129.063 101.346L130.937 99.0031Z" fill="#7E4037"/>
<path d="M96.6658 99.7299C97.4636 99.5065 98.2914 99.9721 98.5148 100.77C98.7382 101.568 98.2727 102.395 97.475 102.619L96.6658 99.7299ZM102.068 111.505L102.397 112.969L102.313 112.988L102.228 112.997L102.068 111.505ZM110.483 104.556L111.983 104.543L111.986 104.843L111.872 105.121L110.483 104.556ZM109.532 106.891L110.921 107.457L110.83 107.68L110.674 107.864L109.532 106.891ZM108.046 108.635L109.188 109.607L109.088 109.725L108.966 109.819L108.046 108.635ZM106.556 109.792L107.476 110.977L107.395 111.039L107.307 111.09L106.556 109.792ZM104.565 110.944L105.316 112.243L105.117 112.358L104.894 112.408L104.565 110.944ZM97.0704 112.041L97.2302 113.532L96.9695 113.56L96.7148 113.498L97.0704 112.041ZM94.5638 111.429L94.2082 112.886L93.7379 112.772L93.4235 112.404L94.5638 111.429ZM93.0477 109.655L91.9073 110.629L91.8416 110.553L91.7868 110.468L93.0477 109.655ZM91.5265 107.294L90.2656 108.107L90.0336 107.747L90.0267 107.319L91.5265 107.294ZM91.5 105.674L90.0002 105.699L89.997 105.502L90.0448 105.311L91.5 105.674ZM92 103.674L90.5448 103.311L90.6456 102.907L90.9393 102.614L92 103.674ZM93.5 102.174L92.4393 101.114L92.7171 100.836L93.0954 100.73L93.5 102.174ZM111.902 95.1614L111.983 104.543L108.983 104.568L108.902 95.1873L111.902 95.1614ZM111.872 105.121L110.921 107.457L108.143 106.325L109.094 103.99L111.872 105.121ZM110.674 107.864L109.188 109.607L106.905 107.662L108.39 105.918L110.674 107.864ZM108.966 109.819L107.476 110.977L105.636 108.607L107.127 107.45L108.966 109.819ZM107.307 111.09L105.316 112.243L103.813 109.646L105.804 108.494L107.307 111.09ZM104.894 112.408L102.397 112.969L101.739 110.042L104.236 109.481L104.894 112.408ZM102.228 112.997L97.2302 113.532L96.9106 110.549L101.908 110.014L102.228 112.997ZM96.7148 113.498L94.2082 112.886L94.9194 109.972L97.426 110.584L96.7148 113.498ZM93.4235 112.404L91.9073 110.629L94.188 108.681L95.7042 110.455L93.4235 112.404ZM91.7868 110.468L90.2656 108.107L92.7873 106.482L94.3085 108.842L91.7868 110.468ZM90.0267 107.319L90.0002 105.699L92.9998 105.65L93.0263 107.27L90.0267 107.319ZM90.0448 105.311L90.5448 103.311L93.4552 104.038L92.9552 106.038L90.0448 105.311ZM90.9393 102.614L92.4393 101.114L94.5607 103.235L93.0607 104.735L90.9393 102.614ZM93.0954 100.73L96.6658 99.7299L97.475 102.619L93.9046 103.619L93.0954 100.73Z" fill="#7E4037"/>
<path d="M153.502 145.577L153.5 145.626V145.674C153.5 165.223 137.453 181.674 115.5 181.674C104.85 181.674 95.3525 178.422 88.5448 172.367C81.7676 166.34 77.5 157.401 77.5 145.674C77.5 126.11 92.0628 110.174 115.5 110.174C129.869 110.174 139.526 114.306 145.484 120.61C151.451 126.925 153.984 135.713 153.502 145.577Z" fill="#B6867A" stroke="#733934" stroke-width="4"/>
<ellipse cx="121.166" cy="152.023" rx="2.5" ry="3" transform="rotate(30.0568 121.166 152.023)" fill="#7A3834"/>
<ellipse cx="103.404" cy="151.03" rx="2.5" ry="3" transform="rotate(48.9023 103.404 151.03)" fill="#7A3834"/>
<ellipse cx="122.166" cy="173.023" rx="2.5" ry="3" transform="rotate(30.0568 122.166 173.023)" fill="#7A3834"/>
<ellipse cx="107.927" cy="163.609" rx="2.5" ry="2.5213" transform="rotate(30.0568 107.927 163.609)" fill="#7A3834"/>
<ellipse cx="104.927" cy="141.609" rx="2.5" ry="2.5213" transform="rotate(30.0568 104.927 141.609)" fill="#7E3C37"/>
<ellipse cx="91.5272" cy="133.208" rx="2.20855" ry="2.22737" transform="rotate(30.0568 91.5272 133.208)" fill="#7E3C37"/>
<path d="M164 132.174L158.646 137.082C158.219 137.474 157.726 137.789 157.191 138.012L152 140.174L145.948 142.502C145.65 142.617 145.364 142.76 145.093 142.929L141.983 144.873C141.662 145.073 141.365 145.309 141.097 145.577L139.835 146.84C139.286 147.389 138.872 148.058 138.627 148.794L138.257 149.905C138.087 150.414 138 150.948 138 151.486L138 153.711C138 154.348 138.121 154.978 138.358 155.568L138.807 156.691C138.935 157.012 139.097 157.32 139.289 157.608L140.598 159.571C140.865 159.971 141.188 160.331 141.557 160.639L142.959 161.806C143.641 162.375 144.462 162.751 145.337 162.897L147 163.174L151 163.674L156 163.674L163.636 162.72C163.878 162.69 164.118 162.641 164.354 162.576L172.264 160.379C172.752 160.243 173.216 160.034 173.642 159.759L181.5 154.674" stroke="#7C3938" stroke-width="4" stroke-linecap="round"/>
<path d="M62.0002 134.174L68.5604 138.86C68.8527 139.069 69.1667 139.246 69.497 139.387L72.071 140.49C72.3565 140.613 72.6528 140.708 72.956 140.776L76.4644 141.555C76.8205 141.634 77.1842 141.674 77.549 141.674L81.0493 141.674C81.3493 141.674 81.6486 141.701 81.9437 141.755L86.1939 142.528C86.7277 142.625 87.2423 142.808 87.7172 143.071L91.8818 145.371C92.2919 145.598 92.6682 145.881 92.9995 146.212L94.1654 147.378C94.7143 147.927 95.1279 148.596 95.3733 149.333L95.7435 150.443C95.9134 150.953 96.0001 151.487 96.0001 152.024L96.0001 154.25C96.0001 154.886 95.8787 155.516 95.6425 156.107L95.1934 157.229C95.0649 157.551 94.9033 157.858 94.7113 158.146L93.4023 160.109C93.1356 160.51 92.8125 160.869 92.443 161.177L90.6682 162.656C90.2261 163.024 89.7237 163.314 89.1833 163.511L86 164.674L81.5002 165.674L76.5 166.174L70.5001 166.174L64.4831 165.745C63.8339 165.698 63.2 165.526 62.617 165.236L53.5 160.713" stroke="#7C3938" stroke-width="4" stroke-linecap="round"/>
<path d="M156.5 147.174V147.236L156.515 147.296L157.015 149.296L157.049 149.43L157.146 149.528L157.938 150.32L157.019 153.537L156.953 153.769L157.093 153.965L159.269 157.012L151.894 161.16L146.575 160.599L145.851 160.455L145.504 160.381L145.193 160.281L144.997 160.179L144.763 160.034L144.756 160.029L144.748 160.025L144.302 159.771L143.567 159.064L143.556 159.053L143.544 159.044L143.118 158.681L142.784 158.35L141.413 156.392L140.5 155.023V153.174V150.755L140.963 149.366L141.411 148.47L142.328 147.553L144.264 146.101L146.206 145.13L156.08 141.124L156.5 144.704V147.174Z" fill="#FFF7AC" stroke="#FFF7AC"/>
<path d="M71 149.674V149.744L70.9808 149.812L70.0616 153.029L71.8536 154.821L72.1602 155.127L71.9 155.474L70.6407 157.153L73.3796 160.349L76.2124 163.654L79.9311 163.328L84.0881 162.534L84.8859 162.367L85.3742 162.24L85.3742 162.24L85.3787 162.239L86.3675 161.992L87.315 161.708L88.2764 161.227L89.2038 160.763L90.1464 159.821L90.1608 159.806L90.1762 159.793L91.1359 158.978L91.5934 158.383L92.5667 156.923L93.0369 155.983L93.5 154.593V152.184L93.482 151.708L93.3868 151.252L93.0451 150.25L92.6811 149.46L91.7828 148.524L91.2411 147.983L90.7247 147.593L88.8567 146.531L86.3092 145.14L82.9164 144.17L74.2501 143.689L71 148.332V149.674Z" fill="#FFF7AC" stroke="#FFF7AC"/>
<circle cx="75.5" cy="88.1743" r="4" fill="#7C3938"/>
<circle cx="147.5" cy="88.1743" r="4" fill="#7C3938"/>
<path fill-rule="evenodd" clip-rule="evenodd" d="M103.007 19.1266C102.064 18.8434 101.041 19.0418 100.271 19.6572L99.9517 19.913C99.3413 20.4012 98.9456 21.1083 98.8487 21.8839L98.5001 24.6743L98.5 28.1743V29.143C81.3065 31.2485 67.5 37.7996 67.5 44.7886C67.5 57.7703 87.9086 60.1743 110 60.1743C137 60.1743 151.5 52.3243 151.5 43.827C151.5 35.9399 142.023 27.7819 116.272 28.189L114.247 26.8391C114.083 26.7295 113.929 26.604 113.79 26.4643L110.651 23.3251C110.55 23.2247 110.443 23.1316 110.329 23.0464L106.927 20.4945C106.644 20.2827 106.327 20.1224 105.989 20.021L103.007 19.1266Z" fill="#944F19"/>
<path d="M100.271 19.6572L101.208 20.8286L101.208 20.8286L100.271 19.6572ZM103.007 19.1266L102.576 20.5633L102.576 20.5633L103.007 19.1266ZM99.9517 19.913L100.889 21.0844L100.889 21.0844L99.9517 19.913ZM98.8487 21.8839L100.337 22.0698L100.337 22.0698L98.8487 21.8839ZM98.5001 24.6743L97.0116 24.4884L97.0001 24.581L97.0001 24.6743L98.5001 24.6743ZM98.5 28.1743L97 28.1743V28.1743H98.5ZM98.5 29.143L98.6823 30.6319L100 30.4705V29.143H98.5ZM116.272 28.189L115.44 29.4371L115.828 29.6962L116.296 29.6888L116.272 28.189ZM114.247 26.8391L115.079 25.591L115.079 25.591L114.247 26.8391ZM113.79 26.4643L114.85 25.4036L114.85 25.4036L113.79 26.4643ZM110.651 23.3251L109.59 24.3858L109.59 24.3858L110.651 23.3251ZM110.329 23.0464L109.429 24.2464L109.429 24.2464L110.329 23.0464ZM106.927 20.4945L106.027 21.6945L106.027 21.6945L106.927 20.4945ZM105.989 20.021L106.42 18.5843L106.42 18.5843L105.989 20.021ZM101.208 20.8286C101.593 20.5209 102.104 20.4217 102.576 20.5633L103.438 17.6898C102.023 17.2651 100.489 17.5627 99.3345 18.4858L101.208 20.8286ZM100.889 21.0844L101.208 20.8286L99.3345 18.4858L99.0148 18.7416L100.889 21.0844ZM100.337 22.0698C100.386 21.682 100.583 21.3285 100.889 21.0844L99.0148 18.7416C98.0992 19.4739 97.5056 20.5346 97.3603 21.6979L100.337 22.0698ZM99.9885 24.8603L100.337 22.0698L97.3603 21.6979L97.0116 24.4884L99.9885 24.8603ZM100 28.1744L100 24.6744L97.0001 24.6743L97 28.1743L100 28.1744ZM100 29.143V28.1743H97V29.143H100ZM69 44.7886C69 43.5611 69.6047 42.1938 71.0086 40.7298C72.4106 39.2678 74.51 37.8203 77.2183 36.4786C82.6284 33.7985 90.2046 31.6701 98.6823 30.6319L98.3177 27.6541C89.6019 28.7215 81.678 30.9213 75.8866 33.7904C72.9941 35.2233 70.5673 36.8556 68.8433 38.6534C67.1211 40.4492 66 42.5216 66 44.7886H69ZM110 58.6743C98.9658 58.6743 88.5218 58.0689 80.8739 55.9062C77.0521 54.8255 74.0595 53.3905 72.0424 51.5588C70.0739 49.7713 69 47.5809 69 44.7886H66C66 48.4872 67.4771 51.4655 70.0256 53.7798C72.5256 56.05 76.0158 57.6501 80.0576 58.793C88.1368 61.0777 98.9429 61.6743 110 61.6743V58.6743ZM150 43.827C150 47.136 147.133 50.849 140.28 53.8102C133.531 56.7264 123.378 58.6743 110 58.6743V61.6743C123.622 61.6743 134.219 59.6973 141.47 56.5641C148.617 53.476 153 49.0154 153 43.827H150ZM116.296 29.6888C129.042 29.4873 137.563 31.4138 142.838 34.2218C148.075 37.0096 150 40.579 150 43.827H153C153 39.1879 150.186 34.7348 144.247 31.5736C138.346 28.4326 129.253 26.4836 116.248 26.6892L116.296 29.6888ZM113.415 28.0872L115.44 29.4371L117.104 26.9409L115.079 25.591L113.415 28.0872ZM112.729 27.5249C112.939 27.7345 113.168 27.9228 113.415 28.0872L115.079 25.591C114.997 25.5363 114.92 25.4735 114.85 25.4036L112.729 27.5249ZM109.59 24.3858L112.729 27.5249L114.85 25.4036L111.711 22.2644L109.59 24.3858ZM109.429 24.2464C109.486 24.289 109.54 24.3356 109.59 24.3858L111.711 22.2644C111.561 22.1139 111.4 21.9742 111.229 21.8464L109.429 24.2464ZM106.027 21.6945L109.429 24.2464L111.229 21.8465L107.827 19.2945L106.027 21.6945ZM105.558 21.4577C105.727 21.5085 105.886 21.5886 106.027 21.6945L107.827 19.2945C107.403 18.9768 106.927 18.7364 106.42 18.5843L105.558 21.4577ZM102.576 20.5633L105.558 21.4577L106.42 18.5843L103.438 17.6898L102.576 20.5633Z" fill="#7D3939"/>
<circle cx="10.7908" cy="10.7908" r="10.7908" transform="matrix(-1 0 0 1 90.8182 36.831)" fill="#FB816A"/>
<path d="M83.8737 56.1004L83.0337 56.5292L82.3287 56.8435L81.1238 57.0261L80.2621 57.0333L78.8818 56.8727L77.8449 56.5367L76.9799 56.1586" stroke="#F39F8F" stroke-linecap="round"/>
<circle cx="10.7908" cy="10.7908" r="10.7908" transform="matrix(-1 0 0 1 74.632 42.2264)" fill="#FC3047"/>
<path d="M63.8412 61.4958L62.8981 61.4958L62.1273 61.4551L60.9711 61.0697L60.2004 60.6843L59.0442 59.9135L58.2734 59.1427L57.675 58.4127" stroke="#FF7080" stroke-linecap="round"/>
<mask id="path-24-outside-2_152_41" maskUnits="userSpaceOnUse" x="21.4431" y="0" width="82" height="59" fill="black">
<rect fill="white" x="21.4431" width="82" height="59"/>
<path fill-rule="evenodd" clip-rule="evenodd" d="M83.1107 6.77079L84.2669 7.15617L85.8084 7.15617L87.35 6L87.7354 7.54153L88.5061 9.08311L89.6623 10.2392L90.8185 11.7808L91.5892 12.937L92.7454 13.7077L93.9016 14.4785L95.4431 14.8639L94.287 15.6347L93.5162 16.4055L92.7454 17.1762L92.36 18.7178L91.9746 20.2593L91.7212 21.4155L91.7212 22.5717L91.7212 24.4986L91.7212 27.2053L92.36 29.5086L93.5162 30.8345L91.9746 31.0502L90.4331 31.8209L88.8915 33.1599L87.7354 34.5186L86.1938 36.4456L83.8815 35.2894L81.1838 34.5186H79.6422L76.9445 34.904L74.6322 35.6748L72.3199 37.2164L70.7783 38.3725L69.6222 39.5287L68.8514 41.0702L67.3098 40.2994L64.9975 40.2995L63.0705 40.2994L62.6851 34.9039L64.6121 33.7478L65.7682 32.5916L66.1536 31.8208L66.8043 30.8345L67.3098 29.5086V27.967V26.0401L66.8043 24.4986L65.6353 22.5716L64.6728 21.8008L66.1537 21.0301L67.3098 20.2593L68.0806 19.4885L68.8514 18.7177L70.0075 17.1762L70.7783 15.2493L71.1637 12.1662L71.5491 9.85385L73.476 10.2392L75.7883 10.2392L77.3299 9.85385L78.8714 9.08311L79.8346 8.3123L81.1838 7.15617L81.9546 6.00001L83.1107 6.77079ZM30.6978 41.841L28.0001 39.5286L30.6978 38.3725L32.2394 37.2163L34.1663 35.6748L35.7078 32.9771L36.864 29.5086L39.5617 31.4355L41.4887 31.8209L43.4156 31.4355L45.3425 30.6647L47.2695 29.5086L49.1964 27.967L49.9672 29.894L51.5087 31.8209L52.6649 33.3625L54.5918 34.9041L56.9041 34.9041L60.758 34.9041L62.685 34.9039L63.0704 40.2994H61.5289L59.9873 40.6848L58.4457 41.4556L56.5189 42.2264L55.3627 43.3825L54.2065 44.5387L53.0504 46.0803L52.6649 47.2364L51.8941 49.1633L51.5087 50.705L51.1233 52.6318L49.5818 53.0172L48.0402 53.4026L46.8841 54.1734L45.7279 54.9441L44.1864 53.0172L42.2594 51.4756L40.7179 51.0903L38.7909 50.705H36.864L35.3224 51.0903L33.7809 51.4756V47.2364L33.0101 44.9241L32.2394 43.3825L30.6978 41.841Z"/>
</mask>
<path fill-rule="evenodd" clip-rule="evenodd" d="M83.1107 6.77079L84.2669 7.15617L85.8084 7.15617L87.35 6L87.7354 7.54153L88.5061 9.08311L89.6623 10.2392L90.8185 11.7808L91.5892 12.937L92.7454 13.7077L93.9016 14.4785L95.4431 14.8639L94.287 15.6347L93.5162 16.4055L92.7454 17.1762L92.36 18.7178L91.9746 20.2593L91.7212 21.4155L91.7212 22.5717L91.7212 24.4986L91.7212 27.2053L92.36 29.5086L93.5162 30.8345L91.9746 31.0502L90.4331 31.8209L88.8915 33.1599L87.7354 34.5186L86.1938 36.4456L83.8815 35.2894L81.1838 34.5186H79.6422L76.9445 34.904L74.6322 35.6748L72.3199 37.2164L70.7783 38.3725L69.6222 39.5287L68.8514 41.0702L67.3098 40.2994L64.9975 40.2995L63.0705 40.2994L62.6851 34.9039L64.6121 33.7478L65.7682 32.5916L66.1536 31.8208L66.8043 30.8345L67.3098 29.5086V27.967V26.0401L66.8043 24.4986L65.6353 22.5716L64.6728 21.8008L66.1537 21.0301L67.3098 20.2593L68.0806 19.4885L68.8514 18.7177L70.0075 17.1762L70.7783 15.2493L71.1637 12.1662L71.5491 9.85385L73.476 10.2392L75.7883 10.2392L77.3299 9.85385L78.8714 9.08311L79.8346 8.3123L81.1838 7.15617L81.9546 6.00001L83.1107 6.77079ZM30.6978 41.841L28.0001 39.5286L30.6978 38.3725L32.2394 37.2163L34.1663 35.6748L35.7078 32.9771L36.864 29.5086L39.5617 31.4355L41.4887 31.8209L43.4156 31.4355L45.3425 30.6647L47.2695 29.5086L49.1964 27.967L49.9672 29.894L51.5087 31.8209L52.6649 33.3625L54.5918 34.9041L56.9041 34.9041L60.758 34.9041L62.685 34.9039L63.0704 40.2994H61.5289L59.9873 40.6848L58.4457 41.4556L56.5189 42.2264L55.3627 43.3825L54.2065 44.5387L53.0504 46.0803L52.6649 47.2364L51.8941 49.1633L51.5087 50.705L51.1233 52.6318L49.5818 53.0172L48.0402 53.4026L46.8841 54.1734L45.7279 54.9441L44.1864 53.0172L42.2594 51.4756L40.7179 51.0903L38.7909 50.705H36.864L35.3224 51.0903L33.7809 51.4756V47.2364L33.0101 44.9241L32.2394 43.3825L30.6978 41.841Z" fill="#89A976"/>
<path d="M84.2669 7.15617L84.2669 10.1562H83.7801L83.3182 10.0022L84.2669 7.15617ZM83.1107 6.77079L82.162 9.61684L81.7809 9.48979L81.4466 9.26694L83.1107 6.77079ZM85.8084 7.15617L87.6084 9.55617L86.8084 10.1562H85.8084L85.8084 7.15617ZM87.35 6L85.55 3.60001L89.1646 0.889035L90.2604 5.2724L87.35 6ZM87.7354 7.54153L85.0521 8.88313L84.9048 8.58859L84.8249 8.26913L87.7354 7.54153ZM88.5061 9.08311L86.3848 11.2045L86.0406 10.8602L85.8228 10.4247L88.5061 9.08311ZM89.6623 10.2392L91.7836 8.11789L91.9344 8.26866L92.0623 8.43923L89.6623 10.2392ZM90.8185 11.7808L93.2185 9.98077L93.2684 10.0474L93.3146 10.1167L90.8185 11.7808ZM91.5892 12.937L89.9251 15.4331L89.4259 15.1003L89.0931 14.601L91.5892 12.937ZM92.7454 13.7077L94.4095 11.2116L94.4095 11.2116L92.7454 13.7077ZM93.9016 14.4785L93.1739 17.3889L92.6698 17.2629L92.2375 16.9746L93.9016 14.4785ZM95.4431 14.8639L96.1708 11.9535L102.75 13.5984L97.1072 17.3601L95.4431 14.8639ZM94.287 15.6347L92.1656 13.5134L92.3757 13.3033L92.6229 13.1385L94.287 15.6347ZM93.5162 16.4055L95.6375 18.5268L95.6375 18.5268L93.5162 16.4055ZM92.7454 17.1762L89.835 16.4486L90.0365 15.6425L90.6241 15.0549L92.7454 17.1762ZM92.36 18.7178L89.4496 17.9902L89.4496 17.9902L92.36 18.7178ZM91.9746 20.2593L89.0442 19.617L89.0536 19.5742L89.0642 19.5318L91.9746 20.2593ZM91.7212 21.4155L88.7212 21.4155L88.7212 21.0905L88.7908 20.7731L91.7212 21.4155ZM91.7212 22.5717H88.7212V22.5717L91.7212 22.5717ZM91.7212 24.4986L88.7212 24.4986V24.4986H91.7212ZM91.7212 27.2053L88.8303 28.007L88.7212 27.6136L88.7212 27.2053L91.7212 27.2053ZM92.36 29.5086L90.0989 31.4803L89.6512 30.9669L89.4691 30.3104L92.36 29.5086ZM93.5162 30.8345L95.7773 28.8628L99.4181 33.038L93.9319 33.8056L93.5162 30.8345ZM91.9746 31.0502L90.6331 28.3669L91.0724 28.1472L91.559 28.0791L91.9746 31.0502ZM90.4331 31.8209L88.4658 29.556L88.7522 29.3072L89.0915 29.1376L90.4331 31.8209ZM88.8915 33.1599L86.6067 31.2157L86.7534 31.0434L86.9243 30.8949L88.8915 33.1599ZM87.7354 34.5186L85.3928 32.6445L85.4211 32.6091L85.4506 32.5745L87.7354 34.5186ZM86.1938 36.4456L88.5364 38.3196L87.0214 40.2134L84.8522 39.1289L86.1938 36.4456ZM83.8815 35.2894L84.7057 32.4048L84.9737 32.4814L85.2231 32.6061L83.8815 35.2894ZM81.1838 34.5186V31.5186H81.6039L82.0079 31.6341L81.1838 34.5186ZM79.6422 34.5186L79.218 31.5488L79.429 31.5186H79.6422V34.5186ZM76.9445 34.904L75.9958 32.058L76.2525 31.9724L76.5203 31.9342L76.9445 34.904ZM74.6322 35.6748L72.9681 33.1787L73.3024 32.9558L73.6835 32.8288L74.6322 35.6748ZM72.3199 37.2164L70.5199 34.8164L70.5865 34.7664L70.6558 34.7202L72.3199 37.2164ZM70.7783 38.3725L68.657 36.2512L68.8078 36.1004L68.9783 35.9725L70.7783 38.3725ZM69.6222 39.5287L66.9389 38.187L67.1566 37.7516L67.5008 37.4074L69.6222 39.5287ZM68.8514 41.0702L71.5347 42.4119L70.193 45.0953L67.5096 43.7534L68.8514 41.0702ZM67.3098 40.2994L67.3097 37.2994L68.0181 37.2993L68.6516 37.6161L67.3098 40.2994ZM64.9975 40.2995L64.9976 43.2995H64.9974L64.9975 40.2995ZM63.0705 40.2994L63.0704 43.2994L60.2771 43.2992L60.0781 40.5131L63.0705 40.2994ZM62.6851 34.9039L59.6927 35.1177L59.5614 33.2796L61.1416 32.3315L62.6851 34.9039ZM64.6121 33.7478L66.7334 35.8691L66.4723 36.1302L66.1556 36.3203L64.6121 33.7478ZM65.7682 32.5916L68.4515 33.9333L68.2338 34.3687L67.8896 34.7129L65.7682 32.5916ZM66.1536 31.8208L63.4704 30.4792L63.5506 30.3187L63.6494 30.1689L66.1536 31.8208ZM66.8043 30.8345L69.6074 31.9033L69.49 32.2113L69.3085 32.4864L66.8043 30.8345ZM67.3098 29.5086H70.3098V30.0612L70.113 30.5774L67.3098 29.5086ZM67.3098 26.0401L70.1604 25.1053L70.3098 25.5607V26.0401H67.3098ZM66.8043 24.4986L69.3692 22.9426L69.5477 23.2368L69.6549 23.5637L66.8043 24.4986ZM65.6353 22.5716L67.5105 20.2299L67.9249 20.5617L68.2002 21.0156L65.6353 22.5716ZM64.6728 21.8008L62.7976 24.1425L59.2043 21.2651L63.2877 19.1397L64.6728 21.8008ZM66.1537 21.0301L67.8178 23.5262L67.6827 23.6163L67.5387 23.6912L66.1537 21.0301ZM67.3098 20.2593L69.4311 22.3807L69.2211 22.5907L68.9739 22.7554L67.3098 20.2593ZM68.0806 19.4885L70.202 21.6098L70.2019 21.6099L68.0806 19.4885ZM68.8514 18.7177L71.2514 20.5177L71.1235 20.6883L70.9727 20.8391L68.8514 18.7177ZM70.0075 17.1762L72.793 18.2904L72.6456 18.6588L72.4076 18.9762L70.0075 17.1762ZM70.7783 15.2493L73.7551 15.6214L73.7072 16.0047L73.5637 16.3634L70.7783 15.2493ZM71.1637 12.1662L68.1869 11.7941L68.1945 11.7333L68.2045 11.6729L71.1637 12.1662ZM71.5491 9.85385L68.5899 9.36062L69.0993 6.30446L72.1375 6.91211L71.5491 9.85385ZM73.476 10.2392V13.2392H73.1789L72.8876 13.181L73.476 10.2392ZM75.7883 10.2392L76.5159 13.1497L76.1577 13.2392H75.7883V10.2392ZM77.3299 9.85385L78.6715 12.5371L78.377 12.6844L78.0575 12.7643L77.3299 9.85385ZM78.8714 9.08311L80.746 11.4254L80.4976 11.6241L80.213 11.7664L78.8714 9.08311ZM79.8346 8.3123L81.7866 10.5903L81.7484 10.6231L81.7091 10.6545L79.8346 8.3123ZM81.1838 7.15617L83.6799 8.82032L83.4502 9.16481L83.1358 9.43421L81.1838 7.15617ZM81.9546 6.00001L79.4584 4.33587L81.1226 1.83979L83.6187 3.50386L81.9546 6.00001ZM28.0001 39.5286L26.0477 41.8064L22.3883 38.6698L26.8183 36.7712L28.0001 39.5286ZM30.6978 41.841L32.6502 39.5632L32.7377 39.6382L32.8191 39.7196L30.6978 41.841ZM30.6978 38.3725L32.4978 40.7725L32.2101 40.9882L31.8796 41.1299L30.6978 38.3725ZM32.2394 37.2163L34.1134 39.5589L34.0769 39.5882L34.0394 39.6163L32.2394 37.2163ZM34.1663 35.6748L36.771 37.1632L36.4872 37.6599L36.0404 38.0174L34.1663 35.6748ZM35.7078 32.9771L38.5539 33.9257L38.46 34.2075L38.3126 34.4655L35.7078 32.9771ZM36.864 29.5086L34.0179 28.5599L35.3024 24.7064L38.6077 27.0674L36.864 29.5086ZM39.5617 31.4355L38.9733 34.3772L38.342 34.2509L37.818 33.8767L39.5617 31.4355ZM41.4887 31.8209L42.0771 34.7627L41.4887 34.8803L40.9003 34.7627L41.4887 31.8209ZM43.4156 31.4355L44.5298 34.2209L44.2741 34.3232L44.004 34.3772L43.4156 31.4355ZM45.3425 30.6647L46.886 33.2372L46.6799 33.3609L46.4567 33.4502L45.3425 30.6647ZM47.2695 29.5086L49.1436 31.8512L48.986 31.9772L48.813 32.081L47.2695 29.5086ZM49.1964 27.967L47.3223 25.6244L50.48 23.0983L51.9818 26.8528L49.1964 27.967ZM49.9672 29.894L47.6245 31.768L47.3469 31.4209L47.1818 31.0081L49.9672 29.894ZM51.5087 31.8209L53.8513 29.9469L53.8806 29.9835L53.9087 30.021L51.5087 31.8209ZM52.6649 33.3625L50.7908 35.7051L50.4934 35.4672L50.2649 35.1625L52.6649 33.3625ZM54.5918 34.9041V37.9041L53.5395 37.9041L52.7177 37.2467L54.5918 34.9041ZM56.9041 34.9041L56.9041 37.9041H56.9041V34.9041ZM60.758 34.9041L60.7582 37.9041H60.758L60.758 34.9041ZM62.685 34.9039L62.6848 31.9039L65.4783 31.9037L65.6773 34.6902L62.685 34.9039ZM63.0704 40.2994L66.0628 40.0856L66.2924 43.2994H63.0704V40.2994ZM61.5289 40.2994L60.8012 37.389L61.1595 37.2994H61.5289V40.2994ZM59.9873 40.6848L58.6458 38.0015L58.9403 37.8543L59.2597 37.7744L59.9873 40.6848ZM58.4457 41.4556L59.7872 44.1389L59.6757 44.1947L59.56 44.241L58.4457 41.4556ZM56.5189 42.2264L54.3975 40.1051L54.8329 39.6697L55.4046 39.441L56.5189 42.2264ZM54.2065 44.5387L51.8065 42.7387L51.9345 42.5681L52.0852 42.4174L54.2065 44.5387ZM53.0504 46.0803L50.2044 45.1313L50.3583 44.6696L50.6504 44.2803L53.0504 46.0803ZM52.6649 47.2364L55.5109 48.1853L55.483 48.2688L55.4503 48.3505L52.6649 47.2364ZM51.8941 49.1633L48.9837 48.4357L49.0331 48.2382L49.1087 48.0491L51.8941 49.1633ZM51.5087 50.705L48.567 50.1166L48.581 50.0466L48.5983 49.9774L51.5087 50.705ZM51.1233 52.6318L54.0651 53.2202L53.6928 55.0818L51.8509 55.5423L51.1233 52.6318ZM49.5818 53.0172L48.8542 50.1068L48.8542 50.1068L49.5818 53.0172ZM48.0402 53.4026L46.3761 50.9064L46.8085 50.6182L47.3126 50.4921L48.0402 53.4026ZM46.8841 54.1734L48.5482 56.6695L48.5482 56.6695L46.8841 54.1734ZM45.7279 54.9441L47.392 57.4403L45.1035 58.9659L43.3853 56.8182L45.7279 54.9441ZM44.1864 53.0172L46.0605 50.6746L46.3207 50.8828L46.529 51.1431L44.1864 53.0172ZM42.2594 51.4756L42.987 48.5652L43.6222 48.724L44.1335 49.133L42.2594 51.4756ZM40.7179 51.0903L41.3061 48.1485L41.3762 48.1625L41.4455 48.1798L40.7179 51.0903ZM38.7909 50.705V47.705H39.0879L39.3792 47.7632L38.7909 50.705ZM36.864 50.705L36.1365 47.7945L36.4948 47.705H36.864V50.705ZM35.3224 51.0903L34.5948 48.1798L34.595 48.1798L35.3224 51.0903ZM33.7809 51.4756L34.5085 54.3861L30.7809 55.318V51.4756H33.7809ZM33.7809 47.2364L36.627 46.2877L36.7809 46.7495V47.2364H33.7809ZM33.0101 44.9241L35.6934 43.5824L35.7888 43.7731L35.8562 43.9754L33.0101 44.9241ZM32.2394 43.3825L34.3607 41.2612L34.7049 41.6054L34.9226 42.0409L32.2394 43.3825ZM83.3182 10.0022L82.162 9.61684L84.0594 3.92474L85.2156 4.31012L83.3182 10.0022ZM85.8084 10.1562L84.2669 10.1562L84.2669 4.15617L85.8084 4.15617L85.8084 10.1562ZM89.15 8.39999L87.6084 9.55617L84.0084 4.75618L85.55 3.60001L89.15 8.39999ZM84.8249 8.26913L84.4396 6.7276L90.2604 5.2724L90.6458 6.81393L84.8249 8.26913ZM85.8228 10.4247L85.0521 8.88313L90.4187 6.19993L91.1894 7.74151L85.8228 10.4247ZM87.541 12.3606L86.3848 11.2045L90.6274 6.96176L91.7836 8.11789L87.541 12.3606ZM88.4185 13.5808L87.2623 12.0393L92.0623 8.43923L93.2185 9.98077L88.4185 13.5808ZM89.0931 14.601L88.3223 13.4449L93.3146 10.1167L94.0854 11.2729L89.0931 14.601ZM91.0813 16.2039L89.9251 15.4331L93.2533 10.4408L94.4095 11.2116L91.0813 16.2039ZM92.2375 16.9746L91.0813 16.2039L94.4095 11.2116L95.5657 11.9824L92.2375 16.9746ZM94.7155 17.7743L93.1739 17.3889L94.6292 11.5681L96.1708 11.9535L94.7155 17.7743ZM92.6229 13.1385L93.779 12.3678L97.1072 17.3601L95.9511 18.1308L92.6229 13.1385ZM91.3949 14.2841L92.1656 13.5134L96.4083 17.756L95.6375 18.5268L91.3949 14.2841ZM90.6241 15.0549L91.3949 14.2841L95.6375 18.5268L94.8667 19.2976L90.6241 15.0549ZM89.4496 17.9902L89.835 16.4486L95.6558 17.9039L95.2704 19.4454L89.4496 17.9902ZM89.0642 19.5318L89.4496 17.9902L95.2704 19.4454L94.8851 20.9869L89.0642 19.5318ZM88.7908 20.7731L89.0442 19.617L94.9051 20.9017L94.6516 22.0579L88.7908 20.7731ZM88.7212 22.5717L88.7212 21.4155L94.7212 21.4155L94.7212 22.5717L88.7212 22.5717ZM88.7212 24.4986L88.7212 22.5717L94.7212 22.5717L94.7212 24.4986L88.7212 24.4986ZM88.7212 27.2053L88.7212 24.4986L94.7212 24.4986L94.7212 27.2053L88.7212 27.2053ZM89.4691 30.3104L88.8303 28.007L94.6121 26.4035L95.2509 28.7069L89.4691 30.3104ZM91.2551 32.8062L90.0989 31.4803L94.6211 27.5369L95.7773 28.8628L91.2551 32.8062ZM91.559 28.0791L93.1005 27.8634L93.9319 33.8056L92.3903 34.0212L91.559 28.0791ZM89.0915 29.1376L90.6331 28.3669L93.3162 33.7335L91.7746 34.5042L89.0915 29.1376ZM86.9243 30.8949L88.4658 29.556L92.4003 34.0858L90.8588 35.4248L86.9243 30.8949ZM85.4506 32.5745L86.6067 31.2157L91.1764 35.104L90.0202 36.4627L85.4506 32.5745ZM83.8512 34.5715L85.3928 32.6445L90.078 36.3927L88.5364 38.3196L83.8512 34.5715ZM85.2231 32.6061L87.5354 33.7623L84.8522 39.1289L82.5399 37.9727L85.2231 32.6061ZM82.0079 31.6341L84.7057 32.4048L83.0573 38.174L80.3596 37.4032L82.0079 31.6341ZM79.6422 31.5186H81.1838V37.5186H79.6422V31.5186ZM76.5203 31.9342L79.218 31.5488L80.0665 37.4885L77.3688 37.8739L76.5203 31.9342ZM73.6835 32.8288L75.9958 32.058L77.8932 37.7501L75.5809 38.5209L73.6835 32.8288ZM70.6558 34.7202L72.9681 33.1787L76.2963 38.171L73.984 39.7125L70.6558 34.7202ZM68.9783 35.9725L70.5199 34.8164L74.1199 39.6164L72.5783 40.7725L68.9783 35.9725ZM67.5008 37.4074L68.657 36.2512L72.8996 40.4938L71.7435 41.65L67.5008 37.4074ZM66.1681 39.7286L66.9389 38.187L72.3054 40.8703L71.5347 42.4119L66.1681 39.7286ZM68.6516 37.6161L70.1932 38.387L67.5096 43.7534L65.9681 42.9826L68.6516 37.6161ZM64.9974 37.2995L67.3097 37.2994L67.31 43.2994L64.9976 43.2995L64.9974 37.2995ZM63.0707 37.2994L64.9977 37.2995L64.9974 43.2995L63.0704 43.2994L63.0707 37.2994ZM65.6775 34.6902L66.0629 40.0856L60.0781 40.5131L59.6927 35.1177L65.6775 34.6902ZM66.1556 36.3203L64.2286 37.4764L61.1416 32.3315L63.0686 31.1753L66.1556 36.3203ZM67.8896 34.7129L66.7334 35.8691L62.4908 31.6265L63.6469 30.4703L67.8896 34.7129ZM68.8369 33.1625L68.4515 33.9333L63.085 31.25L63.4704 30.4792L68.8369 33.1625ZM69.3085 32.4864L68.6578 33.4728L63.6494 30.1689L64.3001 29.1825L69.3085 32.4864ZM70.113 30.5774L69.6074 31.9033L64.0011 29.7657L64.5067 28.4398L70.113 30.5774ZM70.3098 27.967V29.5086H64.3098V27.967H70.3098ZM70.3098 26.0401V27.967H64.3098V26.0401H70.3098ZM69.6549 23.5637L70.1604 25.1053L64.4592 26.975L63.9537 25.4334L69.6549 23.5637ZM68.2002 21.0156L69.3692 22.9426L64.2394 26.0546L63.0704 24.1276L68.2002 21.0156ZM66.548 19.4592L67.5105 20.2299L63.7601 24.9133L62.7976 24.1425L66.548 19.4592ZM67.5387 23.6912L66.0578 24.462L63.2877 19.1397L64.7686 18.3689L67.5387 23.6912ZM68.9739 22.7554L67.8178 23.5262L64.4896 18.5339L65.6457 17.7631L68.9739 22.7554ZM70.2019 21.6099L69.4311 22.3807L65.1885 18.1379L65.9593 17.3672L70.2019 21.6099ZM70.9727 20.8391L70.202 21.6098L65.9593 17.3672L66.7301 16.5964L70.9727 20.8391ZM72.4076 18.9762L71.2514 20.5177L66.4514 16.9178L67.6075 15.3762L72.4076 18.9762ZM73.5637 16.3634L72.793 18.2904L67.2221 16.062L67.9929 14.1351L73.5637 16.3634ZM74.1405 12.5383L73.7551 15.6214L67.8015 14.8772L68.1869 11.7941L74.1405 12.5383ZM74.5083 10.3471L74.1229 12.6594L68.2045 11.6729L68.5899 9.36062L74.5083 10.3471ZM72.8876 13.181L70.9607 12.7956L72.1375 6.91211L74.0644 7.29751L72.8876 13.181ZM75.7883 13.2392L73.476 13.2392V7.23924L75.7883 7.23924V13.2392ZM78.0575 12.7643L76.5159 13.1497L75.0607 7.32882L76.6023 6.94342L78.0575 12.7643ZM80.213 11.7664L78.6715 12.5371L75.9883 7.17055L77.5298 6.39981L80.213 11.7664ZM81.7091 10.6545L80.746 11.4254L76.9969 6.74087L77.96 5.97006L81.7091 10.6545ZM83.1358 9.43421L81.7866 10.5903L77.8825 6.03426L79.2317 4.87813L83.1358 9.43421ZM84.4507 7.66416L83.6799 8.82032L78.6876 5.49203L79.4584 4.33587L84.4507 7.66416ZM81.4466 9.26694L80.2905 8.49616L83.6187 3.50386L84.7748 4.27464L81.4466 9.26694ZM29.9525 37.2509L32.6502 39.5632L28.7454 44.1187L26.0477 41.8064L29.9525 37.2509ZM31.8796 41.1299L29.1819 42.2861L26.8183 36.7712L29.5161 35.615L31.8796 41.1299ZM34.0394 39.6163L32.4978 40.7725L28.8978 35.9725L30.4394 34.8163L34.0394 39.6163ZM36.0404 38.0174L34.1134 39.5589L30.3653 34.8737L32.2922 33.3322L36.0404 38.0174ZM38.3126 34.4655L36.771 37.1632L31.5616 34.1863L33.1031 31.4886L38.3126 34.4655ZM39.71 30.4572L38.5539 33.9257L32.8618 32.0284L34.0179 28.5599L39.71 30.4572ZM37.818 33.8767L35.1203 31.9498L38.6077 27.0674L41.3054 28.9943L37.818 33.8767ZM40.9003 34.7627L38.9733 34.3772L40.1501 28.4938L42.0771 28.8792L40.9003 34.7627ZM44.004 34.3772L42.0771 34.7627L40.9003 28.8792L42.8272 28.4938L44.004 34.3772ZM46.4567 33.4502L44.5298 34.2209L42.3014 28.6501L44.2284 27.8793L46.4567 33.4502ZM48.813 32.081L46.886 33.2372L43.799 28.0923L45.726 26.9361L48.813 32.081ZM51.0705 30.3096L49.1436 31.8512L45.3954 27.166L47.3223 25.6244L51.0705 30.3096ZM47.1818 31.0081L46.411 29.0812L51.9818 26.8528L52.7526 28.7798L47.1818 31.0081ZM49.1661 33.695L47.6245 31.768L52.3098 28.0199L53.8513 29.9469L49.1661 33.695ZM50.2649 35.1625L49.1087 33.6209L53.9087 30.021L55.0649 31.5626L50.2649 35.1625ZM52.7177 37.2467L50.7908 35.7051L54.539 31.0199L56.4659 32.5615L52.7177 37.2467ZM56.9041 37.9041L54.5918 37.9041L54.5918 31.9041L56.9041 31.9041L56.9041 37.9041ZM60.758 37.9041L56.9041 37.9041L56.9041 31.9041L60.758 31.9041L60.758 37.9041ZM62.6852 37.9039L60.7582 37.9041L60.7578 31.9041L62.6848 31.9039L62.6852 37.9039ZM60.0781 40.5132L59.6926 35.1177L65.6773 34.6902L66.0628 40.0856L60.0781 40.5132ZM61.5289 37.2994H63.0704V43.2994H61.5289V37.2994ZM59.2597 37.7744L60.8012 37.389L62.2566 43.2098L60.715 43.5952L59.2597 37.7744ZM57.1042 38.7722L58.6458 38.0015L61.3288 43.3682L59.7872 44.1389L57.1042 38.7722ZM55.4046 39.441L57.3314 38.6702L59.56 44.241L57.6331 45.0118L55.4046 39.441ZM53.2414 41.2612L54.3975 40.1051L58.6402 44.3477L57.484 45.5039L53.2414 41.2612ZM52.0852 42.4174L53.2414 41.2612L57.484 45.5039L56.3279 46.66L52.0852 42.4174ZM50.6504 44.2803L51.8065 42.7387L56.6065 46.3387L55.4504 47.8803L50.6504 44.2803ZM49.8189 46.2875L50.2044 45.1313L55.8963 47.0292L55.5109 48.1853L49.8189 46.2875ZM49.1087 48.0491L49.8795 46.1222L55.4503 48.3505L54.6795 50.2775L49.1087 48.0491ZM48.5983 49.9774L48.9837 48.4357L54.8045 49.8909L54.4191 51.4325L48.5983 49.9774ZM48.1816 52.0435L48.567 50.1166L54.4505 51.2933L54.0651 53.2202L48.1816 52.0435ZM48.8542 50.1068L50.3958 49.7214L51.8509 55.5423L50.3094 55.9276L48.8542 50.1068ZM47.3126 50.4921L48.8542 50.1068L50.3094 55.9276L48.7678 56.313L47.3126 50.4921ZM45.22 51.6772L46.3761 50.9064L49.7043 55.8987L48.5482 56.6695L45.22 51.6772ZM44.0638 52.448L45.22 51.6772L48.5482 56.6695L47.392 57.4403L44.0638 52.448ZM46.529 51.1431L48.0705 53.07L43.3853 56.8182L41.8438 54.8913L46.529 51.1431ZM44.1335 49.133L46.0605 50.6746L42.3123 55.3598L40.3853 53.8182L44.1335 49.133ZM41.4455 48.1798L42.987 48.5652L41.5318 54.3861L39.9903 54.0007L41.4455 48.1798ZM39.3792 47.7632L41.3061 48.1485L40.1297 54.032L38.2027 53.6467L39.3792 47.7632ZM36.864 47.705H38.7909V53.705H36.864V47.705ZM34.595 48.1798L36.1365 47.7945L37.5914 53.6154L36.0499 54.0007L34.595 48.1798ZM33.0533 48.5652L34.5948 48.1798L36.0501 54.0007L34.5085 54.3861L33.0533 48.5652ZM36.7809 47.2364V51.4756H30.7809V47.2364H36.7809ZM35.8562 43.9754L36.627 46.2877L30.9349 48.1851L30.1641 45.8727L35.8562 43.9754ZM34.9226 42.0409L35.6934 43.5824L30.3269 46.2657L29.5561 44.7242L34.9226 42.0409ZM32.8191 39.7196L34.3607 41.2612L30.118 45.5038L28.5765 43.9623L32.8191 39.7196Z" fill="#567C4A" mask="url(#path-24-outside-2_152_41)"/>
<path d="M34.3839 42.843L36.3651 42.4754L38.7591 42.3739L41.1532 42.2725L43.5472 42.171L46.3542 42.3357L49.1611 42.5004L52.0673 43.058L56.113 44.0212" stroke="#A6ECB5" stroke-width="2" stroke-linecap="round"/>
<path d="M50.1652 32.9771L50.7664 36.2799L51.1792 39.5826L50.7664 42.8854L48.2893 45.3625L45.7138 47.2535L42.9651 49.2576" stroke="#A6ECB5" stroke-width="2" stroke-linecap="round"/>
<path d="M40.0322 34.2156L41.2708 36.6927L42.0943 39.5826L41.6814 42.8854L40.0322 44.5368L37.968 46.601L35.4909 48.2524" stroke="#A6ECB5" stroke-width="2" stroke-linecap="round"/>
<path d="M83.4959 10.1236L83.1105 12.436L82.3397 15.1337L81.5689 17.8314L80.7981 20.5291L79.642 23.6122L78.4858 26.6953L76.9443 29.7784L74.6319 34.0176" stroke="#A6ECB5" stroke-width="2" stroke-linecap="round"/>
<path d="M91.5891 17.0606L88.1206 17.446L84.2668 17.446L81.569 17.446L79.2567 16.2898L76.1736 13.9775L73.9781 11.6833" stroke="#A6ECB5" stroke-width="2" stroke-linecap="round"/>
<path d="M90.8184 27.4661L87.3499 28.0388L85.0376 28.0388L81.9545 28.0388L79.2567 27.8515L76.559 27.0807L75.0175 26.3099L73.0905 24.7684L71.549 23.2268L70.0075 21.6853" stroke="#A6ECB5" stroke-width="2" stroke-linecap="round"/>
</svg>
