<svg width="211" height="232" viewBox="0 0 211 232" fill="none" xmlns="http://www.w3.org/2000/svg">
<mask id="path-1-outside-1_148_562" maskUnits="userSpaceOnUse" x="30" y="47" width="173" height="174" fill="black">
<rect fill="white" x="30" y="47" width="173" height="174"/>
<path fill-rule="evenodd" clip-rule="evenodd" d="M113.845 216.604C141.16 220.187 195.744 224.17 186.017 150.262L187.98 145.673L196.791 119.728L198.269 115.008L199.808 107.778C199.989 106.925 200.097 106.058 200.13 105.186L200.231 102.502C200.34 99.6253 199.147 96.8526 196.983 94.9533C195.483 93.6358 193.607 92.8211 191.62 92.6234L190.659 92.5278C187.046 92.1684 183.481 93.573 181.085 96.3004C180.085 97.4381 179.325 98.7656 178.85 100.204L178.635 100.855L178.281 102.317C177.908 103.858 177.72 105.437 177.72 107.023V111.104C177.661 111.572 177.581 112.037 177.48 112.496C166.378 71.7916 159.265 46.3051 99.924 49.2273C45.6692 58.4224 46.305 105.153 53.3027 136.46C53.1816 136.672 53.081 136.897 53.0031 137.131C52.8983 137.445 52.7521 137.744 52.5684 138.019L51.8452 139.104L48.8452 143.604L46.6408 147.278C46.1112 148.161 45.5142 149.001 44.8553 149.792L43.3452 151.604L40.8452 154.604L38.3452 157.104L35.3452 160.104C30.5736 164.745 30.959 172.52 36.1662 176.665L36.6491 177.05C37.1125 177.419 37.6035 177.752 38.1178 178.046L39.9393 179.086C40.5422 179.431 41.1719 179.727 41.8222 179.971L42.5903 180.259C46.4605 181.71 50.8112 180.985 54.0019 178.357L55.9703 176.736C50.2936 221.017 84.2954 218.403 103.701 216.91C107.991 216.581 111.568 216.306 113.845 216.604Z"/>
</mask>
<path fill-rule="evenodd" clip-rule="evenodd" d="M113.845 216.604C141.16 220.187 195.744 224.17 186.017 150.262L187.98 145.673L196.791 119.728L198.269 115.008L199.808 107.778C199.989 106.925 200.097 106.058 200.13 105.186L200.231 102.502C200.34 99.6253 199.147 96.8526 196.983 94.9533C195.483 93.6358 193.607 92.8211 191.62 92.6234L190.659 92.5278C187.046 92.1684 183.481 93.573 181.085 96.3004C180.085 97.4381 179.325 98.7656 178.85 100.204L178.635 100.855L178.281 102.317C177.908 103.858 177.72 105.437 177.72 107.023V111.104C177.661 111.572 177.581 112.037 177.48 112.496C166.378 71.7916 159.265 46.3051 99.924 49.2273C45.6692 58.4224 46.305 105.153 53.3027 136.46C53.1816 136.672 53.081 136.897 53.0031 137.131C52.8983 137.445 52.7521 137.744 52.5684 138.019L51.8452 139.104L48.8452 143.604L46.6408 147.278C46.1112 148.161 45.5142 149.001 44.8553 149.792L43.3452 151.604L40.8452 154.604L38.3452 157.104L35.3452 160.104C30.5736 164.745 30.959 172.52 36.1662 176.665L36.6491 177.05C37.1125 177.419 37.6035 177.752 38.1178 178.046L39.9393 179.086C40.5422 179.431 41.1719 179.727 41.8222 179.971L42.5903 180.259C46.4605 181.71 50.8112 180.985 54.0019 178.357L55.9703 176.736C50.2936 221.017 84.2954 218.403 103.701 216.91C107.991 216.581 111.568 216.306 113.845 216.604Z" fill="#4792CC"/>
<path d="M186.017 150.262L184.178 149.476L183.963 149.98L184.034 150.523L186.017 150.262ZM113.845 216.604L113.585 218.587L113.845 216.604ZM187.98 145.673L189.819 146.459L189.849 146.389L189.873 146.316L187.98 145.673ZM196.791 119.728L198.685 120.371L198.693 120.349L198.7 120.326L196.791 119.728ZM198.269 115.008L200.178 115.606L200.206 115.516L200.226 115.424L198.269 115.008ZM199.808 107.778L197.852 107.362L199.808 107.778ZM200.13 105.186L202.129 105.262V105.262L200.13 105.186ZM200.231 102.502L198.233 102.427V102.427L200.231 102.502ZM196.983 94.9533L195.664 96.4563V96.4563L196.983 94.9533ZM191.62 92.6234L191.422 94.6136L191.62 92.6234ZM190.659 92.5278L190.461 94.518L190.659 92.5278ZM181.085 96.3004L179.582 94.9802V94.9802L181.085 96.3004ZM178.85 100.204L176.951 99.5768V99.5768L178.85 100.204ZM178.635 100.855L176.736 100.228L176.71 100.306L176.691 100.385L178.635 100.855ZM178.281 102.317L180.225 102.788L178.281 102.317ZM177.72 111.104L179.704 111.352L179.72 111.229V111.104H177.72ZM177.48 112.496L175.551 113.022L179.433 112.926L177.48 112.496ZM99.924 49.2273L99.8256 47.2297L99.7069 47.2355L99.5898 47.2554L99.924 49.2273ZM53.3027 136.46L55.0393 137.452L55.4235 136.78L55.2546 136.024L53.3027 136.46ZM53.0031 137.131L51.1057 136.498L51.1057 136.498L53.0031 137.131ZM52.5684 138.019L50.9043 136.91L50.9043 136.91L52.5684 138.019ZM51.8452 139.104L53.5093 140.214L53.5094 140.214L51.8452 139.104ZM48.8452 143.604L47.1811 142.495L47.1547 142.534L47.1303 142.575L48.8452 143.604ZM46.6408 147.278L48.3558 148.307L48.3558 148.307L46.6408 147.278ZM44.8553 149.792L43.3188 148.512H43.3188L44.8553 149.792ZM43.3452 151.604L41.8088 150.324L41.8087 150.324L43.3452 151.604ZM40.8452 154.604L42.2594 156.018L42.3236 155.954L42.3816 155.885L40.8452 154.604ZM38.3452 157.104L39.7594 158.518L38.3452 157.104ZM35.3452 160.104L36.7396 161.538L36.7495 161.528L36.7594 161.518L35.3452 160.104ZM36.1662 176.665L37.412 175.101L37.4119 175.101L36.1662 176.665ZM36.6491 177.05L35.4033 178.615L35.4034 178.615L36.6491 177.05ZM38.1178 178.046L37.1255 179.782H37.1255L38.1178 178.046ZM39.9393 179.086L38.947 180.823L38.947 180.823L39.9393 179.086ZM41.8222 179.971L41.1199 181.843V181.843L41.8222 179.971ZM42.5903 180.259L43.2925 178.386L42.5903 180.259ZM54.0019 178.357L52.7305 176.814H52.7305L54.0019 178.357ZM55.9703 176.736L57.9541 176.991L58.596 171.983L54.6989 175.193L55.9703 176.736ZM103.701 216.91L103.548 214.916L103.701 216.91ZM184.034 150.523C186.437 168.782 184.836 182.006 180.84 191.539C176.865 201.022 170.462 206.996 162.939 210.697C147.705 218.192 127.814 216.419 114.105 214.621L113.585 218.587C127.191 220.372 148.249 222.382 164.704 214.286C173.025 210.193 180.152 203.529 184.529 193.085C188.886 182.69 190.46 168.696 188 150.001L184.034 150.523ZM186.141 144.887L184.178 149.476L187.856 151.049L189.819 146.459L186.141 144.887ZM194.897 119.085L186.086 145.03L189.873 146.316L198.685 120.371L194.897 119.085ZM196.361 114.41L194.882 119.13L198.7 120.326L200.178 115.606L196.361 114.41ZM197.852 107.362L196.313 114.592L200.226 115.424L201.764 108.195L197.852 107.362ZM198.131 105.111C198.103 105.868 198.009 106.621 197.852 107.362L201.764 108.195C201.969 107.229 202.091 106.248 202.129 105.262L198.131 105.111ZM198.233 102.427L198.131 105.111L202.129 105.262L202.23 102.578L198.233 102.427ZM195.664 96.4563C197.375 97.9585 198.319 100.151 198.233 102.427L202.23 102.578C202.361 99.0992 200.919 95.7467 198.303 93.4503L195.664 96.4563ZM191.422 94.6136C192.994 94.7699 194.477 95.4143 195.664 96.4563L198.303 93.4503C196.488 91.8573 194.221 90.8722 191.818 90.6332L191.422 94.6136ZM190.461 94.518L191.422 94.6136L191.818 90.6332L190.857 90.5376L190.461 94.518ZM182.587 97.6206C184.558 95.3776 187.49 94.2224 190.461 94.518L190.857 90.5376C186.602 90.1144 182.405 91.7684 179.582 94.9802L182.587 97.6206ZM180.749 100.831C181.14 99.648 181.765 98.5562 182.587 97.6206L179.582 94.9802C178.405 96.3199 177.51 97.8833 176.951 99.5768L180.749 100.831ZM180.534 101.482L180.749 100.831L176.951 99.5768L176.736 100.228L180.534 101.482ZM180.225 102.788L180.579 101.326L176.691 100.385L176.337 101.847L180.225 102.788ZM179.72 107.023C179.72 105.596 179.889 104.174 180.225 102.788L176.337 101.847C175.927 103.541 175.72 105.279 175.72 107.023H179.72ZM179.72 111.104V107.023H175.72V111.104H179.72ZM179.433 112.926C179.548 112.407 179.638 111.881 179.704 111.352L175.735 110.856C175.684 111.263 175.615 111.667 175.527 112.066L179.433 112.926ZM100.022 51.2248C129.446 49.7759 145.346 55.4011 155.345 65.8822C165.506 76.5344 169.957 92.5124 175.551 113.022L179.41 111.97C173.902 91.7752 169.244 74.6576 158.239 63.1211C147.07 51.4134 129.743 45.7564 99.8256 47.2297L100.022 51.2248ZM55.2546 136.024C51.7832 120.493 49.967 101.422 55.5353 85.2009C58.3064 77.1283 62.9013 69.7735 70.0404 63.8759C77.1838 57.9747 86.9742 53.4505 100.258 51.1991L99.5898 47.2554C85.7463 49.6016 75.2707 54.3668 67.4928 60.792C59.7107 67.2209 54.7291 75.2294 51.752 83.9022C45.8239 101.172 47.8245 121.12 51.3509 136.897L55.2546 136.024ZM54.9004 137.763C54.9366 137.655 54.9832 137.551 55.0393 137.452L51.5662 135.468C51.38 135.794 51.2254 136.139 51.1057 136.498L54.9004 137.763ZM54.2325 139.129C54.5149 138.705 54.7395 138.246 54.9004 137.763L51.1057 136.498C51.0571 136.644 50.9894 136.782 50.9043 136.91L54.2325 139.129ZM53.5094 140.214L54.2325 139.129L50.9043 136.91L50.1811 137.995L53.5094 140.214ZM50.5093 144.714L53.5093 140.214L50.1811 137.995L47.1811 142.495L50.5093 144.714ZM48.3558 148.307L50.5602 144.633L47.1303 142.575L44.9258 146.249L48.3558 148.307ZM46.3917 151.072C47.1166 150.203 47.7732 149.278 48.3558 148.307L44.9258 146.249C44.4492 147.044 43.9119 147.8 43.3188 148.512L46.3917 151.072ZM44.8816 152.885L46.3917 151.072L43.3188 148.512L41.8088 150.324L44.8816 152.885ZM42.3816 155.885L44.8816 152.885L41.8087 150.324L39.3087 153.324L42.3816 155.885ZM39.7594 158.518L42.2594 156.018L39.431 153.19L36.931 155.69L39.7594 158.518ZM36.7594 161.518L39.7594 158.518L36.931 155.69L33.931 158.69L36.7594 161.518ZM37.4119 175.101C33.1475 171.706 32.8318 165.338 36.7396 161.538L33.9508 158.67C28.3153 164.151 28.7705 173.334 34.9205 178.23L37.4119 175.101ZM37.8948 175.485L37.412 175.101L34.9205 178.23L35.4033 178.615L37.8948 175.485ZM39.1101 176.309C38.6845 176.066 38.2782 175.791 37.8948 175.485L35.4034 178.615C35.9467 179.047 36.5224 179.438 37.1255 179.782L39.1101 176.309ZM40.9315 177.35L39.11 176.309L37.1255 179.782L38.947 180.823L40.9315 177.35ZM42.5244 178.098C41.9743 177.892 41.4416 177.641 40.9315 177.35L38.947 180.823C39.6429 181.221 40.3695 181.562 41.1199 181.843L42.5244 178.098ZM43.2925 178.386L42.5244 178.098L41.1199 181.843L41.888 182.131L43.2925 178.386ZM52.7305 176.814C50.0916 178.987 46.4934 179.586 43.2925 178.386L41.888 182.131C46.4277 183.834 51.5308 182.983 55.2733 179.901L52.7305 176.814ZM54.6989 175.193L52.7305 176.814L55.2733 179.901L57.2417 178.28L54.6989 175.193ZM103.548 214.916C93.7123 215.673 80.9217 216.609 71.2649 212.171C66.538 209.999 62.5967 206.546 60.127 201.081C57.636 195.568 56.5641 187.833 57.9541 176.991L53.9865 176.482C52.5382 187.78 53.5878 196.323 56.4819 202.728C59.3974 209.18 64.1051 213.283 69.5947 215.805C80.371 220.758 94.2841 219.64 103.854 218.905L103.548 214.916ZM114.105 214.621C111.568 214.289 107.729 214.595 103.548 214.916L103.854 218.905C108.253 218.566 111.567 218.323 113.585 218.587L114.105 214.621Z" fill="black" mask="url(#path-1-outside-1_148_562)"/>
<path d="M133.376 217.992C151.59 220.269 166.277 215.982 175.916 207.371C185.567 198.749 190.031 185.904 187.99 171.361C186.077 157.731 178.967 144.275 169.088 134.972C159.231 125.691 146.506 120.454 133.369 123.504C117.225 124.027 105.713 129.08 98.2491 137.566C90.7844 146.053 87.5 157.823 87.5 171.5C87.5 175.79 87.4834 179.682 87.4683 183.213C87.4286 192.505 87.3996 199.286 87.713 204.188C87.9293 207.571 88.3125 210.158 89.0088 212.101C89.7182 214.081 90.7737 215.449 92.3369 216.294C93.8497 217.112 95.7232 217.374 97.9282 217.419C99.7659 217.455 101.945 217.339 104.478 217.204C104.99 217.177 105.517 217.149 106.059 217.121C112.524 216.789 121.333 216.487 133.376 217.992Z" fill="#F2F2F2" stroke="black" stroke-width="2"/>
<mask id="path-4-inside-2_148_562" fill="white">
<path fill-rule="evenodd" clip-rule="evenodd" d="M90.4637 223.244C101.756 218.971 105.701 199.585 100.464 185.744C96.4208 175.059 86.4039 164.781 79.0554 175.599C78.8715 175.87 78.6784 176.133 78.4769 176.388C78.3828 176.262 78.2854 176.138 78.1847 176.017C75.4051 172.664 70.6398 171.75 66.817 173.836L64.4781 175.113C60.8856 177.074 58.9294 181.095 59.6041 185.132C59.6077 185.153 59.6113 185.174 59.615 185.195C59.1875 185.287 58.7642 185.378 58.3463 185.466C51.6663 186.882 49.1266 195.424 52.4637 204.244C57.701 218.085 79.1716 227.516 90.4637 223.244Z"/>
</mask>
<path fill-rule="evenodd" clip-rule="evenodd" d="M90.4637 223.244C101.756 218.971 105.701 199.585 100.464 185.744C96.4208 175.059 86.4039 164.781 79.0554 175.599C78.8715 175.87 78.6784 176.133 78.4769 176.388C78.3828 176.262 78.2854 176.138 78.1847 176.017C75.4051 172.664 70.6398 171.75 66.817 173.836L64.4781 175.113C60.8856 177.074 58.9294 181.095 59.6041 185.132C59.6077 185.153 59.6113 185.174 59.615 185.195C59.1875 185.287 58.7642 185.378 58.3463 185.466C51.6663 186.882 49.1266 195.424 52.4637 204.244C57.701 218.085 79.1716 227.516 90.4637 223.244Z" fill="#E5C743"/>
<path d="M100.464 185.744L102.334 185.036V185.036L100.464 185.744ZM90.4637 223.244L91.1715 225.114L90.4637 223.244ZM79.0554 175.599L77.401 174.475L77.401 174.475L79.0554 175.599ZM78.4769 176.388L76.8729 177.583L78.4309 179.674L80.0467 177.627L78.4769 176.388ZM78.1847 176.017L76.645 177.293L76.645 177.293L78.1847 176.017ZM66.817 173.836L67.7752 175.592H67.7752L66.817 173.836ZM64.4781 175.113L63.5199 173.357V173.357L64.4781 175.113ZM59.6041 185.132L57.6315 185.461L57.6315 185.461L59.6041 185.132ZM59.615 185.195L60.0373 187.15L61.9146 186.744L61.5853 184.852L59.615 185.195ZM58.3463 185.466L57.9315 183.51H57.9315L58.3463 185.466ZM52.4637 204.244L50.5931 204.951H50.5931L52.4637 204.244ZM98.5931 186.451C101.058 192.966 101.374 200.857 99.7198 207.606C98.0499 214.417 94.5179 219.571 89.756 221.373L91.1715 225.114C97.7017 222.643 101.788 215.968 103.605 208.558C105.437 201.085 105.107 192.363 102.334 185.036L98.5931 186.451ZM80.7098 176.723C82.3501 174.308 83.9468 173.343 85.3092 173.082C86.6835 172.818 88.227 173.191 89.9093 174.285C93.3466 176.518 96.6535 181.325 98.5931 186.451L102.334 185.036C100.231 179.477 96.508 173.803 92.089 170.931C89.8432 169.471 87.2519 168.636 84.555 169.153C81.8461 169.674 79.435 171.481 77.401 174.475L80.7098 176.723ZM80.0467 177.627C80.2773 177.335 80.4986 177.034 80.7098 176.723L77.401 174.475C77.2444 174.706 77.0796 174.93 76.907 175.149L80.0467 177.627ZM76.645 177.293C76.7235 177.388 76.7995 177.484 76.8729 177.583L80.0808 175.193C79.966 175.039 79.8472 174.888 79.7244 174.74L76.645 177.293ZM67.7752 175.592C70.758 173.964 74.4762 174.677 76.645 177.293L79.7244 174.74C76.334 170.65 70.5216 169.536 65.8588 172.081L67.7752 175.592ZM65.4363 176.868L67.7752 175.592L65.8588 172.081L63.5199 173.357L65.4363 176.868ZM61.5768 184.802C61.0425 181.605 62.5915 178.421 65.4363 176.868L63.5199 173.357C59.1797 175.726 56.8163 180.584 57.6315 185.461L61.5768 184.802ZM61.5853 184.852C61.5824 184.835 61.5795 184.818 61.5768 184.802L57.6315 185.461C57.6358 185.487 57.6402 185.513 57.6446 185.538L61.5853 184.852ZM58.761 187.423C59.18 187.334 59.6061 187.243 60.0373 187.15L59.1927 183.24C58.7688 183.332 58.3484 183.421 57.9315 183.51L58.761 187.423ZM54.3343 203.536C52.7918 199.459 52.6619 195.581 53.5598 192.668C54.4469 189.79 56.2774 187.949 58.761 187.423L57.9315 183.51C53.7352 184.399 50.9559 187.537 49.7373 191.489C48.5297 195.407 48.7985 200.209 50.5931 204.951L54.3343 203.536ZM89.756 221.373C84.8443 223.232 77.2657 222.179 70.0558 218.732C62.8878 215.305 56.7053 209.802 54.3343 203.536L50.5931 204.951C53.4594 212.527 60.6309 218.66 68.3305 222.341C75.9883 226.002 84.791 227.529 91.1715 225.114L89.756 221.373Z" fill="black" mask="url(#path-4-inside-2_148_562)"/>
<path d="M154.593 218.837L154.676 218.828L154.755 218.806L157.685 217.991L157.761 217.97L157.832 217.937L160.696 216.631L168.009 213.551L168.075 213.523L168.136 213.486L174.646 209.565L174.727 209.516L174.797 209.453L178.282 206.328L181.343 207.859C182.018 209.43 183.263 210.685 184.824 211.373L187.438 213.908L188.981 215.952L189.226 218.248L187.858 219.942L185.252 221.131L182.879 221.875L182.856 221.882L182.834 221.89L180.898 222.599L180.795 222.637L180.702 222.696L178.82 223.903L178.787 223.923L178.757 223.946L176.535 225.624L173.413 226.887L170.233 227.226L167.303 226.585L167.242 226.571L167.18 226.566L164.641 226.333L164.542 226.324L164.444 226.335L161.461 226.653L161.338 226.666L161.223 226.708L159.287 227.418L159.251 227.431L159.216 227.447L156.487 228.692L151.88 229.183L148.583 228.168L144.98 225.69L142.336 223.127L140.711 220.317L143.158 220.056L147.136 219.632L154.593 218.837Z" fill="#E4C843" stroke="black" stroke-width="2"/>
<mask id="path-7-inside-3_148_562" fill="white">
<path fill-rule="evenodd" clip-rule="evenodd" d="M134.937 146.95L133.568 146.867L132.071 146.775L131.808 146.759C131.011 146.711 130.221 146.944 129.578 147.417C129.198 147.696 128.881 148.051 128.645 148.458L128.585 148.563C128.49 148.726 128.384 148.883 128.268 149.031L127.686 149.772C127.539 149.958 127.407 150.154 127.288 150.359L126.525 151.68C126.406 151.885 126.274 152.081 126.127 152.267L125.37 153.231L124.895 153.836C124.563 154.259 124.165 154.625 123.716 154.921L122.724 155.575C122.179 155.934 121.541 156.124 120.889 156.121L120.53 156.119C120.235 156.118 119.94 156.087 119.651 156.028L119.498 155.996C118.97 155.888 118.463 155.695 117.997 155.425L117.05 154.877L116.008 154.086C115.746 153.887 115.504 153.663 115.286 153.417L114.536 152.57C114.318 152.323 114.125 152.055 113.959 151.771L113.529 151.032C113.377 150.772 113.25 150.498 113.147 150.215L112.36 148.035L111.677 146.09L111.268 144.563L111.033 143.682C110.918 143.253 110.861 142.81 110.863 142.366L110.869 141.233L110.92 140.401C110.937 140.12 110.989 139.842 111.076 139.575L111.095 139.518C111.316 138.834 111.764 138.247 112.364 137.851C112.58 137.708 112.813 137.593 113.057 137.507L114.634 136.952L116.162 136.544L117.042 136.308C117.471 136.194 117.914 136.137 118.359 136.139L119.492 136.144L120.882 136.229L122.199 136.155L123.696 136.246L124.694 136.307L124.839 136.316C125.712 136.369 126.539 136.729 127.173 137.332C127.382 137.53 127.567 137.752 127.725 137.994L127.909 138.276C128.013 138.435 128.091 138.61 128.14 138.794L128.196 139.002C128.362 139.624 128.908 140.071 129.55 140.11L131.2 140.21C131.421 139.989 131.576 139.705 131.64 139.39L131.903 138.11C132.083 137.236 132.542 136.444 133.21 135.852L133.239 135.826L134.298 134.889L135.357 133.952L136.416 133.014L137.104 132.405C137.351 132.187 137.619 131.994 137.903 131.828L138.455 131.507C138.839 131.283 139.251 131.112 139.68 130.997L140.561 130.762L142.089 130.354L143.777 130.04C144.002 129.998 144.23 129.984 144.458 129.998C145.197 130.043 145.888 130.38 146.379 130.934L146.55 131.127L147.159 131.816C147.377 132.062 147.571 132.33 147.736 132.614L148.057 133.166C148.281 133.55 148.452 133.962 148.567 134.391L148.802 135.272L149.21 136.8L149.474 138.221C149.549 138.623 149.574 139.033 149.55 139.441L149.435 141.322L149.313 143.318L149.229 144.7C149.204 145.108 149.129 145.511 149.006 145.901L148.571 147.28L148.353 147.823C148.108 148.431 147.725 148.973 147.235 149.407C147.026 149.591 146.801 149.755 146.56 149.894L146.228 150.088C145.664 150.416 145.016 150.57 144.365 150.53L143.179 150.458C142.643 150.425 142.115 150.306 141.616 150.106L140.902 149.818L139.765 149.361C139.546 149.272 139.333 149.168 139.128 149.05L137.808 148.286C137.603 148.168 137.39 148.064 137.17 147.975L136.363 147.65C136.143 147.562 135.93 147.458 135.726 147.34L135.588 147.26C135.379 147.139 135.161 147.036 134.937 146.95Z"/>
</mask>
<path fill-rule="evenodd" clip-rule="evenodd" d="M134.937 146.95L133.568 146.867L132.071 146.775L131.808 146.759C131.011 146.711 130.221 146.944 129.578 147.417C129.198 147.696 128.881 148.051 128.645 148.458L128.585 148.563C128.49 148.726 128.384 148.883 128.268 149.031L127.686 149.772C127.539 149.958 127.407 150.154 127.288 150.359L126.525 151.68C126.406 151.885 126.274 152.081 126.127 152.267L125.37 153.231L124.895 153.836C124.563 154.259 124.165 154.625 123.716 154.921L122.724 155.575C122.179 155.934 121.541 156.124 120.889 156.121L120.53 156.119C120.235 156.118 119.94 156.087 119.651 156.028L119.498 155.996C118.97 155.888 118.463 155.695 117.997 155.425L117.05 154.877L116.008 154.086C115.746 153.887 115.504 153.663 115.286 153.417L114.536 152.57C114.318 152.323 114.125 152.055 113.959 151.771L113.529 151.032C113.377 150.772 113.25 150.498 113.147 150.215L112.36 148.035L111.677 146.09L111.268 144.563L111.033 143.682C110.918 143.253 110.861 142.81 110.863 142.366L110.869 141.233L110.92 140.401C110.937 140.12 110.989 139.842 111.076 139.575L111.095 139.518C111.316 138.834 111.764 138.247 112.364 137.851C112.58 137.708 112.813 137.593 113.057 137.507L114.634 136.952L116.162 136.544L117.042 136.308C117.471 136.194 117.914 136.137 118.359 136.139L119.492 136.144L120.882 136.229L122.199 136.155L123.696 136.246L124.694 136.307L124.839 136.316C125.712 136.369 126.539 136.729 127.173 137.332C127.382 137.53 127.567 137.752 127.725 137.994L127.909 138.276C128.013 138.435 128.091 138.61 128.14 138.794L128.196 139.002C128.362 139.624 128.908 140.071 129.55 140.11L131.2 140.21C131.421 139.989 131.576 139.705 131.64 139.39L131.903 138.11C132.083 137.236 132.542 136.444 133.21 135.852L133.239 135.826L134.298 134.889L135.357 133.952L136.416 133.014L137.104 132.405C137.351 132.187 137.619 131.994 137.903 131.828L138.455 131.507C138.839 131.283 139.251 131.112 139.68 130.997L140.561 130.762L142.089 130.354L143.777 130.04C144.002 129.998 144.23 129.984 144.458 129.998C145.197 130.043 145.888 130.38 146.379 130.934L146.55 131.127L147.159 131.816C147.377 132.062 147.571 132.33 147.736 132.614L148.057 133.166C148.281 133.55 148.452 133.962 148.567 134.391L148.802 135.272L149.21 136.8L149.474 138.221C149.549 138.623 149.574 139.033 149.55 139.441L149.435 141.322L149.313 143.318L149.229 144.7C149.204 145.108 149.129 145.511 149.006 145.901L148.571 147.28L148.353 147.823C148.108 148.431 147.725 148.973 147.235 149.407C147.026 149.591 146.801 149.755 146.56 149.894L146.228 150.088C145.664 150.416 145.016 150.57 144.365 150.53L143.179 150.458C142.643 150.425 142.115 150.306 141.616 150.106L140.902 149.818L139.765 149.361C139.546 149.272 139.333 149.168 139.128 149.05L137.808 148.286C137.603 148.168 137.39 148.064 137.17 147.975L136.363 147.65C136.143 147.562 135.93 147.458 135.726 147.34L135.588 147.26C135.379 147.139 135.161 147.036 134.937 146.95Z" fill="#C73133"/>
<path d="M133.568 146.867L133.629 145.868L133.629 145.868L133.568 146.867ZM134.937 146.95L135.293 146.016L135.15 145.961L134.997 145.952L134.937 146.95ZM132.071 146.775L132.01 147.774L132.01 147.774L132.071 146.775ZM129.578 147.417L130.17 148.223L130.17 148.223L129.578 147.417ZM128.645 148.458L127.779 147.958L127.779 147.958L128.645 148.458ZM128.585 148.563L127.719 148.062L127.719 148.062L128.585 148.563ZM128.268 149.031L127.481 148.413L127.481 148.413L128.268 149.031ZM127.686 149.772L128.472 150.39L128.472 150.39L127.686 149.772ZM127.288 150.359L128.154 150.86L128.154 150.86L127.288 150.359ZM126.525 151.68L127.391 152.18L126.525 151.68ZM126.127 152.267L126.914 152.885L126.914 152.885L126.127 152.267ZM125.37 153.231L126.156 153.849L126.156 153.849L125.37 153.231ZM124.895 153.836L124.108 153.218L124.108 153.218L124.895 153.836ZM123.716 154.921L123.165 154.086L123.165 154.086L123.716 154.921ZM122.724 155.575L122.173 154.74L122.173 154.74L122.724 155.575ZM120.889 156.121L120.894 155.121L120.894 155.121L120.889 156.121ZM120.53 156.119L120.525 157.119L120.525 157.119L120.53 156.119ZM119.651 156.028L119.45 157.007L119.45 157.007L119.651 156.028ZM119.498 155.996L119.699 155.017L119.699 155.017L119.498 155.996ZM117.997 155.425L117.495 156.29L117.495 156.29L117.997 155.425ZM117.05 154.877L116.446 155.673L116.495 155.711L116.549 155.742L117.05 154.877ZM116.008 154.086L115.404 154.883L115.404 154.883L116.008 154.086ZM115.286 153.417L116.035 152.754L115.286 153.417ZM114.536 152.57L113.787 153.232L113.787 153.232L114.536 152.57ZM113.959 151.771L114.823 151.268L114.823 151.268L113.959 151.771ZM113.529 151.032L114.393 150.529L114.393 150.529L113.529 151.032ZM113.147 150.215L112.207 150.555L112.207 150.555L113.147 150.215ZM112.36 148.035L111.417 148.367L111.42 148.375L112.36 148.035ZM111.677 146.09L110.711 146.349L110.72 146.386L110.733 146.422L111.677 146.09ZM111.268 144.563L112.234 144.305L112.234 144.305L111.268 144.563ZM111.033 143.682L110.067 143.941L110.067 143.941L111.033 143.682ZM110.863 142.366L109.863 142.361L110.863 142.366ZM110.869 141.233L109.87 141.172L109.869 141.2L109.869 141.228L110.869 141.233ZM110.92 140.401L109.921 140.339L110.92 140.401ZM111.076 139.575L110.125 139.266L110.125 139.266L111.076 139.575ZM111.095 139.518L112.046 139.826L112.046 139.826L111.095 139.518ZM112.364 137.851L112.914 138.686L112.914 138.686L112.364 137.851ZM113.057 137.507L112.725 136.563L112.725 136.563L113.057 137.507ZM114.634 136.952L114.376 135.986L114.339 135.996L114.302 136.009L114.634 136.952ZM116.162 136.544L115.903 135.578L115.903 135.578L116.162 136.544ZM117.042 136.308L117.3 137.275L117.3 137.275L117.042 136.308ZM118.359 136.139L118.354 137.139L118.354 137.139L118.359 136.139ZM119.492 136.144L119.553 135.146L119.525 135.145L119.497 135.144L119.492 136.144ZM120.882 136.229L120.821 137.227L120.879 137.231L120.938 137.228L120.882 136.229ZM122.199 136.155L122.26 135.157L122.201 135.153L122.143 135.157L122.199 136.155ZM123.696 136.246L123.757 135.248L123.757 135.248L123.696 136.246ZM127.173 137.332L126.484 138.057L127.173 137.332ZM127.725 137.994L126.887 138.54L126.887 138.54L127.725 137.994ZM127.909 138.276L128.746 137.729L128.746 137.729L127.909 138.276ZM128.14 138.794L129.106 138.536L129.106 138.536L128.14 138.794ZM128.196 139.002L127.229 139.26L127.229 139.26L128.196 139.002ZM131.2 140.21L131.14 141.208L131.591 141.236L131.91 140.915L131.2 140.21ZM131.64 139.39L130.661 139.189L130.661 139.189L131.64 139.39ZM131.903 138.11L130.924 137.909L130.924 137.909L131.903 138.11ZM133.21 135.852L133.872 136.601L133.872 136.601L133.21 135.852ZM133.239 135.826L133.902 136.575L133.239 135.826ZM134.298 134.889L134.961 135.638L134.961 135.638L134.298 134.889ZM135.357 133.952L134.694 133.203L134.694 133.203L135.357 133.952ZM136.416 133.014L135.753 132.265L136.416 133.014ZM137.104 132.405L136.442 131.656L136.442 131.656L137.104 132.405ZM137.903 131.828L137.4 130.964L137.4 130.964L137.903 131.828ZM138.455 131.507L137.952 130.643L137.952 130.643L138.455 131.507ZM139.68 130.997L139.938 131.964L139.938 131.964L139.68 130.997ZM140.561 130.762L140.303 129.796L140.303 129.796L140.561 130.762ZM142.089 130.354L141.905 129.371L141.868 129.378L141.831 129.388L142.089 130.354ZM143.777 130.04L143.594 129.057L143.594 129.057L143.777 130.04ZM144.458 129.998L144.519 129L144.458 129.998ZM146.379 130.934L147.128 130.271L147.128 130.271L146.379 130.934ZM146.55 131.127L145.801 131.79L145.801 131.79L146.55 131.127ZM147.159 131.816L146.41 132.478L146.41 132.478L147.159 131.816ZM147.736 132.614L146.872 133.117L146.872 133.117L147.736 132.614ZM148.057 133.166L147.193 133.669L147.193 133.669L148.057 133.166ZM148.567 134.391L147.601 134.649L147.601 134.649L148.567 134.391ZM148.802 135.272L147.836 135.53L147.836 135.53L148.802 135.272ZM149.21 136.8L150.193 136.617L150.186 136.579L150.176 136.542L149.21 136.8ZM149.474 138.221L148.491 138.404L148.491 138.404L149.474 138.221ZM149.435 141.322L150.433 141.383L150.433 141.383L149.435 141.322ZM149.313 143.318L148.315 143.257L148.315 143.257L149.313 143.318ZM149.006 145.901L149.96 146.202L149.96 146.202L149.006 145.901ZM148.571 147.28L149.499 147.654L149.513 147.618L149.524 147.581L148.571 147.28ZM148.353 147.823L147.425 147.449L147.425 147.449L148.353 147.823ZM147.235 149.407L147.897 150.156L147.235 149.407ZM146.56 149.894L147.063 150.759L147.063 150.759L146.56 149.894ZM146.228 150.088L145.725 149.224L145.725 149.224L146.228 150.088ZM144.365 150.53L144.426 149.532L144.426 149.532L144.365 150.53ZM141.616 150.106L141.99 149.178L141.99 149.178L141.616 150.106ZM140.902 149.818L140.529 150.746L140.902 149.818ZM139.128 149.05L139.629 148.184L139.629 148.184L139.128 149.05ZM137.808 148.286L137.307 149.152L137.307 149.152L137.808 148.286ZM137.17 147.975L136.797 148.903L136.797 148.903L137.17 147.975ZM136.363 147.65L136.736 146.723L136.736 146.723L136.363 147.65ZM135.726 147.34L136.226 146.474L136.226 146.474L135.726 147.34ZM135.588 147.26L135.087 148.126L135.087 148.126L135.588 147.26ZM133.507 147.865L134.876 147.948L134.997 145.952L133.629 145.868L133.507 147.865ZM132.01 147.774L133.507 147.865L133.629 145.868L132.132 145.777L132.01 147.774ZM131.748 147.758L132.01 147.774L132.132 145.777L131.869 145.761L131.748 147.758ZM130.17 148.223C130.625 147.888 131.184 147.723 131.748 147.758L131.869 145.761C130.838 145.698 129.817 145.999 128.985 146.612L130.17 148.223ZM129.511 148.959C129.678 148.671 129.902 148.42 130.17 148.223L128.985 146.612C128.494 146.973 128.084 147.431 127.779 147.958L129.511 148.959ZM129.451 149.063L129.511 148.959L127.779 147.958L127.719 148.062L129.451 149.063ZM129.054 149.649C129.2 149.463 129.332 149.268 129.451 149.063L127.719 148.062C127.648 148.185 127.569 148.302 127.481 148.413L129.054 149.649ZM128.472 150.39L129.054 149.649L127.481 148.413L126.899 149.154L128.472 150.39ZM128.154 150.86C128.249 150.696 128.355 150.539 128.472 150.39L126.899 149.154C126.724 149.378 126.565 149.613 126.422 149.859L128.154 150.86ZM127.391 152.18L128.154 150.86L126.422 149.859L125.659 151.179L127.391 152.18ZM126.914 152.885C127.089 152.661 127.249 152.426 127.391 152.18L125.659 151.179C125.564 151.343 125.458 151.5 125.341 151.649L126.914 152.885ZM126.156 153.849L126.914 152.885L125.341 151.649L124.584 152.613L126.156 153.849ZM125.681 154.454L126.156 153.849L124.584 152.613L124.108 153.218L125.681 154.454ZM124.266 155.756C124.805 155.4 125.282 154.961 125.681 154.454L124.108 153.218C123.843 153.556 123.524 153.849 123.165 154.086L124.266 155.756ZM123.274 156.41L124.266 155.756L123.165 154.086L122.173 154.74L123.274 156.41ZM120.884 157.121C121.733 157.125 122.565 156.878 123.274 156.41L122.173 154.74C121.794 154.991 121.348 155.123 120.894 155.121L120.884 157.121ZM120.525 157.119L120.884 157.121L120.894 155.121L120.535 155.119L120.525 157.119ZM119.45 157.007C119.804 157.08 120.164 157.117 120.525 157.119L120.535 155.119C120.306 155.118 120.077 155.094 119.852 155.048L119.45 157.007ZM119.297 156.976L119.45 157.007L119.852 155.048L119.699 155.017L119.297 156.976ZM117.495 156.29C118.055 156.614 118.663 156.846 119.297 156.976L119.699 155.017C119.277 154.93 118.871 154.776 118.498 154.559L117.495 156.29ZM116.549 155.742L117.495 156.29L118.498 154.559L117.552 154.011L116.549 155.742ZM115.404 154.883L116.446 155.673L117.655 154.08L116.613 153.29L115.404 154.883ZM114.537 154.079C114.799 154.375 115.089 154.644 115.404 154.883L116.613 153.29C116.403 153.13 116.209 152.951 116.035 152.754L114.537 154.079ZM113.787 153.232L114.537 154.079L116.035 152.754L115.285 151.907L113.787 153.232ZM113.095 152.274C113.293 152.615 113.525 152.936 113.787 153.232L115.285 151.907C115.11 151.709 114.956 151.495 114.823 151.268L113.095 152.274ZM112.665 151.535L113.095 152.274L114.823 151.268L114.393 150.529L112.665 151.535ZM112.207 150.555C112.33 150.894 112.483 151.223 112.665 151.535L114.393 150.529C114.272 150.321 114.17 150.102 114.088 149.875L112.207 150.555ZM111.42 148.375L112.207 150.555L114.088 149.875L113.301 147.696L111.42 148.375ZM110.733 146.422L111.417 148.367L113.304 147.704L112.62 145.759L110.733 146.422ZM110.302 144.821L110.711 146.349L112.643 145.832L112.234 144.305L110.302 144.821ZM110.067 143.941L110.302 144.821L112.234 144.305L111.999 143.424L110.067 143.941ZM109.863 142.361C109.86 142.894 109.929 143.426 110.067 143.941L111.999 143.424C111.907 143.081 111.861 142.726 111.863 142.371L109.863 142.361ZM109.869 141.228L109.863 142.361L111.863 142.371L111.869 141.238L109.869 141.228ZM109.921 140.339L109.87 141.172L111.867 141.294L111.918 140.462L109.921 140.339ZM110.125 139.266C110.012 139.614 109.944 139.975 109.921 140.339L111.918 140.462C111.93 140.265 111.967 140.071 112.027 139.883L110.125 139.266ZM110.143 139.209L110.125 139.266L112.027 139.883L112.046 139.826L110.143 139.209ZM111.813 137.016C111.024 137.537 110.435 138.31 110.143 139.209L112.046 139.826C112.197 139.359 112.504 138.956 112.914 138.686L111.813 137.016ZM112.725 136.563C112.404 136.676 112.098 136.828 111.813 137.016L112.914 138.686C113.062 138.588 113.222 138.509 113.389 138.45L112.725 136.563ZM114.302 136.009L112.725 136.563L113.389 138.45L114.966 137.896L114.302 136.009ZM115.903 135.578L114.376 135.986L114.892 137.918L116.42 137.51L115.903 135.578ZM116.784 135.342L115.903 135.578L116.42 137.51L117.3 137.275L116.784 135.342ZM118.364 135.139C117.83 135.136 117.299 135.205 116.784 135.342L117.3 137.275C117.644 137.183 117.998 137.137 118.354 137.139L118.364 135.139ZM119.497 135.144L118.364 135.139L118.354 137.139L119.487 137.144L119.497 135.144ZM120.943 135.231L119.553 135.146L119.431 137.143L120.821 137.227L120.943 135.231ZM122.143 135.157L120.826 135.231L120.938 137.228L122.255 137.154L122.143 135.157ZM123.757 135.248L122.26 135.157L122.138 137.153L123.635 137.245L123.757 135.248ZM124.755 135.309L123.757 135.248L123.635 137.245L124.633 137.305L124.755 135.309ZM124.9 135.318L124.755 135.309L124.633 137.305L124.778 137.314L124.9 135.318ZM127.862 136.607C127.057 135.842 126.008 135.385 124.9 135.318L124.778 137.314C125.417 137.353 126.021 137.616 126.484 138.057L127.862 136.607ZM128.562 137.447C128.362 137.141 128.127 136.859 127.862 136.607L126.484 138.057C126.637 138.202 126.772 138.364 126.887 138.54L128.562 137.447ZM128.746 137.729L128.562 137.447L126.887 138.54L127.072 138.823L128.746 137.729ZM129.106 138.536C129.03 138.25 128.908 137.977 128.746 137.729L127.072 138.823C127.118 138.893 127.152 138.971 127.174 139.052L129.106 138.536ZM129.162 138.744L129.106 138.536L127.174 139.052L127.229 139.26L129.162 138.744ZM129.611 139.112C129.398 139.099 129.217 138.951 129.162 138.744L127.229 139.26C127.507 140.298 128.417 141.042 129.49 141.108L129.611 139.112ZM131.261 139.212L129.611 139.112L129.49 141.108L131.14 141.208L131.261 139.212ZM131.91 140.915C132.265 140.557 132.515 140.1 132.62 139.592L130.661 139.189C130.636 139.31 130.576 139.42 130.491 139.506L131.91 140.915ZM132.62 139.592L132.883 138.311L130.924 137.909L130.661 139.189L132.62 139.592ZM132.883 138.311C133.019 137.649 133.366 137.049 133.872 136.601L132.547 135.104C131.717 135.838 131.147 136.823 130.924 137.909L132.883 138.311ZM133.872 136.601L133.902 136.575L132.577 135.077L132.547 135.104L133.872 136.601ZM133.902 136.575L134.961 135.638L133.635 134.14L132.577 135.077L133.902 136.575ZM134.961 135.638L136.02 134.7L134.694 133.203L133.635 134.14L134.961 135.638ZM136.02 134.7L137.079 133.763L135.753 132.265L134.694 133.203L136.02 134.7ZM137.079 133.763L137.767 133.154L136.442 131.656L135.753 132.265L137.079 133.763ZM137.767 133.154C137.965 132.979 138.179 132.825 138.406 132.692L137.4 130.964C137.059 131.162 136.738 131.394 136.442 131.656L137.767 133.154ZM138.406 132.692L138.958 132.371L137.952 130.643L137.4 130.964L138.406 132.692ZM138.958 132.371C139.265 132.192 139.595 132.055 139.938 131.964L139.422 130.031C138.907 130.169 138.412 130.374 137.952 130.643L138.958 132.371ZM139.938 131.964L140.819 131.728L140.303 129.796L139.422 130.031L139.938 131.964ZM140.819 131.728L142.346 131.321L141.831 129.388L140.303 129.796L140.819 131.728ZM142.272 131.338L143.96 131.023L143.594 129.057L141.905 129.371L142.272 131.338ZM143.96 131.023C144.104 130.996 144.251 130.987 144.397 130.996L144.519 129C144.21 128.981 143.899 129 143.594 129.057L143.96 131.023ZM144.397 130.996C144.872 131.025 145.315 131.241 145.63 131.597L147.128 130.271C146.461 129.518 145.523 129.061 144.519 129L144.397 130.996ZM145.63 131.597L145.801 131.79L147.299 130.465L147.128 130.271L145.63 131.597ZM145.801 131.79L146.41 132.478L147.908 131.153L147.299 130.465L145.801 131.79ZM146.41 132.478C146.585 132.676 146.739 132.89 146.872 133.117L148.6 132.111C148.402 131.77 148.17 131.449 147.908 131.153L146.41 132.478ZM146.872 133.117L147.193 133.669L148.921 132.663L148.6 132.111L146.872 133.117ZM147.193 133.669C147.372 133.976 147.509 134.306 147.601 134.649L149.533 134.133C149.395 133.618 149.19 133.123 148.921 132.663L147.193 133.669ZM147.601 134.649L147.836 135.53L149.768 135.014L149.533 134.133L147.601 134.649ZM147.836 135.53L148.243 137.058L150.176 136.542L149.768 135.014L147.836 135.53ZM148.227 136.983L148.491 138.404L150.457 138.038L150.193 136.617L148.227 136.983ZM148.491 138.404C148.551 138.726 148.571 139.053 148.551 139.38L150.548 139.502C150.578 139.012 150.547 138.52 150.457 138.038L148.491 138.404ZM148.551 139.38L148.437 141.261L150.433 141.383L150.548 139.502L148.551 139.38ZM148.437 141.261L148.315 143.257L150.311 143.379L150.433 141.383L148.437 141.261ZM148.315 143.257L148.231 144.639L150.227 144.761L150.311 143.379L148.315 143.257ZM148.231 144.639C148.211 144.966 148.151 145.288 148.053 145.6L149.96 146.202C150.108 145.735 150.197 145.25 150.227 144.761L148.231 144.639ZM148.053 145.6L147.617 146.979L149.524 147.581L149.96 146.202L148.053 145.6ZM147.643 146.907L147.425 147.449L149.28 148.196L149.499 147.654L147.643 146.907ZM147.425 147.449C147.238 147.913 146.946 148.327 146.572 148.658L147.897 150.156C148.504 149.619 148.978 148.948 149.28 148.196L147.425 147.449ZM146.572 148.658C146.413 148.799 146.241 148.924 146.057 149.03L147.063 150.759C147.361 150.586 147.64 150.384 147.897 150.156L146.572 148.658ZM146.057 149.03L145.725 149.224L146.731 150.952L147.063 150.759L146.057 149.03ZM145.725 149.224C145.332 149.453 144.88 149.56 144.426 149.532L144.305 151.528C145.152 151.58 145.997 151.38 146.731 150.952L145.725 149.224ZM144.426 149.532L143.24 149.46L143.118 151.456L144.305 151.528L144.426 149.532ZM143.24 149.46C142.811 149.434 142.389 149.338 141.99 149.178L141.243 151.033C141.841 151.274 142.474 151.417 143.118 151.456L143.24 149.46ZM141.99 149.178L141.276 148.891L140.529 150.746L141.243 151.033L141.99 149.178ZM141.276 148.891L140.138 148.433L139.392 150.288L140.529 150.746L141.276 148.891ZM140.138 148.433C139.963 148.362 139.793 148.279 139.629 148.184L138.627 149.916C138.873 150.058 139.128 150.182 139.392 150.288L140.138 148.433ZM139.629 148.184L138.308 147.421L137.307 149.152L138.627 149.916L139.629 148.184ZM138.308 147.421C138.063 147.278 137.807 147.154 137.544 147.048L136.797 148.903C136.973 148.974 137.143 149.057 137.307 149.152L138.308 147.421ZM137.544 147.048L136.736 146.723L135.99 148.578L136.797 148.903L137.544 147.048ZM136.736 146.723C136.561 146.652 136.39 146.569 136.226 146.474L135.225 148.205C135.471 148.348 135.726 148.472 135.99 148.578L136.736 146.723ZM136.226 146.474L136.089 146.395L135.087 148.126L135.225 148.205L136.226 146.474ZM136.089 146.395C135.834 146.247 135.568 146.12 135.293 146.016L134.58 147.884C134.755 147.951 134.925 148.032 135.087 148.126L136.089 146.395Z" fill="black" mask="url(#path-7-inside-3_148_562)"/>
<circle cx="130.655" cy="143.042" r="3.63158" transform="rotate(-7.79376 130.655 143.042)" fill="#C73133" stroke="black"/>
<path d="M122.579 116.33C122.976 116.218 123.387 116.168 123.799 116.182L126.133 116.261L130.547 116.893L134.166 117.893C134.383 117.953 134.595 118.032 134.799 118.127L136.696 119.017L138.378 119.806C138.696 119.955 138.992 120.145 139.26 120.371L140.299 121.248C140.412 121.344 140.509 121.457 140.587 121.584C140.85 122.012 140.861 122.549 140.616 122.988L139.927 124.222C139.753 124.535 139.535 124.822 139.279 125.074L138.006 126.333C137.871 126.466 137.728 126.589 137.575 126.702L135.894 127.948L133.901 129.127C133.65 129.276 133.384 129.396 133.106 129.487L130.643 130.292L127.576 131.149C127.353 131.211 127.126 131.254 126.896 131.277L122.862 131.679L117.279 132.134C117.045 132.153 116.81 132.152 116.577 132.13L111.444 131.643C111.283 131.628 111.123 131.592 110.971 131.537L110.631 132.478L110.971 131.537C110.003 131.188 109.48 130.141 109.781 129.157L110.633 126.371C110.787 125.868 111.039 125.4 111.374 124.994L113.24 122.736L115.344 120.461C115.553 120.235 115.787 120.034 116.042 119.861L119.803 117.323C120.156 117.084 120.545 116.904 120.955 116.788L122.579 116.33Z" fill="#E3C94B" stroke="black" stroke-width="2"/>
<ellipse cx="104.879" cy="117.87" rx="2.41242" ry="3.69622" transform="rotate(-18.2783 104.879 117.87)" fill="#272017"/>
<ellipse cx="138.82" cy="110.539" rx="2.41242" ry="3.69622" transform="rotate(-13.0934 138.82 110.539)" fill="#272017"/>
<path d="M144 119L145.441 120.475" stroke="black" stroke-linecap="round"/>
<path d="M145 118L146.441 119.475" stroke="black" stroke-linecap="round"/>
<rect x="3.69734" y="164.062" width="40.9904" height="31.437" rx="4" transform="rotate(-15 3.69734 164.062)" fill="#F7CE26" stroke="#78522F" stroke-width="2"/>
<mask id="path-16-inside-4_148_562" fill="white">
<path fill-rule="evenodd" clip-rule="evenodd" d="M22.3858 148.128L30.5986 149.102L24.3556 157.591L28.3451 156.522L36.9743 188.726L26.8048 191.451L18.1756 159.247L21.5058 158.355L13.3037 156.319L19.9509 151.964L23.4436 157.835L23.447 157.834L23.3596 157.404L22.3858 148.128Z"/>
</mask>
<path fill-rule="evenodd" clip-rule="evenodd" d="M22.3858 148.128L30.5986 149.102L24.3556 157.591L28.3451 156.522L36.9743 188.726L26.8048 191.451L18.1756 159.247L21.5058 158.355L13.3037 156.319L19.9509 151.964L23.4436 157.835L23.447 157.834L23.3596 157.404L22.3858 148.128Z" fill="#00A099"/>
<path d="M30.5986 149.102L32.2098 150.287L34.2445 147.52L30.834 147.116L30.5986 149.102ZM22.3858 148.128L22.6212 146.142L20.1354 145.848L20.3967 148.337L22.3858 148.128ZM24.3556 157.591L22.7444 156.406L19.3674 160.998L24.8733 159.523L24.3556 157.591ZM28.3451 156.522L30.277 156.004L29.7593 154.072L27.8275 154.59L28.3451 156.522ZM36.9743 188.726L37.4919 190.658L39.4238 190.141L38.9061 188.209L36.9743 188.726ZM26.8048 191.451L24.8729 191.969L25.3906 193.901L27.3224 193.383L26.8048 191.451ZM18.1756 159.247L17.658 157.315L15.7261 157.833L16.2438 159.765L18.1756 159.247ZM21.5058 158.355L22.0235 160.286L21.9875 156.413L21.5058 158.355ZM13.3037 156.319L12.2077 154.646L8.3754 157.157L12.822 158.26L13.3037 156.319ZM19.9509 151.964L21.6698 150.942L20.602 149.147L18.855 150.291L19.9509 151.964ZM23.4436 157.835L21.7247 158.858L22.4988 160.159L23.9612 159.767L23.4436 157.835ZM23.447 157.834L23.9647 159.766L25.7814 159.279L25.407 157.436L23.447 157.834ZM23.3596 157.404L21.3705 157.612L21.3805 157.708L21.3996 157.802L23.3596 157.404ZM30.834 147.116L22.6212 146.142L22.1505 150.115L30.3632 151.088L30.834 147.116ZM25.9668 158.776L32.2098 150.287L28.9874 147.917L22.7444 156.406L25.9668 158.776ZM27.8275 154.59L23.838 155.659L24.8733 159.523L28.8628 158.454L27.8275 154.59ZM38.9061 188.209L30.277 156.004L26.4133 157.04L35.0424 189.244L38.9061 188.209ZM27.3224 193.383L37.4919 190.658L36.4566 186.795L26.2871 189.519L27.3224 193.383ZM16.2438 159.765L24.8729 191.969L28.7366 190.934L20.1075 158.729L16.2438 159.765ZM20.9882 156.423L17.658 157.315L18.6932 161.179L22.0235 160.286L20.9882 156.423ZM21.9875 156.413L13.7854 154.378L12.822 158.26L21.0241 160.296L21.9875 156.413ZM14.3997 157.992L21.0469 153.637L18.855 150.291L12.2077 154.646L14.3997 157.992ZM18.2321 152.987L21.7247 158.858L25.1624 156.813L21.6698 150.942L18.2321 152.987ZM22.9294 155.903L22.9259 155.903L23.9612 159.767L23.9647 159.766L22.9294 155.903ZM21.3996 157.802L21.4871 158.232L25.407 157.436L25.3195 157.006L21.3996 157.802ZM20.3967 148.337L21.3705 157.612L25.3486 157.195L24.3749 147.92L20.3967 148.337Z" fill="#784E26" mask="url(#path-16-inside-4_148_562)"/>
<path d="M172.832 23.8224L172.813 23.7961L172.793 23.7711L169.604 19.9142C169.364 19.6238 169.084 19.3688 168.772 19.1568L164.354 16.1481L163.791 16.9747L164.354 16.1481C164.185 16.0331 164.007 15.9311 163.823 15.8432L157.26 12.7168C156.921 12.5554 156.561 12.4425 156.191 12.3814L147.794 10.9953C147.375 10.9262 146.948 10.9241 146.528 10.9893L139.415 12.0949L139.361 12.1032L139.309 12.1173L132.46 13.9567C132.162 14.0368 131.874 14.151 131.603 14.2971L132.076 15.1778L131.603 14.2971L125.012 17.8417C124.807 17.9521 124.612 18.0803 124.429 18.2246L119.053 22.468C118.884 22.601 118.726 22.7474 118.581 22.9057L112.574 29.4623L113.308 30.134L112.574 29.4623C112.238 29.83 111.972 30.2575 111.793 30.7228L109.3 37.1732C109.181 37.482 109.101 37.8044 109.061 38.1331L108.048 46.483C107.814 48.415 109.004 50.2353 110.868 50.7954L155.972 64.3497C157.85 64.9141 159.861 64.0338 160.719 62.271L163.105 57.3746C163.199 57.1809 163.278 56.98 163.34 56.7737L164.834 51.8017C165.152 50.7439 166.267 50.144 167.325 50.4619L168.835 50.9157C169.065 50.9848 169.28 51.0945 169.471 51.2398L172.842 53.8059C172.971 53.9043 173.088 54.0182 173.19 54.1449L176.45 58.2044L177.229 57.5782L176.45 58.2044C176.526 58.2996 176.594 58.4016 176.651 58.5091C177.73 60.5145 180.263 61.216 182.219 60.0513L183.556 59.2554C183.638 59.2066 183.724 59.1637 183.812 59.1271L185.172 58.5618C187.006 57.8 188.003 55.8086 187.515 53.8842L187.288 52.9925L187.272 52.9273L187.247 52.8649L185.81 49.2976L183.019 41.8634L182.996 41.8004L182.964 41.7412L179.749 35.7642L176.827 29.4722C176.72 29.2407 176.59 29.02 176.441 28.8131L175.63 29.3991L176.441 28.8131L172.832 23.8224Z" fill="#1B983A" stroke="black" stroke-width="2"/>
<mask id="path-19-inside-5_148_562" fill="white">
<path fill-rule="evenodd" clip-rule="evenodd" d="M127.692 38.3907C127.449 37.8471 126.788 37.635 126.274 37.9358L112.772 45.8397L111.66 43.4449C110.736 41.4553 109.597 39.573 108.262 37.8319L105.84 34.6704C105.44 34.1483 104.653 34.148 104.253 34.6699L102.024 37.5741C100.303 39.8165 99.0043 42.3531 98.1908 45.0602C98.0868 45.406 98.0316 45.7647 98.0267 46.1258L97.9815 49.4396C97.977 49.7697 98.1357 50.0807 98.4056 50.2708L106.541 56.0011L114.138 60.3818L114.191 60.4141C114.656 60.6986 115.128 60.9702 115.607 61.2286L115.656 61.2565L115.655 61.2545C117.088 62.0241 118.581 62.6762 120.12 63.204L120.098 63.2206L121.177 63.5446L121.219 63.5574L130.483 66.3415L130.483 66.3414L137.255 68.3764C140.231 69.2707 143.301 69.8152 146.403 69.9988L155.322 70.5267L155.329 70.5366L162.958 71.0102C163.423 71.0391 163.847 70.7425 163.979 70.2952L168.128 56.2413C168.366 55.4363 167.566 54.7144 166.789 55.0331L155.366 59.7214L148.436 45.83C148.174 45.3055 147.519 45.1175 147.019 45.4233L134.311 53.1952L127.692 38.3907Z"/>
</mask>
<path fill-rule="evenodd" clip-rule="evenodd" d="M127.692 38.3907C127.449 37.8471 126.788 37.635 126.274 37.9358L112.772 45.8397L111.66 43.4449C110.736 41.4553 109.597 39.573 108.262 37.8319L105.84 34.6704C105.44 34.1483 104.653 34.148 104.253 34.6699L102.024 37.5741C100.303 39.8165 99.0043 42.3531 98.1908 45.0602C98.0868 45.406 98.0316 45.7647 98.0267 46.1258L97.9815 49.4396C97.977 49.7697 98.1357 50.0807 98.4056 50.2708L106.541 56.0011L114.138 60.3818L114.191 60.4141C114.656 60.6986 115.128 60.9702 115.607 61.2286L115.656 61.2565L115.655 61.2545C117.088 62.0241 118.581 62.6762 120.12 63.204L120.098 63.2206L121.177 63.5446L121.219 63.5574L130.483 66.3415L130.483 66.3414L137.255 68.3764C140.231 69.2707 143.301 69.8152 146.403 69.9988L155.322 70.5267L155.329 70.5366L162.958 71.0102C163.423 71.0391 163.847 70.7425 163.979 70.2952L168.128 56.2413C168.366 55.4363 167.566 54.7144 166.789 55.0331L155.366 59.7214L148.436 45.83C148.174 45.3055 147.519 45.1175 147.019 45.4233L134.311 53.1952L127.692 38.3907Z" fill="#CD1417"/>
<path d="M126.274 37.9358L125.264 36.2098L126.274 37.9358ZM127.692 38.3907L125.866 39.207L125.866 39.207L127.692 38.3907ZM112.772 45.8397L110.958 46.682L111.884 48.6768L113.782 47.5657L112.772 45.8397ZM111.66 43.4449L113.474 42.6025L113.474 42.6025L111.66 43.4449ZM108.262 37.8319L106.675 39.0484L106.675 39.0484L108.262 37.8319ZM105.84 34.6704L104.252 35.8869L105.84 34.6704ZM104.253 34.6699L102.666 33.4523L102.666 33.4523L104.253 34.6699ZM102.024 37.5741L100.437 36.3565L100.437 36.3565L102.024 37.5741ZM98.1908 45.0602L96.2754 44.4846L98.1908 45.0602ZM98.0267 46.1258L100.027 46.153L100.027 46.153L98.0267 46.1258ZM97.9815 49.4396L99.9814 49.4669L97.9815 49.4396ZM98.4056 50.2708L97.2538 51.9059L97.2538 51.9059L98.4056 50.2708ZM106.541 56.0011L105.389 57.6362L105.463 57.6885L105.542 57.7338L106.541 56.0011ZM114.138 60.3818L115.183 58.676L115.16 58.6623L115.137 58.6492L114.138 60.3818ZM114.191 60.4141L113.147 62.12L113.147 62.12L114.191 60.4141ZM115.607 61.2286L116.606 59.496L116.582 59.4819L116.557 59.4685L115.607 61.2286ZM115.656 61.2565L114.657 62.9892L118.31 65.0957L117.629 60.9336L115.656 61.2565ZM115.655 61.2545L116.602 59.4926L113.026 57.5718L113.681 61.5774L115.655 61.2545ZM120.12 63.204L121.334 64.7936L124.305 62.5249L120.769 61.3121L120.12 63.204ZM120.098 63.2206L118.884 61.631L115.771 64.0085L119.523 65.136L120.098 63.2206ZM121.177 63.5446L121.754 61.6297L121.752 61.6293L121.177 63.5446ZM121.219 63.5574L120.642 65.4723L120.643 65.4728L121.219 63.5574ZM130.483 66.3415L129.908 68.2568L131.823 68.8324L132.399 66.9171L130.483 66.3415ZM130.483 66.3414L131.059 64.426L129.144 63.8505L128.568 65.7658L130.483 66.3414ZM146.403 69.9988L146.522 68.0023L146.522 68.0023L146.403 69.9988ZM155.322 70.5267L156.938 69.349L156.383 68.586L155.44 68.5302L155.322 70.5267ZM155.329 70.5366L153.713 71.7143L154.267 72.4745L155.205 72.5328L155.329 70.5366ZM162.958 71.0102L163.082 69.014L163.082 69.014L162.958 71.0102ZM163.979 70.2952L162.061 69.7289L162.061 69.7289L163.979 70.2952ZM168.128 56.2413L170.046 56.8076L170.046 56.8076L168.128 56.2413ZM166.789 55.0331L167.549 56.8833L167.549 56.8833L166.789 55.0331ZM155.366 59.7214L153.576 60.6142L154.406 62.2773L156.125 61.5716L155.366 59.7214ZM148.436 45.83L146.646 46.7229L146.646 46.7229L148.436 45.83ZM147.019 45.4233L148.063 47.1295L148.063 47.1295L147.019 45.4233ZM134.311 53.1952L132.485 54.0116L133.414 56.0884L135.355 54.9015L134.311 53.1952ZM127.284 39.6618C126.77 39.9626 126.109 39.7505 125.866 39.207L129.518 37.5743C128.789 35.9437 126.805 35.3074 125.264 36.2098L127.284 39.6618ZM113.782 47.5657L127.284 39.6618L125.264 36.2098L111.761 44.1137L113.782 47.5657ZM109.846 44.2872L110.958 46.682L114.586 44.9974L113.474 42.6025L109.846 44.2872ZM106.675 39.0484C107.92 40.6735 108.984 42.4302 109.846 44.2872L113.474 42.6025C112.488 40.4803 111.273 38.4726 109.85 36.6153L106.675 39.0484ZM104.252 35.8869L106.675 39.0484L109.85 36.6153L107.427 33.4539L104.252 35.8869ZM105.839 35.8875C105.439 36.4093 104.652 36.409 104.252 35.8869L107.427 33.4539C106.227 31.8876 103.867 31.8868 102.666 33.4523L105.839 35.8875ZM103.611 38.7917L105.839 35.8875L102.666 33.4523L100.437 36.3565L103.611 38.7917ZM100.106 45.6358C100.85 43.1609 102.037 40.8418 103.611 38.7917L100.437 36.3565C98.5689 38.7912 97.1586 41.5454 96.2754 44.4846L100.106 45.6358ZM100.027 46.153C100.029 45.9778 100.056 45.8036 100.106 45.6358L96.2754 44.4846C96.118 45.0084 96.0343 45.5516 96.0269 46.0986L100.027 46.153ZM99.9814 49.4669L100.027 46.153L96.0269 46.0985L95.9817 49.4124L99.9814 49.4669ZM99.5573 48.6357C99.8272 48.8258 99.9858 49.1368 99.9814 49.4669L95.9817 49.4124C95.9682 50.4025 96.4442 51.3356 97.2538 51.9059L99.5573 48.6357ZM107.692 54.3661L99.5573 48.6357L97.2538 51.9059L105.389 57.6362L107.692 54.3661ZM115.137 58.6492L107.54 54.2685L105.542 57.7338L113.14 62.1145L115.137 58.6492ZM115.235 58.7083L115.183 58.676L113.094 62.0876L113.147 62.12L115.235 58.7083ZM116.557 59.4685C116.11 59.2273 115.669 58.9738 115.235 58.7083L113.147 62.12C113.643 62.4234 114.147 62.7131 114.658 62.9888L116.557 59.4685ZM116.655 59.5239L116.606 59.496L114.608 62.9613L114.657 62.9892L116.655 59.5239ZM113.681 61.5774L113.682 61.5794L117.629 60.9336L117.629 60.9316L113.681 61.5774ZM120.769 61.3121C119.332 60.8195 117.939 60.211 116.602 59.4926L114.709 63.0163C116.237 63.8373 117.83 64.5328 119.471 65.0958L120.769 61.3121ZM121.312 64.8102L121.334 64.7936L118.906 61.6144L118.884 61.631L121.312 64.8102ZM121.752 61.6293L120.674 61.3052L119.523 65.136L120.601 65.46L121.752 61.6293ZM121.796 61.6424L121.754 61.6297L120.6 65.4596L120.642 65.4723L121.796 61.6424ZM131.059 64.4261L121.794 61.642L120.643 65.4728L129.908 68.2568L131.059 64.4261ZM128.568 65.7658L128.568 65.7659L132.399 66.9171L132.399 66.917L128.568 65.7658ZM137.831 66.461L131.059 64.426L129.908 68.2568L136.68 70.2918L137.831 66.461ZM146.522 68.0023C143.575 67.8278 140.658 67.3106 137.831 66.461L136.68 70.2918C139.804 71.2308 143.028 71.8025 146.285 71.9953L146.522 68.0023ZM155.44 68.5302L146.522 68.0023L146.285 71.9953L155.204 72.5232L155.44 68.5302ZM156.946 69.3589L156.938 69.349L153.705 71.7044L153.713 71.7143L156.946 69.3589ZM163.082 69.014L155.453 68.5404L155.205 72.5328L162.834 73.0063L163.082 69.014ZM162.061 69.7289C162.193 69.2817 162.616 68.9851 163.082 69.014L162.834 73.0063C164.23 73.093 165.501 72.2032 165.897 70.8615L162.061 69.7289ZM166.21 55.675L162.061 69.7289L165.897 70.8615L170.046 56.8076L166.21 55.675ZM167.549 56.8833C166.772 57.202 165.972 56.48 166.21 55.675L170.046 56.8076C170.759 54.3927 168.359 52.2268 166.03 53.1828L167.549 56.8833ZM156.125 61.5716L167.549 56.8833L166.03 53.1828L154.607 57.8712L156.125 61.5716ZM146.646 46.7229L153.576 60.6142L157.156 58.8286L150.226 44.9372L146.646 46.7229ZM148.063 47.1295C147.563 47.4354 146.908 47.2474 146.646 46.7229L150.226 44.9372C149.44 43.3635 147.476 42.7995 145.976 43.7171L148.063 47.1295ZM135.355 54.9015L148.063 47.1295L145.976 43.7171L133.268 51.489L135.355 54.9015ZM125.866 39.207L132.485 54.0116L136.137 52.3789L129.518 37.5743L125.866 39.207Z" fill="black" mask="url(#path-19-inside-5_148_562)"/>
<circle cx="187.639" cy="68.7328" r="11.5429" transform="rotate(16.7259 187.639 68.7328)" fill="#CD1417" stroke="black" stroke-width="2"/>
<path d="M165.001 44.6305V44.6305C165.436 46.6176 165.356 48.6825 164.771 50.6305L163.063 56.3148" stroke="black" stroke-width="2" stroke-linecap="round"/>
</svg>
